<svg width="64" height="58" viewBox="0 0 64 58" fill="none" xmlns="http://www.w3.org/2000/svg">
<path fill-rule="evenodd" clip-rule="evenodd" d="M59.2009 57.9134H4.79906C2.17458 57.9134 0 55.7393 0 53.1154V4.79801C0 2.13661 2.17458 0 4.79906 0H59.2009C61.8254 0 63.9625 2.13661 63.9625 4.79801V53.1154C63.9625 55.7393 61.8254 57.9134 59.2009 57.9134ZM4.79906 1.49938C2.99941 1.49938 1.49971 2.96127 1.49971 4.79801V53.1154C1.49971 54.9147 2.99941 56.4141 4.79906 56.4141H59.2009C61.0006 56.4141 62.4628 54.9147 62.4628 53.1154V4.79801C62.4628 2.96127 61.0006 1.49938 59.2009 1.49938H4.79906Z" fill="white"/>
<path fill-rule="evenodd" clip-rule="evenodd" d="M63.2126 14.8064H0.749845C-0.224965 14.8064 -0.224965 13.307 0.749845 13.307H63.2126C64.2249 13.307 64.2249 14.8064 63.2126 14.8064Z" fill="white"/>
<path fill-rule="evenodd" clip-rule="evenodd" d="M9.82309 7.53441H5.69889C4.68659 7.53441 4.68659 6.03503 5.69889 6.03503H9.82309C10.7979 6.03503 10.7979 7.53441 9.82309 7.53441Z" fill="white"/>
<path fill-rule="evenodd" clip-rule="evenodd" d="M18.4464 7.53441H14.3222C13.3099 7.53441 13.3099 6.03503 14.3222 6.03503H18.4464C19.4587 6.03503 19.4212 7.53441 18.4464 7.53441Z" fill="white"/>
<path fill-rule="evenodd" clip-rule="evenodd" d="M27.0697 7.53441H22.9455C21.9332 7.53441 21.9332 6.03503 22.9455 6.03503H27.0697C28.0445 6.03503 28.082 7.53441 27.0697 7.53441Z" fill="white"/>
<path fill-rule="evenodd" clip-rule="evenodd" d="M59.0135 11.6201H36.2179C35.1681 11.6201 34.3433 10.758 34.3433 9.74592V5.06037C34.3433 4.04829 35.1681 3.22363 36.2179 3.22363H59.0135C60.0633 3.22363 60.8881 4.04829 60.8881 5.06037V9.74592C60.8881 10.758 60.0633 11.6201 59.0135 11.6201ZM36.2179 4.68553C35.993 4.68553 35.843 4.87295 35.843 5.06037V9.74592C35.843 9.93334 35.993 10.0833 36.2179 10.0833H59.0135C59.2384 10.0833 59.3884 9.93334 59.3884 9.74592V5.06037C59.3884 4.87295 59.2009 4.68553 59.0135 4.68553H36.2179Z" fill="white"/>
<path fill-rule="evenodd" clip-rule="evenodd" d="M56.389 8.13414H38.8049C37.8301 8.13414 37.8301 6.63477 38.8049 6.63477H56.389C57.3638 6.63477 57.3638 8.13414 56.389 8.13414Z" fill="white"/>
<path fill-rule="evenodd" clip-rule="evenodd" d="M31.9813 14.8064C31.5688 14.8064 31.2314 14.469 31.2314 14.0567V0.749745C31.2314 -0.22485 32.7311 -0.22485 32.7311 0.749745V14.0567C32.7311 14.469 32.3937 14.8064 31.9813 14.8064Z" fill="white"/>
<path fill-rule="evenodd" clip-rule="evenodd" d="M12.5225 28.3007H9.74808C9.33566 28.3007 8.99823 27.9634 8.99823 27.551V21.5535C8.99823 21.1412 9.33566 20.8038 9.74808 20.8038H12.5225C17.2091 20.8038 17.2091 28.3007 12.5225 28.3007ZM10.4979 26.8013C12.5975 26.8013 14.5471 27.1762 14.5471 24.3274C14.5471 23.2028 13.6473 22.3032 12.5225 22.3032H10.4979V26.8013Z" fill="white"/>
<path fill-rule="evenodd" clip-rule="evenodd" d="M12.5225 34.2983H9.74808C9.33566 34.2983 8.99823 33.9609 8.99823 33.5486V27.5511C8.99823 27.1388 9.33566 26.8014 9.74808 26.8014H12.5225C17.2091 26.8014 17.2091 34.2983 12.5225 34.2983ZM10.4979 32.7989C12.5975 32.7989 14.5471 33.1737 14.5471 30.3249C14.5471 29.2004 13.6473 28.3008 12.5225 28.3008H10.4979V32.7989Z" fill="white"/>
<path fill-rule="evenodd" clip-rule="evenodd" d="M25.9449 34.2983H19.3837C18.9713 34.2983 18.6339 33.9609 18.6339 33.5486V21.5536C18.6339 20.579 20.1336 20.579 20.1336 21.5536V32.7989H25.9449C26.9197 32.7989 26.9197 34.2983 25.9449 34.2983Z" fill="white"/>
<path fill-rule="evenodd" clip-rule="evenodd" d="M33.9684 34.2982C31.3814 34.2982 29.2818 32.1991 29.2818 29.6127V25.5269C29.2818 22.903 31.3814 20.8038 33.9684 20.8038C36.5553 20.8038 38.6549 22.903 38.6549 25.5269V29.6127C38.6549 32.1991 36.5553 34.2982 33.9684 34.2982ZM33.9684 22.3032C32.2062 22.3032 30.7815 23.7276 30.7815 25.4894V29.5752C30.7815 33.8109 37.1552 33.8109 37.1552 29.5752V25.4894C37.1552 23.7276 35.7305 22.3032 33.9684 22.3032Z" fill="white"/>
<path fill-rule="evenodd" clip-rule="evenodd" d="M47.9906 34.2983C44.2789 34.2983 41.2419 31.262 41.2419 27.5511C41.2419 21.741 48.1781 18.6673 52.5272 22.5656C53.2396 23.2404 52.2273 24.3274 51.5149 23.6902C48.1406 20.6539 42.7417 23.0155 42.7417 27.5511C42.7417 30.4374 45.1037 32.7989 47.9906 32.7989C50.8776 32.7989 53.2396 30.4374 53.2396 27.5886C53.2396 26.5765 54.7393 26.5765 54.7393 27.5886C54.7018 31.262 51.7024 34.2983 47.9906 34.2983Z" fill="white"/>
<path fill-rule="evenodd" clip-rule="evenodd" d="M53.9895 28.3382H48.5155C47.5407 28.3382 47.5407 26.8389 48.5155 26.8389H53.9895C54.9643 26.8389 54.9643 28.3382 53.9895 28.3382Z" fill="white"/>
<path fill-rule="evenodd" clip-rule="evenodd" d="M53.9895 39.6586H9.74811C8.7733 39.6586 8.7733 38.1592 9.74811 38.1592H53.9895C54.9643 38.1592 54.9643 39.6586 53.9895 39.6586Z" fill="white"/>
<path fill-rule="evenodd" clip-rule="evenodd" d="M53.9895 45.0188H9.74811C8.7733 45.0188 8.7733 43.5194 9.74811 43.5194H53.9895C54.9643 43.5194 54.9643 45.0188 53.9895 45.0188Z" fill="white"/>
<path fill-rule="evenodd" clip-rule="evenodd" d="M53.9895 50.4166H9.74811C8.7733 50.4166 8.7733 48.9172 9.74811 48.9172H53.9895C54.9643 48.9172 54.9643 50.4166 53.9895 50.4166Z" fill="white"/>
</svg>
