<svg width="42" height="42" viewBox="0 0 42 42" fill="none" xmlns="http://www.w3.org/2000/svg">
<g clip-path="url(#clip0_218_4)">
<path d="M40.6 7.2083H39.2V5.39394C39.1984 4.95 38.9874 4.53278 38.6309 4.26832C38.2763 4.00406 37.8165 3.92597 37.3946 4.05835C34.8043 4.7976 32.1193 5.15138 29.4258 5.10833C24.7008 5.10833 21.9967 6.44462 20.9999 7.06204C20.0031 6.44462 17.299 5.10833 12.574 5.10833C9.88039 5.15055 7.19525 4.7953 4.60521 4.05416C4.18325 3.92297 3.72403 4.00099 3.36899 4.26413C3.01122 4.5295 2.80014 4.94853 2.79986 5.39394V7.2083H1.4C0.626835 7.2083 0 7.83513 0 8.6083V36.6083C0 37.3815 0.626835 38.0083 1.4 38.0083H40.6C41.3732 38.0083 42 37.3815 42 36.6083V8.6083C42 7.83513 41.3732 7.2083 40.6 7.2083ZM37.8 5.39394V7.90833L37.8035 33.3183C35.0931 34.1626 32.2643 34.5644 29.4259 34.5083C26.7641 34.4257 24.1195 34.9617 21.7 36.0742V8.27796C22.47 7.79912 24.9487 6.50833 29.4259 6.50833C32.2568 6.55013 35.0785 6.17464 37.8 5.39394ZM12.5741 6.50833C17.0513 6.50833 19.53 7.79912 20.3 8.27796V36.0743C17.8805 34.9618 15.2359 34.4257 12.5741 34.5084C9.73713 34.5661 6.90943 34.1656 4.2 33.3226L4.19302 7.94203C4.19302 7.9301 4.2 7.92033 4.2 7.9084C4.2 7.89647 4.19372 7.8867 4.19302 7.87477V5.39185C6.91661 6.17387 9.74069 6.55006 12.5741 6.50833ZM1.4 8.6083H2.8V33.3225C2.79853 33.9197 3.17605 34.4521 3.74008 34.6483C6.59772 35.541 9.58075 35.9665 12.574 35.9083C14.3403 35.8875 16.1003 36.1233 17.7988 36.6083H1.4V8.6083ZM40.6 36.6083H24.2011C25.8995 36.1229 27.6595 35.8871 29.4259 35.9083C32.4194 35.9665 35.4026 35.5409 38.2606 34.6483C38.8244 34.4519 39.2016 33.9195 39.2 33.3225V8.6083H40.6V36.6083Z" fill="white"/>
<path fill-rule="evenodd" clip-rule="evenodd" d="M18.41 31.1252C16.5168 30.5575 14.5482 30.282 12.5719 30.3083C10.7459 30.3166 8.92279 30.1635 7.12385 29.8504C6.74753 29.7906 6.39249 30.0428 6.32508 30.4178C6.2576 30.7928 6.50253 31.153 6.87606 31.228C8.75678 31.5562 10.6629 31.7169 12.5719 31.7083C14.4056 31.682 16.2326 31.9353 17.99 32.4594C18.0578 32.4812 18.1287 32.4923 18.1999 32.4923C18.5447 32.4912 18.8374 32.2393 18.8898 31.8986C18.9422 31.5578 18.7386 31.2297 18.41 31.1252Z" fill="white"/>
<path fill-rule="evenodd" clip-rule="evenodd" d="M18.41 27.6252C16.5168 27.0575 14.5482 26.782 12.5719 26.8083C10.7459 26.8167 8.92279 26.6635 7.12385 26.3505C6.74753 26.2907 6.39249 26.5429 6.32508 26.9179C6.2576 27.2929 6.50253 27.653 6.87606 27.7281C8.75678 28.0563 10.6629 28.217 12.5719 28.2083C14.4056 28.182 16.2326 28.4353 17.99 28.9594C18.0578 28.9812 18.1287 28.9923 18.1999 28.9923C18.5447 28.9912 18.8374 28.7393 18.8898 28.3986C18.9422 28.0578 18.7386 27.7297 18.41 27.6252Z" fill="white"/>
<path fill-rule="evenodd" clip-rule="evenodd" d="M18.41 24.1252C16.5168 23.5575 14.5482 23.282 12.5719 23.3083C10.7459 23.3166 8.92279 23.1635 7.12385 22.8504C6.74753 22.7906 6.39249 23.0428 6.32508 23.4178C6.2576 23.7928 6.50253 24.153 6.87606 24.228C8.75678 24.5562 10.6629 24.7169 12.5719 24.7083C14.4056 24.682 16.2326 24.9353 17.99 25.4594C18.0578 25.4812 18.1287 25.4923 18.1999 25.4923C18.5447 25.4912 18.8374 25.2393 18.8898 24.8986C18.9422 24.5578 18.7386 24.2297 18.41 24.1252Z" fill="white"/>
<path d="M6.87606 19.7971C8.75678 20.125 10.6629 20.2857 12.5719 20.2774C14.4056 20.2511 16.2326 20.5044 17.99 21.0285C18.2025 21.0953 18.4341 21.057 18.6138 20.9253C18.7935 20.7935 18.8997 20.5842 18.9 20.3614V10.5613C18.8997 10.2559 18.7014 9.98583 18.41 9.89421C16.5168 9.32648 14.5482 9.05098 12.5719 9.07729C10.7459 9.08566 8.92279 8.9325 7.12385 8.61946C6.91981 8.58276 6.70999 8.63837 6.55096 8.77137C6.39193 8.90438 6.29996 9.10095 6.29996 9.30826V19.1083C6.30003 19.447 6.54265 19.7372 6.87606 19.7971ZM7.69996 10.1329C9.31328 10.3672 10.9417 10.4823 12.5719 10.4773C14.2344 10.4583 15.8918 10.6624 17.5 11.0842V19.4373C15.8863 19.0504 14.2313 18.8623 12.5719 18.8773C10.941 18.8828 9.31216 18.762 7.69996 18.5161V10.1329Z" fill="white"/>
<path fill-rule="evenodd" clip-rule="evenodd" d="M23.8 18.2613C23.8713 18.2613 23.9422 18.2502 24.01 18.2285C25.7673 17.7043 27.5943 17.451 29.428 17.4774C31.337 17.4857 33.2432 17.325 35.1239 16.9971C35.3742 16.9574 35.5835 16.7853 35.671 16.5474C35.7585 16.3095 35.7106 16.0429 35.5456 15.8504C35.3807 15.6578 35.1246 15.5696 34.8761 15.6195C33.0771 15.9325 31.2539 16.0857 29.428 16.0774C27.4517 16.051 25.4831 16.3265 23.59 16.8943C23.2614 16.9987 23.0578 17.3269 23.1102 17.6676C23.1625 18.0084 23.4552 18.2603 23.8 18.2613Z" fill="white"/>
<path fill-rule="evenodd" clip-rule="evenodd" d="M23.8 14.7613C23.8713 14.7612 23.9422 14.7501 24.01 14.7284C25.7673 14.2043 27.5943 13.951 29.428 13.9773C31.337 13.9856 33.2432 13.8249 35.1239 13.4971C35.3742 13.4573 35.5835 13.2853 35.671 13.0474C35.7585 12.8095 35.7106 12.5429 35.5456 12.3503C35.3807 12.1578 35.1246 12.0695 34.8761 12.1195C33.0771 12.4325 31.2539 12.5857 29.428 12.5773C27.4517 12.551 25.4831 12.8265 23.59 13.3942C23.2614 13.4987 23.0578 13.8269 23.1102 14.1676C23.1625 14.5083 23.4552 14.7603 23.8 14.7613Z" fill="white"/>
<path fill-rule="evenodd" clip-rule="evenodd" d="M23.8 11.2613C23.8713 11.2613 23.9422 11.2502 24.01 11.2285C25.7673 10.7043 27.5943 10.451 29.428 10.4773C31.337 10.4857 33.2432 10.3249 35.1239 9.99712C35.4975 9.92204 35.7423 9.56197 35.6749 9.1869C35.6074 8.8119 35.2523 8.55972 34.8761 8.61952C33.0771 8.93248 31.2539 9.08572 29.428 9.07735C27.4517 9.05104 25.4831 9.32653 23.59 9.89426C23.2614 9.99873 23.0578 10.3269 23.1102 10.6676C23.1625 11.0084 23.4552 11.2603 23.8 11.2613Z" fill="white"/>
<path d="M23.3863 32.2732C23.5662 32.4047 23.7981 32.4427 24.0107 32.3754C25.7678 31.8514 27.5945 31.5981 29.428 31.6243C31.337 31.6326 33.2432 31.4719 35.1239 31.1441C35.4573 31.0841 35.6999 30.7941 35.7 30.4553V20.6553C35.6999 20.448 35.608 20.2513 35.449 20.1184C35.2899 19.9854 35.0801 19.9298 34.8761 19.9665C33.0771 20.2794 31.2539 20.4327 29.428 20.4243C27.4517 20.3977 25.483 20.6731 23.59 21.2412C23.2986 21.3328 23.1003 21.6029 23.1 21.9083V31.7083C23.0999 31.9315 23.2063 32.1413 23.3863 32.2732ZM24.5 22.4312C26.1081 22.0094 27.7655 21.8053 29.428 21.8243C31.0583 21.8293 32.6867 21.7142 34.3 21.4799V29.8631C32.6877 30.109 31.0589 30.2298 29.428 30.2243C27.7686 30.2094 26.1137 30.3974 24.5 30.7843V22.4312Z" fill="white"/>
</g>
<defs>
<clipPath id="clip0_218_4">
<rect width="42" height="42" fill="white"/>
</clipPath>
</defs>
</svg>
