<svg width="60" height="60" viewBox="0 0 60 60" fill="none" xmlns="http://www.w3.org/2000/svg">
<g clip-path="url(#clip0_174_476)">
<path d="M52.592 19.612H48.267V11.1008C48.267 9.64336 47.6874 8.28492 46.7388 7.29176L43.9442 4.36746C41.5725 1.92387 41.2732 1.23352 39.8606 0.547852C39.2044 0.220313 38.3397 0 37.4678 0H17.0547C14.0138 0 11.5408 2.47418 11.5408 5.51391V35.2488H10.3779C8.62361 35.2488 7.19685 36.6756 7.19685 38.4299C7.19685 39.3029 7.55029 40.0935 8.12052 40.6684C7.55029 41.2433 7.19685 42.0339 7.19685 42.9069C7.19685 43.2345 7.24279 43.4289 7.25931 43.5361C0.356263 44.2383 -2.39366 52.7824 2.65841 57.4198C4.18419 58.8206 6.20943 59.6147 8.40552 59.5252C9.13126 59.5252 24.0729 59.5193 24.0918 59.5193C25.8449 59.5193 27.2728 58.0925 27.2728 56.3382C27.2728 55.4652 26.9194 54.6746 26.3492 54.0997C26.8853 53.5589 27.2292 52.8296 27.2681 52.0191H28.4617V52.6564C28.4617 56.7059 31.7558 60 35.8052 60H52.592C56.6414 60 59.9356 56.7059 59.9356 52.6564V26.9556C59.9357 22.9062 56.6414 19.612 52.592 19.612ZM45.0883 8.29441C45.0883 8.29441 45.0894 8.29441 45.0906 8.29676C45.0918 8.29676 45.0918 8.29676 45.0918 8.29676C45.0929 8.2991 45.0953 8.30145 45.0965 8.30262L45.0976 8.30379C45.1 8.3073 45.1023 8.30965 45.1047 8.31082C45.1058 8.31199 45.107 8.31316 45.1082 8.31551C45.1093 8.31668 45.1105 8.31668 45.1105 8.31785C45.1117 8.31902 45.1129 8.31902 45.114 8.32137C45.1164 8.32254 45.1176 8.32488 45.1187 8.32606H40.3954V3.33305C44.0974 7.24582 44.9316 8.12824 45.0883 8.29441ZM10.3779 37.1339H24.0919C24.8059 37.1339 25.3879 37.716 25.3879 38.4299C25.3879 39.1451 24.8058 39.7259 24.0919 39.7259H10.3779C9.66388 39.7259 9.08193 39.1451 9.08193 38.4299C9.08181 37.7159 9.66388 37.1339 10.3779 37.1339ZM10.3779 41.6109H24.0919C24.8059 41.6109 25.3879 42.193 25.3879 42.9069C25.3879 43.6221 24.8058 44.2029 24.0919 44.2029H14.6193C14.234 44.0262 13.8346 43.8824 13.4257 43.7716C12.8154 43.6055 12.1839 43.5112 11.5406 43.4947C11.3557 43.49 11.1707 43.4912 10.9858 43.4994H9.22677C9.13372 43.3215 9.08181 43.1201 9.08181 42.9068C9.08181 42.193 9.66388 41.6109 10.3779 41.6109ZM25.3879 47.3841C25.3879 48.0993 24.8058 48.68 24.0919 48.68H18.8172C18.459 47.7268 17.9194 46.8491 17.2172 46.0881H24.0919C24.8058 46.0881 25.3879 46.67 25.3879 47.3841ZM5.79236 45.6922C5.21861 46.2366 4.70837 46.8833 4.30783 47.5962H3.20978C3.92732 46.7066 4.81923 46.0739 5.79236 45.6922ZM2.20712 49.3634H3.57974C3.54915 49.4953 3.39353 50.0031 3.32286 50.7761H1.87255C1.92915 50.2907 2.04107 49.817 2.20712 49.3634ZM2.35911 54.0349C2.15064 53.5612 2.00099 53.0606 1.91615 52.5434H3.35591C3.61396 54.0067 3.62802 53.7545 3.69283 54.0349H2.35911ZM3.53497 55.8021C4.11341 55.8009 4.44927 55.8045 4.52814 55.7998C4.8804 56.3558 5.30451 56.8707 5.79587 57.3337C4.94169 56.998 4.18185 56.4855 3.53497 55.8021ZM11.5772 57.7591C8.12872 57.9076 5.20911 55.2367 5.06298 51.7799C4.82615 46.2766 11.3992 43.1073 15.5381 46.9069C19.6184 50.6523 17.1347 57.5305 11.5772 57.7591ZM24.0919 57.6342H16.4844C17.3268 56.9214 18.0184 56.0389 18.5097 55.0423H24.0919C24.8059 55.0423 25.3879 55.6243 25.3879 56.3382C25.3879 57.0533 24.8058 57.6342 24.0919 57.6342ZM25.3773 52.0191C25.2995 52.66 24.7528 53.1572 24.0919 53.1572H19.1601C19.3309 52.3396 19.3792 51.4582 19.2743 50.5652H24.0919C24.886 50.5651 25.4786 51.2756 25.3773 52.0191ZM28.4617 50.1339H26.7604C26.6414 49.9489 26.5035 49.7781 26.3492 49.6226C27.5803 48.3807 27.5815 46.3873 26.3492 45.1455C26.9194 44.5706 27.2728 43.7801 27.2728 42.907C27.2728 42.034 26.9194 41.2434 26.3492 40.6685C28.3308 38.6703 26.9147 35.2489 24.0918 35.2489H13.4257V5.51391C13.4257 3.5134 15.0539 1.88508 17.0545 1.88508H38.5104V9.26871C38.5104 9.78949 38.9322 10.2113 39.4529 10.2113H46.2699C46.4666 10.9747 46.3452 10.7225 46.3818 19.6119H35.8052C31.7558 19.6119 28.4617 22.9061 28.4617 26.9555V50.1339ZM58.1684 52.6564C58.1684 55.7314 55.6671 58.2328 52.592 58.2328H35.8054C32.7315 58.2328 30.229 55.7316 30.229 52.6564V26.9556C30.229 23.8806 32.7314 21.3792 35.8054 21.3792H52.5921C55.6671 21.3792 58.1685 23.8805 58.1685 26.9556V52.6564H58.1684Z" fill="white"/>
<path d="M52.5297 23.3833H35.8678C34.2294 23.3833 32.9012 24.7115 32.9012 26.3499V29.584C32.9012 31.2224 34.2294 32.5506 35.8678 32.5506H39.0736C39.5616 32.5506 39.9572 32.155 39.9572 31.6671C39.9572 31.1791 39.5616 30.7835 39.0736 30.7835H35.8678C35.2082 30.7835 34.6684 30.2437 34.6684 29.584V26.3499C34.6684 25.6903 35.2082 25.1505 35.8678 25.1505H52.5297C53.1918 25.1505 53.7291 25.689 53.7291 26.3499V29.584C53.7291 30.245 53.1918 30.7835 52.5297 30.7835H42.8839C42.396 30.7835 42.0004 31.1791 42.0004 31.6671C42.0004 32.155 42.396 32.5506 42.8839 32.5506H52.5297C54.1662 32.5506 55.4963 31.2193 55.4963 29.584V26.3499C55.4963 24.7147 54.1661 23.3833 52.5297 23.3833Z" fill="white"/>
<path d="M37.7706 42.0033H34.7509C33.7317 42.0033 32.9012 42.8327 32.9012 43.853V46.8715C32.9012 47.8918 33.7318 48.7212 34.7509 48.7212H37.7706C38.7909 48.7212 39.6203 47.8917 39.6203 46.8715V43.853C39.6203 42.8327 38.7908 42.0033 37.7706 42.0033ZM37.853 46.8715C37.853 46.9174 37.8152 46.954 37.7705 46.954H34.7508C34.706 46.954 34.6683 46.9174 34.6683 46.8715V43.853C34.6683 43.807 34.706 43.7705 34.7508 43.7705H37.7705C37.8152 43.7705 37.853 43.807 37.853 43.853V46.8715Z" fill="white"/>
<path d="M53.742 34.1095H50.7234C49.7031 34.1095 48.8737 34.9389 48.8737 35.9592V38.9777C48.8737 39.9981 49.7032 40.8274 50.7234 40.8274H53.742C54.7623 40.8274 55.5916 39.9979 55.5916 38.9777V35.9592C55.5916 34.9389 54.7622 34.1095 53.742 34.1095ZM53.8245 38.9777C53.8245 39.0236 53.7879 39.0602 53.742 39.0602H50.7234C50.6787 39.0602 50.6409 39.0236 50.6409 38.9777C50.6775 35.9911 50.5643 35.8767 50.7234 35.8767H53.742C53.7879 35.8767 53.8245 35.9132 53.8245 35.9592V38.9777Z" fill="white"/>
<path d="M37.7706 34.1095H34.7509C33.7317 34.1095 32.9012 34.9389 32.9012 35.9592V38.9777C32.9012 39.9981 33.7318 40.8274 34.7509 40.8274H37.7706C38.7909 40.8274 39.6203 39.9979 39.6203 38.9777V35.9592C39.6203 34.9389 38.7908 34.1095 37.7706 34.1095ZM37.853 38.9777C37.853 39.0236 37.8152 39.0602 37.7705 39.0602H34.7508C34.706 39.0602 34.6683 39.0236 34.6683 38.9777V35.9592C34.6683 35.9132 34.706 35.8767 34.7508 35.8767H37.7705C37.8152 35.8767 37.853 35.9132 37.853 35.9592V38.9777Z" fill="white"/>
<path d="M39.1549 50.1338C38.8156 49.7521 38.3208 49.5106 37.7706 49.5106H34.7509C34.2007 49.5106 33.7058 49.7521 33.3677 50.1338C32.7257 50.8537 32.9436 51.6384 32.9012 52.0189V54.3788C32.9012 55.3992 33.7318 56.2285 34.7509 56.2285H37.7706C38.7909 56.2285 39.6203 55.3991 39.6203 54.3788V52.0189C39.5779 51.6467 39.7935 50.8537 39.1549 50.1338ZM37.7706 54.4613C34.7875 54.4248 34.6684 54.538 34.6684 54.3788C34.6684 51.1824 34.633 51.2778 34.7509 51.2778H37.7706C37.9156 51.2778 37.826 51.4793 37.8531 52.0189C37.8531 52.0189 37.9296 54.4613 37.7706 54.4613Z" fill="white"/>
<path d="M53.273 42.0033H51.1923C49.914 42.0033 48.8736 43.0437 48.8736 44.322V53.6967C48.8736 55.0929 50.0094 56.2287 51.4044 56.2287H53.061C54.4571 56.2287 55.5918 55.0929 55.5918 53.6967V44.322C55.5916 43.0437 54.5525 42.0033 53.273 42.0033ZM53.061 54.4614H51.4044C50.9838 54.4614 50.6409 54.1185 50.6409 53.6967V44.322C50.6409 44.018 50.8883 43.7706 51.1923 43.7706H53.273C53.5769 43.7706 53.8243 44.018 53.8243 44.322V53.6967C53.8244 54.1185 53.4827 54.4614 53.061 54.4614Z" fill="white"/>
<path d="M22.8102 25.6673C21.7328 25.2714 20.9544 24.9855 20.9544 23.9873C20.9544 23.0776 21.5586 22.6163 22.7501 22.6163C24.0149 22.6163 24.3554 23.1731 24.801 23.1731C25.2859 23.1731 25.5541 22.6585 25.5541 22.3026C25.5541 21.5664 24.3533 21.2014 23.2799 21.1051V20.4413C23.2799 19.9796 22.9043 19.604 22.4426 19.604C21.9809 19.604 21.6053 19.9796 21.6053 20.4413V21.2109C20.1375 21.5594 19.331 22.5732 19.331 24.0753C19.331 26.1319 20.8451 26.7009 22.062 27.1583C23.2533 27.6059 24.1944 27.9596 24.1944 29.3198C24.1944 30.4433 23.5706 31.0129 22.34 31.0129C20.5391 31.0129 20.5222 29.797 19.8353 29.797C19.4099 29.797 19.0672 30.2732 19.0672 30.6674C19.0672 31.3638 20.1042 32.279 21.6053 32.5165V33.1579C21.6053 33.6196 21.9809 33.9952 22.4426 33.9952C22.9043 33.9952 23.2799 33.6196 23.2799 33.1579V32.4993C24.8945 32.1954 25.8179 31.0099 25.8179 29.2318C25.8178 26.7724 24.1502 26.1597 22.8102 25.6673Z" fill="white"/>
<path d="M46.991 50.0291C46.6588 49.7086 46.2063 49.5106 45.7091 49.5106H42.6894C42.1392 49.5106 41.6443 49.7521 41.3051 50.1338C40.6654 50.8549 40.8822 51.6384 40.8397 52.0189V54.3788C40.8397 55.3992 41.6692 56.2285 42.6894 56.2285H45.7091C46.7283 56.2285 47.5576 55.3991 47.5576 54.3788V51.3591C47.5576 50.8373 47.3397 50.3648 46.991 50.0291ZM45.7091 54.4613C42.726 54.4248 42.6069 54.538 42.6069 54.3788V51.3591C42.6069 51.3144 42.6447 51.2778 42.6894 51.2778H45.7091C45.7539 51.2778 45.7904 51.3144 45.7904 51.3591C45.755 54.3494 45.8658 54.4613 45.7091 54.4613Z" fill="white"/>
<path d="M45.7091 34.1095H42.6894C41.6691 34.1095 40.8397 34.9389 40.8397 35.9592V38.9777C40.8397 39.9981 41.6692 40.8274 42.6894 40.8274H45.7091C45.9471 40.8274 46.1733 40.7826 46.3819 40.7001C47.0699 40.4304 47.5577 39.7599 47.5577 38.9776V35.9591C47.5576 34.9353 46.7235 34.1095 45.7091 34.1095ZM45.7091 39.0602H42.6894C42.6446 39.0602 42.6069 39.0236 42.6069 38.9777V35.9592C42.6069 35.8002 42.7165 35.9121 45.7091 35.8767C45.7539 35.8767 45.7904 35.9132 45.7904 35.9592V38.9777C45.7904 39.0236 45.7539 39.0602 45.7091 39.0602Z" fill="white"/>
<path d="M46.3819 42.1306C46.1734 42.0481 45.9471 42.0033 45.7091 42.0033H42.6894C41.6691 42.0033 40.8397 42.8327 40.8397 43.853V46.8715C40.8397 47.8918 41.6692 48.7212 42.6894 48.7212H45.7091C46.7283 48.7212 47.5576 47.8917 47.5576 46.8715V43.853C47.5576 43.0708 47.0699 42.4003 46.3819 42.1306ZM45.7904 46.8715C45.7904 46.9174 45.7539 46.954 45.7091 46.954H42.6894C42.6446 46.954 42.6069 46.9174 42.6069 46.8715V43.853C42.6069 43.807 42.6446 43.7705 42.6894 43.7705H45.7091C45.7539 43.7705 45.7904 43.807 45.7904 43.853V46.8715Z" fill="white"/>
<path d="M40.6087 12.0751H38.3891C37.9014 12.0751 37.5055 12.4709 37.5055 12.9587C37.5055 13.4476 37.9014 13.8423 38.3891 13.8423H40.6087C41.0965 13.8423 41.4923 13.4476 41.4923 12.9587C41.4924 12.4709 41.0965 12.0751 40.6087 12.0751Z" fill="white"/>
<path d="M34.8545 12.0751H19.1848C18.697 12.0751 18.3012 12.4709 18.3012 12.9587C18.3012 13.4476 18.697 13.8423 19.1848 13.8423H34.8546C35.3423 13.8423 35.7382 13.4476 35.7382 12.9587C35.7382 12.4709 35.3423 12.0751 34.8545 12.0751Z" fill="white"/>
<path d="M21.9935 16.4615H19.1848C18.697 16.4615 18.3012 16.8574 18.3012 17.3451C18.3012 17.8329 18.697 18.2287 19.1848 18.2287H21.9935C22.4813 18.2287 22.8771 17.8329 22.8771 17.3451C22.8771 16.8574 22.4813 16.4615 21.9935 16.4615Z" fill="white"/>
<path d="M40.6087 16.4615H25.528C25.0403 16.4615 24.6444 16.8574 24.6444 17.3451C24.6444 17.8329 25.0403 18.2287 25.528 18.2287H40.6087C41.0965 18.2287 41.4923 17.8329 41.4923 17.3451C41.4925 16.8574 41.0965 16.4615 40.6087 16.4615Z" fill="white"/>
<path d="M10.8085 49.8233C10.8085 49.6012 10.8903 49.5375 10.9669 49.4951C11.2043 49.3637 11.749 49.325 12.248 49.5817C12.3805 49.6498 12.5307 49.727 12.7262 49.727C13.5977 49.727 14.287 48.1076 12.2052 47.7496V47.6939C12.2052 47.2002 11.8035 46.7985 11.3098 46.7985C10.816 46.7985 10.4143 47.2002 10.4143 47.6939V47.8638C9.54199 48.1802 9.04851 48.8996 9.04851 49.8762C9.04851 51.3832 10.1434 51.7946 10.9431 52.095C11.7056 52.3815 11.9693 52.5069 11.9693 53.0256C11.9693 53.3498 11.882 53.6499 11.2481 53.6499C10.3244 53.6499 10.4351 52.9199 9.74378 52.9199C9.25523 52.9199 8.88995 53.403 8.88995 53.8351C8.88995 54.4473 9.52652 55.0283 10.4143 55.2639V55.3309C10.4143 55.8246 10.816 56.2263 11.3098 56.2263C11.8035 56.2263 12.2052 55.8247 12.2052 55.3309V55.2404C13.1659 54.9316 13.7294 54.1044 13.7294 52.9728C13.7294 50.2877 10.8085 50.691 10.8085 49.8233Z" fill="white"/>
</g>
<defs>
<clipPath id="clip0_174_476">
<rect width="60" height="60" fill="white"/>
</clipPath>
</defs>
</svg>
