<svg width="69" height="71" viewBox="0 0 69 71" fill="none" xmlns="http://www.w3.org/2000/svg">
<g clip-path="url(#clip0_174_656)">
<path d="M61.8125 68.0416H7.1875C3.22575 68.0416 0 64.7224 0 60.6458V10.3541C0 6.27756 3.22575 2.95831 7.1875 2.95831H61.8125C65.7743 2.95831 69 6.27756 69 10.3541V60.6458C69 64.7224 65.7743 68.0416 61.8125 68.0416ZM7.1875 5.91665C4.80988 5.91665 2.875 7.9076 2.875 10.3541V60.6458C2.875 63.0924 4.80988 65.0833 7.1875 65.0833H61.8125C64.1901 65.0833 66.125 63.0924 66.125 60.6458V10.3541C66.125 7.9076 64.1901 5.91665 61.8125 5.91665H7.1875Z" fill="white"/>
<path d="M67.5625 23.6666H1.4375C0.644 23.6666 0 23.004 0 22.1875C0 21.371 0.644 20.7083 1.4375 20.7083H67.5625C68.356 20.7083 69 21.371 69 22.1875C69 23.004 68.356 23.6666 67.5625 23.6666Z" fill="white"/>
<path d="M67.5625 38.4583H1.4375C0.644 38.4583 0 37.7957 0 36.9792C0 36.1627 0.644 35.5 1.4375 35.5H67.5625C68.356 35.5 69 36.1627 69 36.9792C69 37.7957 68.356 38.4583 67.5625 38.4583Z" fill="white"/>
<path d="M67.5625 53.25H1.4375C0.644 53.25 0 52.5873 0 51.7708C0 50.9543 0.644 50.2916 1.4375 50.2916H67.5625C68.356 50.2916 69 50.9543 69 51.7708C69 52.5873 68.356 53.25 67.5625 53.25Z" fill="white"/>
<path d="M18.6875 68.0417C17.894 68.0417 17.25 67.379 17.25 66.5625V22.1875C17.25 21.371 17.894 20.7083 18.6875 20.7083C19.481 20.7083 20.125 21.371 20.125 22.1875V66.5625C20.125 67.379 19.481 68.0417 18.6875 68.0417Z" fill="white"/>
<path d="M34.5 68.0417C33.7065 68.0417 33.0625 67.379 33.0625 66.5625V22.1875C33.0625 21.371 33.7065 20.7083 34.5 20.7083C35.2935 20.7083 35.9375 21.371 35.9375 22.1875V66.5625C35.9375 67.379 35.2935 68.0417 34.5 68.0417Z" fill="white"/>
<path d="M50.3125 68.0417C49.519 68.0417 48.875 67.379 48.875 66.5625V22.1875C48.875 21.371 49.519 20.7083 50.3125 20.7083C51.106 20.7083 51.75 21.371 51.75 22.1875V66.5625C51.75 67.379 51.106 68.0417 50.3125 68.0417Z" fill="white"/>
<path d="M18.5245 12.1308V10.8581H23.5813V12.1308H21.8313V16.6763H20.2745V12.1308H18.5245ZM24.9528 16.6763H23.2482L25.1687 10.8581H27.3278L29.2482 16.6763H27.5437L26.2709 12.4604H26.2255L24.9528 16.6763ZM24.6346 14.3808H27.8391V15.5626H24.6346V14.3808ZM29.8086 16.6763V10.8581H32.3313C32.7745 10.8581 33.1467 10.9177 33.4478 11.0371C33.7508 11.1564 33.979 11.3249 34.1325 11.5427C34.2878 11.7605 34.3654 12.0172 34.3654 12.3126C34.3654 12.5266 34.3181 12.7217 34.2234 12.8979C34.1306 13.074 33.9999 13.2217 33.8313 13.341C33.6628 13.4585 33.4658 13.5399 33.2404 13.5854V13.6422C33.4904 13.6516 33.7177 13.7151 33.9222 13.8325C34.1268 13.948 34.2897 14.1081 34.4109 14.3126C34.5321 14.5153 34.5927 14.7539 34.5927 15.0285C34.5927 15.3467 34.5093 15.6299 34.3427 15.878C34.1779 16.1261 33.9431 16.3212 33.6381 16.4632C33.3332 16.6052 32.9696 16.6763 32.5472 16.6763H29.8086ZM31.3881 15.4149H32.1268C32.3919 15.4149 32.5908 15.3657 32.7234 15.2672C32.8559 15.1668 32.9222 15.0191 32.9222 14.824C32.9222 14.6876 32.891 14.5721 32.8285 14.4774C32.766 14.3827 32.677 14.3107 32.5614 14.2615C32.4478 14.2123 32.3105 14.1876 32.1495 14.1876H31.3881V15.4149ZM31.3881 13.2104H32.0359C32.1741 13.2104 32.2963 13.1886 32.4023 13.145C32.5084 13.1015 32.5908 13.039 32.6495 12.9575C32.7101 12.8742 32.7404 12.7729 32.7404 12.6535C32.7404 12.4736 32.676 12.3363 32.5472 12.2416C32.4184 12.145 32.2556 12.0967 32.0586 12.0967H31.3881V13.2104ZM35.1523 16.6763V10.8581H39.3455V12.1308H36.7319V13.1308H39.1296V14.4035H36.7319V15.4035H39.3342V16.6763H35.1523ZM40.1289 16.6763V10.8581H41.7084V15.4035H44.0607V16.6763H40.1289ZM46.2106 16.6763H44.506L46.4265 10.8581H48.5856L50.506 16.6763H48.8015L47.5288 12.4604H47.4833L46.2106 16.6763ZM45.8924 14.3808H49.0969V15.5626H45.8924V14.3808Z" fill="white"/>
</g>
<defs>
<clipPath id="clip0_174_656">
<rect width="69" height="71" fill="white"/>
</clipPath>
</defs>
</svg>
