<svg width="67" height="61" viewBox="0 0 67 61" fill="none" xmlns="http://www.w3.org/2000/svg">
<path d="M66.664 15.7204C66.5585 15.621 57.7034 7.76908 57.5986 7.70816C57.6019 7.67898 57.6157 7.65348 57.6157 7.62347V2.63331C57.6157 1.4541 56.6562 0.495117 55.4775 0.495117H18.396C17.2173 0.495117 16.2578 1.4541 16.2578 2.63331V7.39098C16.1528 7.48375 6.72811 15.8193 6.83318 15.7203C6.67881 15.8658 6.58541 16.1134 6.58541 16.2864V21.3137C6.58541 23.9556 8.13604 26.2362 10.3714 27.3115V32.4469C4.63509 32.8485 0.0882263 37.6375 0.0882263 43.4809C0.0882263 47.4697 4.52063 54.0717 8.26502 58.9387H4.61443C4.18211 58.9387 3.83135 59.2895 3.83135 59.7218C3.83135 60.1541 4.18211 60.5049 4.61443 60.5049H65.7667C66.199 60.5049 66.5498 60.1541 66.5498 59.7218C66.5498 59.2895 66.199 58.9387 65.7667 58.9387H63.1289V27.3101C65.3627 26.2342 66.9118 23.9544 66.9118 21.3137V16.2864C66.9118 16.0857 66.7964 15.8451 66.664 15.7204ZM43.4079 21.3137V17.0695H53.5931V21.2884C53.5929 21.2956 53.5891 21.3015 53.5891 21.3087C53.5891 24.1188 51.3081 26.4048 48.5041 26.4048C45.7063 26.4048 43.4079 24.0594 43.4079 21.3137ZM31.6595 21.3087C31.6595 21.3015 31.6557 21.2956 31.6554 21.2884V17.0695H41.8417V21.3036C41.8417 21.3054 41.8407 21.3069 41.8407 21.3087C41.8407 24.1188 39.5546 26.4048 36.7445 26.4048C33.9972 26.4048 31.6595 24.1702 31.6595 21.3087ZM24.9972 26.4048C22.2449 26.4048 19.904 24.1166 19.904 21.3137V17.0695H30.0893V21.3137C30.0893 24.1256 27.8022 26.4048 24.9972 26.4048ZM25.4201 8.40656H31.8538C31.8301 8.51113 30.1386 15.9786 30.2463 15.5033H20.5994L25.4201 8.40656ZM33.4601 8.40656H40.0371C40.0608 8.51113 41.7523 15.9786 41.6447 15.5033H31.8525C31.8765 15.3972 33.5674 7.93279 33.4601 8.40656ZM43.2509 15.5033C43.2272 15.3987 41.5357 7.93122 41.6434 8.40655H48.0761L52.8977 15.5033H43.2509ZM54.7912 15.5033L49.9696 8.40655H56.0235L64.0588 15.5033H54.7912ZM18.396 2.0613H55.4774C55.7925 2.0613 56.0495 2.31775 56.0495 2.63332V6.83988C45.3798 6.83988 24.0426 6.83988 17.824 6.83988V2.63332C17.824 2.31774 18.0809 2.0613 18.396 2.0613ZM17.4737 8.40656H23.5266L18.7059 15.5033H9.43838L17.4737 8.40656ZM8.15159 21.3137V17.0695H18.3379V21.2935C18.3377 21.2988 18.3348 21.3033 18.3348 21.3087C18.3348 24.1188 16.0528 26.4048 13.2488 26.4048C10.588 26.4048 8.15159 24.2123 8.15159 21.3137ZM11.1361 33.9743C11.1422 33.9744 11.1473 33.9778 11.1534 33.9778C16.3913 33.9874 20.6524 38.2485 20.6524 43.4758C20.6524 47.3887 15.1095 54.982 12.7339 58.0593C11.9287 59.1021 10.3663 59.1001 9.56278 58.0582C4.53694 51.5376 1.6544 46.2242 1.6544 43.4809C1.6544 38.2421 5.90646 33.9804 11.1361 33.9743ZM44.091 44.1742C44.0784 40.3069 47.1983 37.1671 51.0654 37.1545H51.0889C54.935 37.1545 58.0714 40.2782 58.0847 44.1278L58.1326 58.9142C56.7018 58.9167 63.3159 58.9054 44.139 58.9382L44.091 44.1742ZM61.5627 30.8418H41.13C40.6977 30.8418 40.3469 31.1926 40.3469 31.6249C40.3469 32.0572 40.6977 32.408 41.13 32.408H61.5627V58.9382H59.6993L59.6509 44.1227C59.6356 39.4104 55.7976 35.5883 51.0889 35.5883C51.0787 35.5883 51.0695 35.5883 51.0593 35.5883C46.3342 35.6041 42.5101 39.4379 42.5249 44.1793L42.5732 58.9382H14.037C14.3584 58.5197 14.6855 58.0849 15.0138 57.6437C18.5148 52.9521 22.2207 47.1268 22.2207 43.4809C22.2207 37.6373 17.6213 32.8447 11.9375 32.4401V27.8421C12.3604 27.9267 12.7974 27.9725 13.2447 27.9725C15.6201 27.9725 17.9357 26.6519 19.1171 24.448C20.2265 26.5177 22.4536 27.9725 24.9962 27.9725C27.3681 27.9725 29.6745 26.651 30.8545 24.477C30.8604 24.4659 30.8686 24.4562 30.8744 24.4451C30.8749 24.4462 30.8759 24.4472 30.8764 24.4483C31.9912 26.5291 34.1823 27.9725 36.7486 27.9725C39.1334 27.9725 41.4457 26.6436 42.6223 24.445C43.7938 26.6098 46.0478 27.9725 48.5 27.9725C50.9299 27.9725 53.2143 26.6101 54.3724 24.4477C55.5168 26.572 57.7593 27.9725 60.2524 27.9725C60.7011 27.9725 61.1388 27.9265 61.5627 27.8416V30.8418ZM65.3456 21.3137C65.3456 23.9855 63.257 26.2584 60.4788 26.3835C57.5264 26.4994 55.1593 24.1559 55.1593 21.3137V17.0695H65.3456V21.3137Z" fill="white"/>
<path d="M37.5011 35.5894H26.0107C24.7096 35.5894 23.6512 36.6483 23.6512 37.9498C23.6512 38.1945 23.6512 45.9399 23.6512 45.5049C23.6512 46.8065 24.7096 47.8654 26.0107 47.8654H37.5011C38.8022 47.8654 39.8616 46.8065 39.8616 45.5049V37.9498C39.8616 36.6483 38.8022 35.5894 37.5011 35.5894ZM38.2954 37.9498V41.0302H32.5395V37.1555H37.5011C37.9395 37.1555 38.2954 37.5119 38.2954 37.9498ZM26.0107 37.1555H30.9733V41.0302H25.2174V37.9498C25.2174 37.5119 25.5733 37.1555 26.0107 37.1555ZM25.2174 45.5049V42.5964H30.9733V46.2992H26.0107C25.5733 46.2992 25.2174 45.9428 25.2174 45.5049ZM37.5011 46.2992H32.5395V42.5964H38.2954V45.5049C38.2954 45.9428 37.9395 46.2992 37.5011 46.2992Z" fill="white"/>
<path d="M37.5612 55.4408H27.7339C27.3016 55.4408 26.9508 55.7916 26.9508 56.2239C26.9508 56.6562 27.3016 57.007 27.7339 57.007H37.5612C37.9936 57.007 38.3443 56.6562 38.3443 56.2239C38.3443 55.7916 37.9936 55.4408 37.5612 55.4408Z" fill="white"/>
<path d="M25.6446 55.4408H25.1134C24.6811 55.4408 24.3303 55.7916 24.3303 56.2239C24.3303 56.6562 24.6811 57.007 25.1134 57.007H25.6446C26.077 57.007 26.4277 56.6562 26.4277 56.2239C26.4277 55.7916 26.077 55.4408 25.6446 55.4408Z" fill="white"/>
<path d="M17.2631 42.9613C17.2631 39.7561 14.6559 37.1483 11.4501 37.1483C8.24438 37.1483 5.63715 39.7561 5.63715 42.9613C5.63715 46.1564 8.24438 48.756 11.4501 48.756C14.6559 48.756 17.2631 46.1564 17.2631 42.9613ZM7.20331 42.9613C7.20331 40.6197 9.10801 38.7145 11.4501 38.7145C13.7923 38.7145 15.697 40.6197 15.697 42.9613C15.697 45.2927 13.7923 47.1898 11.4501 47.1898C9.10801 47.1898 7.20331 45.2927 7.20331 42.9613Z" fill="white"/>
<path d="M38.6502 32.408H38.8358C39.2681 32.408 39.6189 32.0572 39.6189 31.6249C39.6189 31.1926 39.2681 30.8418 38.8358 30.8418H38.6502C38.2179 30.8418 37.8671 31.1926 37.8671 31.6249C37.8671 32.0572 38.2179 32.408 38.6502 32.408Z" fill="white"/>
<path d="M54.5312 51.0528C55.8313 51.0528 56.8886 49.9908 56.8886 48.6851C56.8886 47.3856 55.8313 46.3287 54.5312 46.3287C53.2322 46.3287 52.1748 47.3856 52.1748 48.6851C52.1748 49.9908 53.2322 51.0528 54.5312 51.0528ZM54.5312 47.8949C54.9676 47.8949 55.3225 48.2492 55.3225 48.6851C55.3225 49.1272 54.9676 49.4866 54.5312 49.4866C54.0958 49.4866 53.741 49.1272 53.741 48.6851C53.741 48.2492 54.0958 47.8949 54.5312 47.8949Z" fill="white"/>
<path d="M8.94996 8.05634L5.10793 11.3605C4.78062 11.643 4.7429 12.137 5.02534 12.4653C5.31046 12.7964 5.80492 12.8272 6.12962 12.5484L9.97165 9.24424C10.299 8.96179 10.3367 8.46778 10.0542 8.13945C9.77078 7.81162 9.27727 7.77543 8.94996 8.05634Z" fill="white"/>
<path d="M11.0841 6.2204L10.6844 6.56402C10.3571 6.84595 10.3194 7.34047 10.6018 7.6683C10.8846 7.99759 11.379 8.0328 11.7061 7.75191L12.1058 7.40829C12.4331 7.12636 12.4708 6.63183 12.1884 6.30401C11.9049 5.97364 11.4104 5.93897 11.0841 6.2204Z" fill="white"/>
</svg>
