<svg width="36" height="36" viewBox="0 0 36 36" fill="none" xmlns="http://www.w3.org/2000/svg">
<g clip-path="url(#clip0_21_219)">
<path d="M27 3C30.309 3 33 5.691 33 9V27C33 30.309 30.309 33 27 33H9C5.691 33 3 30.309 3 27V9C3 5.691 5.691 3 9 3H27ZM27 0H9C4.029 0 0 4.029 0 9V27C0 31.971 4.029 36 9 36H27C31.971 36 36 31.971 36 27V9C36 4.029 31.971 0 27 0Z" fill="white"/>
<path d="M25.5 19.5H10.5C9.672 19.5 9 18.828 9 18C9 17.172 9.672 16.5 10.5 16.5H25.5C26.3295 16.5 27 17.172 27 18C27 18.828 26.3295 19.5 25.5 19.5Z" fill="white"/>
<path d="M25.5 12H10.5C9.672 12 9 11.328 9 10.5C9 9.672 9.672 9 10.5 9H25.5C26.3295 9 27 9.672 27 10.5C27 11.328 26.3295 12 25.5 12Z" fill="white"/>
<path d="M25.5 27H10.5C9.672 27 9 26.3295 9 25.5C9 24.6705 9.672 24 10.5 24H25.5C26.3295 24 27 24.6705 27 25.5C27 26.3295 26.3295 27 25.5 27Z" fill="white"/>
</g>
<defs>
<clipPath id="clip0_21_219">
<rect width="36" height="36" fill="white"/>
</clipPath>
</defs>
</svg>
