<svg width="56" height="59" viewBox="0 0 56 59" fill="none" xmlns="http://www.w3.org/2000/svg">
<path fill-rule="evenodd" clip-rule="evenodd" d="M54.572 27.4857H0.67969C0.304522 27.4857 0 27.1759 0 26.7943V21.8104C0 21.4288 0.304523 21.1191 0.67969 21.1191L54.5716 21.1193C54.9468 21.1193 55.2513 21.429 55.2513 21.8107V26.7945C55.2519 27.1762 54.9472 27.4857 54.572 27.4857ZM1.35938 26.1029H53.892V22.5018L1.35938 22.5021V26.1029Z" fill="white"/>
<path fill-rule="evenodd" clip-rule="evenodd" d="M45.5817 32.7587H9.66928C9.29412 32.7587 8.98959 32.4486 8.98959 32.0673V26.7943C8.98959 26.4127 9.29412 26.1029 9.66928 26.1029H45.5817C45.9569 26.1029 46.2614 26.4127 46.2614 26.7943V32.0673C46.2614 32.4489 45.9569 32.7587 45.5817 32.7587ZM10.349 31.3753H44.9021V27.4852L10.349 27.4855V31.3753Z" fill="white"/>
<path fill-rule="evenodd" clip-rule="evenodd" d="M31.1288 41.8975H24.1223C23.7472 41.8975 23.4427 41.5873 23.4427 41.2061V32.0665C23.4427 31.6849 23.7472 31.3751 24.1223 31.3751H31.1288C31.5039 31.3751 31.8085 31.6853 31.8085 32.0665V41.2059C31.8085 41.5877 31.5039 41.8975 31.1288 41.8975ZM24.802 40.5141H30.4486V32.758H24.802V40.5141Z" fill="white"/>
<path fill-rule="evenodd" clip-rule="evenodd" d="M33.9961 54.5458H21.255C20.8798 54.5458 20.5753 54.2356 20.5753 53.8543V42.1928C20.5753 41.2676 21.3155 40.5148 22.2249 40.5148H32.9855C33.9178 40.5148 34.6758 41.2858 34.6758 42.2342V53.8543C34.6758 54.236 34.3714 54.5458 33.9961 54.5458ZM21.9345 53.1624H33.3164V42.2336C33.3164 42.0513 33.1653 41.8976 32.986 41.8976H22.225C22.0678 41.8976 21.9348 42.0325 21.9348 42.1925L21.9345 53.1624Z" fill="white"/>
<path fill-rule="evenodd" clip-rule="evenodd" d="M40.7325 58.9991H14.5188C14.1436 58.9991 13.8391 58.6891 13.8391 58.3078V53.8545C13.8391 53.4729 14.1436 53.1631 14.5188 53.1631H40.733C41.1082 53.1631 41.4127 53.4733 41.4127 53.8545V58.3078C41.4127 58.6895 41.1078 58.9991 40.7325 58.9991ZM15.1984 57.6164H40.0528V54.5459H15.1984V57.6164Z" fill="white"/>
<path fill-rule="evenodd" clip-rule="evenodd" d="M5.5293 17.6516C2.32593 17.6516 0.454361 16.4114 0.393631 14.2497C0.11453 11.3569 0.357238 11.0847 0.534653 10.8859C0.6635 10.7415 0.88119 10.641 1.07332 10.641L1.43578 10.6413V6.22106C1.43578 5.83942 1.7403 5.52965 2.11547 5.52965H5.33865C6.50442 4.55011 12.4361 0 21.9714 0C28.0375 0 34.3086 1.86326 40.6126 5.53836C41.9404 5.6109 50.2706 6.18172 55.2015 9.30844C55.4009 9.43461 55.5221 9.65646 55.5221 9.89505V16.9146C55.5221 17.2962 55.2173 17.606 54.8424 17.606H48.0315C47.8492 17.606 47.6746 17.5316 47.5471 17.3996C47.4192 17.2674 47.349 17.0888 47.3522 16.9036L47.3527 16.8297C47.3527 14.465 45.4614 12.5406 43.1364 12.5406C40.8116 12.5406 38.9204 14.4646 38.9204 16.8297L38.921 16.9022C38.9243 17.0876 38.8535 17.2673 38.7259 17.3991C38.598 17.5313 38.4234 17.6066 38.2415 17.6066H17.5498C17.3685 17.6066 17.1948 17.5331 17.0675 17.402C16.9401 17.2713 16.8693 17.0937 16.8706 16.9093L17.5503 16.8297H16.8716C16.8716 14.465 14.9802 12.5406 12.6552 12.5406C10.3306 12.5406 8.43887 14.4646 8.43887 16.8297C8.43887 16.8312 8.4398 16.9075 8.4398 16.909C8.44128 17.0933 8.37036 17.2705 8.24299 17.4017C8.11508 17.5324 7.94141 17.6062 7.76065 17.6062L6.52731 17.606C6.40488 17.6185 6.03117 17.6516 5.5293 17.6516ZM1.62819 12.024C1.62631 12.5445 1.67823 13.4218 1.74901 14.163C1.80239 16.0015 4.14023 16.2689 5.52917 16.2689C6.04964 16.2689 6.41183 16.2291 6.41558 16.2287C6.4406 16.2258 6.46602 16.2243 6.49104 16.2243L7.11092 16.2242C7.40929 13.3807 9.78205 11.1586 12.6551 11.1586C15.5281 11.1586 17.9009 13.3807 18.1991 16.2242H37.5922C37.8906 13.3807 40.2628 11.1586 43.1359 11.1586C46.0089 11.1586 48.3811 13.3807 48.6799 16.2242H54.1618V10.2863C49.1482 7.32295 40.4753 6.91573 40.3861 6.91192C40.2772 6.90716 40.1704 6.87599 40.0755 6.82032C33.9324 3.21207 27.8411 1.3827 21.9709 1.3827C12.0577 1.3827 6.1004 6.68287 6.04154 6.73621C5.91684 6.84918 5.75561 6.91192 5.5885 6.91192H2.79468L2.79548 11.1784C2.79843 11.3202 2.80405 11.5842 2.58649 11.8098C2.48869 11.911 2.31542 12.032 2.04354 12.032C2.01518 12.032 1.98079 12.0305 1.93784 12.0277C1.90426 12.0256 1.86091 12.0229 1.80378 12.0229L1.62819 12.024Z" fill="white"/>
<path fill-rule="evenodd" clip-rule="evenodd" d="M4.09918 11.116H2.11457C1.7394 11.116 1.43488 10.8063 1.43488 10.4246V8.01722C1.43488 7.83334 1.50659 7.65722 1.6345 7.52738C1.76188 7.39821 1.93474 7.32581 2.11457 7.32581L4.74743 7.33111C5.32651 7.33247 7.08768 7.33724 7.14949 8.5683C7.21372 9.83883 4.81687 11.042 4.17023 11.1117C4.14695 11.1151 4.12326 11.116 4.09918 11.116ZM2.79426 9.73376H4.0478C4.37734 9.66543 5.24622 9.16144 5.62915 8.78266C5.45495 8.74796 5.17692 8.71584 4.74408 8.71502L2.79426 8.71121V9.73376Z" fill="white"/>
<path fill-rule="evenodd" clip-rule="evenodd" d="M51.8753 10.8908C47.9406 10.8908 44.9486 9.27958 44.43 6.88019C44.3813 6.65726 44.4446 6.42452 44.5986 6.25793C44.7521 6.09133 44.9748 6.01253 45.1986 6.04805C48.1561 6.51775 52.2913 7.46408 55.1992 9.30734C55.4358 9.45719 55.5583 9.73838 55.5084 10.0174C55.4588 10.2963 55.2465 10.5162 54.9733 10.5713C54.8344 10.6002 54.6934 10.6266 54.5517 10.6516C53.6528 10.8107 52.7522 10.8908 51.8753 10.8908ZM46.3048 7.64375C47.2795 8.77926 49.3614 9.5081 51.8753 9.5081C52.1141 9.5081 52.3544 9.50143 52.5959 9.4885C50.5938 8.60301 48.2924 8.02062 46.3048 7.64375Z" fill="white"/>
<path fill-rule="evenodd" clip-rule="evenodd" d="M40.4154 6.91253L13.8319 6.87892C13.5647 6.87892 13.3221 6.71913 13.2127 6.47088L11.5706 2.74923C11.4938 2.57502 11.4912 2.37617 11.5635 2.19964C11.6357 2.02298 11.7769 1.88565 11.953 1.81828C15.1266 0.612262 18.4977 0.000610352 21.9729 0.000610352C28.0636 0.000610352 34.3613 1.87925 40.6913 5.58509C40.9344 5.6907 41.1043 5.93542 41.1043 6.22124C41.1043 6.60288 40.7906 6.91253 40.4154 6.91253ZM14.2729 5.49664L37.7275 5.52645C32.383 2.77579 27.0939 1.38384 21.973 1.38384C18.9093 1.38384 15.9325 1.88184 13.1123 2.86506L14.2729 5.49664Z" fill="white"/>
<path fill-rule="evenodd" clip-rule="evenodd" d="M24.8695 6.89291C24.5437 6.89291 24.2563 6.65378 24.2002 6.31624L23.2991 0.875194C23.2369 0.498867 23.486 0.141999 23.8566 0.0787112C24.2266 0.0156951 24.5772 0.268849 24.6395 0.645857L25.5406 6.08676C25.6028 6.46323 25.3537 6.81996 24.983 6.88324C24.945 6.88951 24.9068 6.89291 24.8695 6.89291Z" fill="white"/>
<path fill-rule="evenodd" clip-rule="evenodd" d="M43.1352 22.5015C40.0605 22.5015 37.5594 19.9573 37.5594 16.8297C37.5594 13.7021 40.0611 11.1582 43.1352 11.1582C46.2092 11.1582 48.7108 13.7024 48.7108 16.8301C48.7108 19.9576 46.2097 22.5015 43.1352 22.5015ZM43.1352 12.541C40.8105 12.541 38.9192 14.465 38.9192 16.8301C38.9192 19.1947 40.8105 21.1191 43.1352 21.1191C45.4602 21.1191 47.3515 19.1952 47.3515 16.8301C47.3517 14.465 45.4603 12.541 43.1352 12.541Z" fill="white"/>
<path fill-rule="evenodd" clip-rule="evenodd" d="M12.6547 22.5015C9.58017 22.5015 7.0791 19.9573 7.0791 16.8297C7.0791 13.7021 9.58017 11.1582 12.6547 11.1582C15.7294 11.1582 18.2304 13.7024 18.2304 16.8301C18.2304 19.9576 15.7294 22.5015 12.6547 22.5015ZM12.6547 12.541C10.3301 12.541 8.43835 14.465 8.43835 16.8301C8.43835 19.1947 10.3297 21.1191 12.6547 21.1191C14.9797 21.1191 16.8711 19.1952 16.8711 16.8301C16.8711 14.465 14.9797 12.541 12.6547 12.541Z" fill="white"/>
<path fill-rule="evenodd" clip-rule="evenodd" d="M24.921 17.606C24.5458 17.606 24.2414 17.2962 24.2414 16.9146V6.20142C24.2414 5.81978 24.5458 5.51001 24.921 5.51001C25.2962 5.51001 25.6007 5.81978 25.6007 6.20142V16.9151C25.6007 17.2967 25.2967 17.606 24.921 17.606Z" fill="white"/>
<path fill-rule="evenodd" clip-rule="evenodd" d="M11.5842 10.2096H9.26575C8.65322 10.2096 8.15469 9.70246 8.15469 9.07938V7.3205C8.15469 6.69742 8.65322 6.19043 9.26575 6.19043H11.5842C12.1968 6.19043 12.6952 6.69742 12.6952 7.3205V9.07938C12.6958 9.70246 12.1968 10.2096 11.5842 10.2096ZM9.51354 8.82677H11.3359V7.57257H9.51354V8.82677Z" fill="white"/>
<path fill-rule="evenodd" clip-rule="evenodd" d="M54.8415 14.8842H51.8943C51.5192 14.8842 51.2146 14.5744 51.2146 14.1928C51.2146 13.8111 51.5196 13.5013 51.8943 13.5013H54.8415C55.2166 13.5013 55.5212 13.8111 55.5212 14.1928C55.5212 14.5744 55.2166 14.8842 54.8415 14.8842Z" fill="white"/>
<path fill-rule="evenodd" clip-rule="evenodd" d="M29.8604 9.51722H28.19C27.8149 9.51722 27.5103 9.20744 27.5103 8.82581C27.5103 8.44417 27.8149 8.1344 28.19 8.1344H29.8604C30.2355 8.1344 30.5401 8.44417 30.5401 8.82581C30.5401 9.20745 30.2357 9.51722 29.8604 9.51722Z" fill="white"/>
<path fill-rule="evenodd" clip-rule="evenodd" d="M21.3626 9.51722H19.6916C19.3165 9.51722 19.0119 9.20744 19.0119 8.82581C19.0119 8.44417 19.3165 8.1344 19.6916 8.1344H21.3626C21.7378 8.1344 22.0423 8.44417 22.0423 8.82581C22.0423 9.20745 21.7378 9.51722 21.3626 9.51722Z" fill="white"/>
<path fill-rule="evenodd" clip-rule="evenodd" d="M43.1359 19.4938C41.6915 19.4938 40.5162 18.299 40.5162 16.8301C40.5162 15.3613 41.6915 14.1658 43.1359 14.1658C44.5801 14.1658 45.7549 15.3608 45.7549 16.8301C45.7549 18.2995 44.5801 19.4938 43.1359 19.4938ZM43.1359 15.5487C42.441 15.5487 41.876 16.1235 41.876 16.8303C41.876 17.5365 42.441 18.1113 43.1359 18.1113C43.8307 18.1113 44.3952 17.5365 44.3952 16.8303C44.3952 16.1235 43.8307 15.5487 43.1359 15.5487Z" fill="white"/>
<path fill-rule="evenodd" clip-rule="evenodd" d="M12.6547 19.4938C11.2105 19.4938 10.0362 18.299 10.0362 16.8301C10.0362 15.3613 11.2108 14.1658 12.6547 14.1658C14.0987 14.1658 15.2734 15.3608 15.2734 16.8301C15.2734 18.2995 14.0991 19.4938 12.6547 19.4938ZM12.6547 15.5487C11.9604 15.5487 11.3954 16.1235 11.3954 16.8303C11.3954 17.5365 11.9604 18.1113 12.6547 18.1113C13.349 18.1113 13.914 17.5365 13.914 16.8303C13.9144 16.1235 13.349 15.5487 12.6547 15.5487Z" fill="white"/>
</svg>
