<svg width="31" height="31" viewBox="0 0 31 31" fill="none" xmlns="http://www.w3.org/2000/svg">
<g clip-path="url(#clip0_218_20)">
<path d="M17.2179 23.3482C22.4492 24.5933 24.2898 20.119 23.3675 18.4489C22.9981 17.7824 19.6785 16.5023 19.5171 16.4403C18.0911 15.9211 17.5641 16.8898 16.5759 18.1647C14.6785 17.2153 13.4062 16.4675 12.099 14.3414C12.1727 14.2497 12.2708 14.1412 12.3444 14.0585C12.8017 13.547 13.6581 12.5938 13.0742 11.4274C12.5834 10.4496 12.3393 9.76759 12.1597 9.26772C11.6392 7.81976 11.2427 7.42709 9.44982 7.42709C7.58336 7.42709 6.13541 9.87997 6.13541 11.9918C6.13541 16.6018 12.3328 22.1818 17.2179 23.3482ZM9.44982 9.36459C9.83732 9.36459 10.0337 9.37751 10.1318 9.39301C10.3411 9.83605 10.5529 10.7609 11.3331 12.1998C11.2117 12.6532 9.48728 13.7162 10.2868 15.0906C11.9208 17.8651 13.556 18.8273 15.8991 19.9924C17.4594 20.6977 17.958 19.4202 18.9474 18.2978C19.406 18.4838 20.9534 19.1683 21.6328 19.5119C21.5721 20.8501 20.2804 22.0849 17.6674 21.4623C13.1827 20.3916 8.07161 15.3463 8.07161 11.9906C8.07291 10.7144 8.96803 9.36459 9.44982 9.36459Z" fill="white"/>
<path d="M0.107197 29.8181C-0.0620118 30.4304 0.39653 31.0439 1.04107 31.0439C1.27357 31.0439 0.893821 31.1033 8.59474 29.1064C11.7296 30.7029 14.1127 30.6525 15.6343 30.7959C29.2679 30.7959 35.9458 14.1683 26.5631 4.49371C13.702 -7.93729 -6.32789 7.51105 2.05374 22.7411L0.107197 29.8181ZM25.0209 5.70013C25.2443 6.1083 31.6536 11.8885 28.0847 20.5259C25.8876 25.8475 20.8178 29.1271 15.137 28.8197C10.5154 28.5626 9.31936 26.9119 8.46815 27.1379L2.41928 28.7138L4.0274 22.8703C4.09715 22.6197 4.06228 22.3523 3.93311 22.1275C-3.79493 8.79238 13.68 -4.91866 25.0209 5.70013Z" fill="white"/>
</g>
<defs>
<clipPath id="clip0_218_20">
<rect width="31" height="31" fill="white"/>
</clipPath>
</defs>
</svg>
