<svg width="51" height="64" viewBox="0 0 51 64" fill="none" xmlns="http://www.w3.org/2000/svg">
<path d="M43.5625 63.75H7.4375C5.46564 63.7477 3.57519 62.9634 2.18088 61.5691C0.786564 60.1748 0.0022497 58.2844 0 56.3125V7.4375C0.0022497 5.46564 0.786564 3.57519 2.18088 2.18088C3.57519 0.786564 5.46564 0.0022497 7.4375 0H43.5625C45.5344 0.0022497 47.4248 0.786564 48.8191 2.18088C50.2134 3.57519 50.9977 5.46564 51 7.4375V56.3125C50.9977 58.2844 50.2134 60.1748 48.8191 61.5691C47.4248 62.9634 45.5344 63.7477 43.5625 63.75ZM7.4375 2.125C6.02906 2.12669 4.67878 2.68694 3.68286 3.68286C2.68694 4.67878 2.12669 6.02906 2.125 7.4375V56.3125C2.12669 57.7209 2.68694 59.0712 3.68286 60.0671C4.67878 61.0631 6.02906 61.6233 7.4375 61.625H43.5625C44.9709 61.6233 46.3212 61.0631 47.3171 60.0671C48.3131 59.0712 48.8733 57.7209 48.875 56.3125V7.4375C48.8733 6.02906 48.3131 4.67878 47.3171 3.68286C46.3212 2.68694 44.9709 2.12669 43.5625 2.125H7.4375Z" fill="white"/>
<path d="M28.6855 59.4999H22.3105C21.4652 59.4999 20.6544 59.1641 20.0566 58.5663C19.4589 57.9685 19.123 57.1578 19.123 56.3124V52.0624C19.123 51.217 19.4589 50.4062 20.0566 49.8085C20.6544 49.2107 21.4652 48.8749 22.3105 48.8749H28.6855C29.5309 48.8749 30.3417 49.2107 30.9394 49.8085C31.5372 50.4062 31.873 51.217 31.873 52.0624V56.3124C31.873 57.1578 31.5372 57.9685 30.9394 58.5663C30.3417 59.1641 29.5309 59.4999 28.6855 59.4999ZM22.3105 50.9999C22.0288 50.9999 21.7585 51.1118 21.5592 51.3111C21.36 51.5103 21.248 51.7806 21.248 52.0624V56.3124C21.248 56.5942 21.36 56.8644 21.5592 57.0637C21.7585 57.2629 22.0288 57.3749 22.3105 57.3749H28.6855C28.9673 57.3749 29.2376 57.2629 29.4368 57.0637C29.6361 56.8644 29.748 56.5942 29.748 56.3124V52.0624C29.748 51.7806 29.6361 51.5103 29.4368 51.3111C29.2376 51.1118 28.9673 50.9999 28.6855 50.9999H22.3105Z" fill="white"/>
<path d="M13.8125 59.4999H7.4375C6.59212 59.4999 5.78137 59.1641 5.1836 58.5663C4.58582 57.9685 4.25 57.1578 4.25 56.3124V52.0624C4.25 51.217 4.58582 50.4062 5.1836 49.8085C5.78137 49.2107 6.59212 48.8749 7.4375 48.8749H13.8125C14.6579 48.8749 15.4686 49.2107 16.0664 49.8085C16.6642 50.4062 17 51.217 17 52.0624V56.3124C17 57.1578 16.6642 57.9685 16.0664 58.5663C15.4686 59.1641 14.6579 59.4999 13.8125 59.4999ZM7.4375 50.9999C7.15571 50.9999 6.88546 51.1118 6.6862 51.3111C6.48694 51.5103 6.375 51.7806 6.375 52.0624V56.3124C6.375 56.5942 6.48694 56.8644 6.6862 57.0637C6.88546 57.2629 7.15571 57.3749 7.4375 57.3749H13.8125C14.0943 57.3749 14.3645 57.2629 14.5638 57.0637C14.7631 56.8644 14.875 56.5942 14.875 56.3124V52.0624C14.875 51.7806 14.7631 51.5103 14.5638 51.3111C14.3645 51.1118 14.0943 50.9999 13.8125 50.9999H7.4375Z" fill="white"/>
<path d="M43.5625 59.5H37.1875C36.3421 59.5 35.5314 59.1642 34.9336 58.5664C34.3358 57.9686 34 57.1579 34 56.3125V39.3125C34 38.4671 34.3358 37.6564 34.9336 37.0586C35.5314 36.4608 36.3421 36.125 37.1875 36.125H43.5625C44.4079 36.125 45.2186 36.4608 45.8164 37.0586C46.4142 37.6564 46.75 38.4671 46.75 39.3125V56.3125C46.75 57.1579 46.4142 57.9686 45.8164 58.5664C45.2186 59.1642 44.4079 59.5 43.5625 59.5ZM37.1875 38.25C36.9057 38.25 36.6355 38.3619 36.4362 38.5612C36.2369 38.7605 36.125 39.0307 36.125 39.3125V56.3125C36.125 56.5943 36.2369 56.8645 36.4362 57.0638C36.6355 57.2631 36.9057 57.375 37.1875 57.375H43.5625C43.8443 57.375 44.1145 57.2631 44.3138 57.0638C44.5131 56.8645 44.625 56.5943 44.625 56.3125V39.3125C44.625 39.0307 44.5131 38.7605 44.3138 38.5612C44.1145 38.3619 43.8443 38.25 43.5625 38.25H37.1875Z" fill="white"/>
<path d="M28.6855 46.75H22.3105C21.4652 46.75 20.6544 46.4142 20.0566 45.8164C19.4589 45.2186 19.123 44.4079 19.123 43.5625V39.3125C19.123 38.4671 19.4589 37.6564 20.0566 37.0586C20.6544 36.4608 21.4652 36.125 22.3105 36.125H28.6855C29.5309 36.125 30.3417 36.4608 30.9394 37.0586C31.5372 37.6564 31.873 38.4671 31.873 39.3125V43.5625C31.873 44.4079 31.5372 45.2186 30.9394 45.8164C30.3417 46.4142 29.5309 46.75 28.6855 46.75ZM22.3105 38.25C22.0288 38.25 21.7585 38.3619 21.5592 38.5612C21.36 38.7605 21.248 39.0307 21.248 39.3125V43.5625C21.248 43.8443 21.36 44.1145 21.5592 44.3138C21.7585 44.5131 22.0288 44.625 22.3105 44.625H28.6855C28.9673 44.625 29.2376 44.5131 29.4368 44.3138C29.6361 44.1145 29.748 43.8443 29.748 43.5625V39.3125C29.748 39.0307 29.6361 38.7605 29.4368 38.5612C29.2376 38.3619 28.9673 38.25 28.6855 38.25H22.3105Z" fill="white"/>
<path d="M13.8125 46.75H7.4375C6.59212 46.75 5.78137 46.4142 5.1836 45.8164C4.58582 45.2186 4.25 44.4079 4.25 43.5625V39.3125C4.25 38.4671 4.58582 37.6564 5.1836 37.0586C5.78137 36.4608 6.59212 36.125 7.4375 36.125H13.8125C14.6579 36.125 15.4686 36.4608 16.0664 37.0586C16.6642 37.6564 17 38.4671 17 39.3125V43.5625C17 44.4079 16.6642 45.2186 16.0664 45.8164C15.4686 46.4142 14.6579 46.75 13.8125 46.75ZM7.4375 38.25C7.15571 38.25 6.88546 38.3619 6.6862 38.5612C6.48694 38.7605 6.375 39.0307 6.375 39.3125V43.5625C6.375 43.8443 6.48694 44.1145 6.6862 44.3138C6.88546 44.5131 7.15571 44.625 7.4375 44.625H13.8125C14.0943 44.625 14.3645 44.5131 14.5638 44.3138C14.7631 44.1145 14.875 43.8443 14.875 43.5625V39.3125C14.875 39.0307 14.7631 38.7605 14.5638 38.5612C14.3645 38.3619 14.0943 38.25 13.8125 38.25H7.4375Z" fill="white"/>
<path d="M28.6855 33.9999H22.3105C21.4652 33.9999 20.6544 33.6641 20.0566 33.0663C19.4589 32.4685 19.123 31.6578 19.123 30.8124V26.5624C19.123 25.717 19.4589 24.9062 20.0566 24.3085C20.6544 23.7107 21.4652 23.3749 22.3105 23.3749H28.6855C29.5309 23.3749 30.3417 23.7107 30.9394 24.3085C31.5372 24.9062 31.873 25.717 31.873 26.5624V30.8124C31.873 31.6578 31.5372 32.4685 30.9394 33.0663C30.3417 33.6641 29.5309 33.9999 28.6855 33.9999ZM22.3105 25.4999C22.0288 25.4999 21.7585 25.6118 21.5592 25.8111C21.36 26.0103 21.248 26.2806 21.248 26.5624V30.8124C21.248 31.0942 21.36 31.3644 21.5592 31.5637C21.7585 31.7629 22.0288 31.8749 22.3105 31.8749H28.6855C28.9673 31.8749 29.2376 31.7629 29.4368 31.5637C29.6361 31.3644 29.748 31.0942 29.748 30.8124V26.5624C29.748 26.2806 29.6361 26.0103 29.4368 25.8111C29.2376 25.6118 28.9673 25.4999 28.6855 25.4999H22.3105Z" fill="white"/>
<path d="M13.8125 33.9999H7.4375C6.59212 33.9999 5.78137 33.6641 5.1836 33.0663C4.58582 32.4685 4.25 31.6578 4.25 30.8124V26.5624C4.25 25.717 4.58582 24.9062 5.1836 24.3085C5.78137 23.7107 6.59212 23.3749 7.4375 23.3749H13.8125C14.6579 23.3749 15.4686 23.7107 16.0664 24.3085C16.6642 24.9062 17 25.717 17 26.5624V30.8124C17 31.6578 16.6642 32.4685 16.0664 33.0663C15.4686 33.6641 14.6579 33.9999 13.8125 33.9999ZM7.4375 25.4999C7.15571 25.4999 6.88546 25.6118 6.6862 25.8111C6.48694 26.0103 6.375 26.2806 6.375 26.5624V30.8124C6.375 31.0942 6.48694 31.3644 6.6862 31.5637C6.88546 31.7629 7.15571 31.8749 7.4375 31.8749H13.8125C14.0943 31.8749 14.3645 31.7629 14.5638 31.5637C14.7631 31.3644 14.875 31.0942 14.875 30.8124V26.5624C14.875 26.2806 14.7631 26.0103 14.5638 25.8111C14.3645 25.6118 14.0943 25.4999 13.8125 25.4999H7.4375Z" fill="white"/>
<path d="M43.5625 33.9999H37.1875C36.3421 33.9999 35.5314 33.6641 34.9336 33.0663C34.3358 32.4685 34 31.6578 34 30.8124V26.5624C34 25.717 34.3358 24.9062 34.9336 24.3085C35.5314 23.7107 36.3421 23.3749 37.1875 23.3749H43.5625C44.4079 23.3749 45.2186 23.7107 45.8164 24.3085C46.4142 24.9062 46.75 25.717 46.75 26.5624V30.8124C46.75 31.6578 46.4142 32.4685 45.8164 33.0663C45.2186 33.6641 44.4079 33.9999 43.5625 33.9999ZM37.1875 25.4999C36.9057 25.4999 36.6355 25.6118 36.4362 25.8111C36.2369 26.0103 36.125 26.2806 36.125 26.5624V30.8124C36.125 31.0942 36.2369 31.3644 36.4362 31.5637C36.6355 31.7629 36.9057 31.8749 37.1875 31.8749H43.5625C43.8443 31.8749 44.1145 31.7629 44.3138 31.5637C44.5131 31.3644 44.625 31.0942 44.625 30.8124V26.5624C44.625 26.2806 44.5131 26.0103 44.3138 25.8111C44.1145 25.6118 43.8443 25.4999 43.5625 25.4999H37.1875Z" fill="white"/>
<path d="M43.5625 19.125H7.4375C6.59212 19.125 5.78137 18.7892 5.1836 18.1914C4.58582 17.5936 4.25 16.7829 4.25 15.9375V7.4375C4.25 6.59212 4.58582 5.78137 5.1836 5.1836C5.78137 4.58583 6.59212 4.25 7.4375 4.25H43.5625C44.4079 4.25 45.2186 4.58583 45.8164 5.1836C46.4142 5.78137 46.75 6.59212 46.75 7.4375V15.9375C46.75 16.7829 46.4142 17.5936 45.8164 18.1914C45.2186 18.7892 44.4079 19.125 43.5625 19.125ZM7.4375 6.375C7.15571 6.375 6.88546 6.48694 6.6862 6.6862C6.48694 6.88546 6.375 7.15571 6.375 7.4375V15.9375C6.375 16.2193 6.48694 16.4895 6.6862 16.6888C6.88546 16.8881 7.15571 17 7.4375 17H43.5625C43.8443 17 44.1145 16.8881 44.3138 16.6888C44.5131 16.4895 44.625 16.2193 44.625 15.9375V7.4375C44.625 7.15571 44.5131 6.88546 44.3138 6.6862C44.1145 6.48694 43.8443 6.375 43.5625 6.375H7.4375Z" fill="white"/>
<path d="M40.373 15.9374C39.5277 15.9374 38.7169 15.6016 38.1191 15.0038C37.5214 14.406 37.1855 13.5953 37.1855 12.7499V10.6249C37.1855 9.7795 37.5214 8.96875 38.1191 8.37097C38.7169 7.7732 39.5277 7.43738 40.373 7.43738C41.2184 7.43738 42.0292 7.7732 42.6269 8.37097C43.2247 8.96875 43.5605 9.7795 43.5605 10.6249V12.7499C43.5605 13.5953 43.2247 14.406 42.6269 15.0038C42.0292 15.6016 41.2184 15.9374 40.373 15.9374ZM40.373 9.56238C40.0913 9.56238 39.821 9.67432 39.6217 9.87358C39.4225 10.0728 39.3105 10.3431 39.3105 10.6249V12.7499C39.3105 13.0317 39.4225 13.3019 39.6217 13.5012C39.821 13.7004 40.0913 13.8124 40.373 13.8124C40.6548 13.8124 40.9251 13.7004 41.1243 13.5012C41.3236 13.3019 41.4355 13.0317 41.4355 12.7499V10.6249C41.4355 10.3431 41.3236 10.0728 41.1243 9.87358C40.9251 9.67432 40.6548 9.56238 40.373 9.56238Z" fill="white"/>
</svg>
