<svg width="65" height="65" viewBox="0 0 65 65" fill="none" xmlns="http://www.w3.org/2000/svg">
<g clip-path="url(#clip0_1161_192)">
<path d="M6.09375 50.7812C5.82444 50.7811 5.56621 50.674 5.37578 50.4836C5.18534 50.2932 5.07829 50.0349 5.07812 49.7656V46.7188H1.01563C0.88223 46.7188 0.750128 46.6926 0.626872 46.6416C0.503617 46.5906 0.391625 46.5158 0.2973 46.4215C0.202975 46.3271 0.128168 46.2151 0.077155 46.0919C0.026142 45.9686 -7.59351e-05 45.8365 1.65192e-07 45.7031V13.2031C-7.59351e-05 13.0697 0.026142 12.9376 0.077155 12.8144C0.128168 12.6911 0.202975 12.5791 0.2973 12.4848C0.391625 12.3905 0.503617 12.3157 0.626872 12.2647C0.750128 12.2136 0.88223 12.1874 1.01563 12.1875H47.7344C47.8678 12.1874 47.9999 12.2136 48.1231 12.2647C48.2464 12.3157 48.3584 12.3905 48.4527 12.4848C48.547 12.5791 48.6218 12.6911 48.6728 12.8144C48.7239 12.9376 48.7501 13.0697 48.75 13.2031V29.468C48.75 29.7374 48.643 29.9957 48.4525 30.1862C48.2621 30.3766 48.0037 30.4836 47.7344 30.4836C47.465 30.4836 47.2067 30.3766 47.0162 30.1862C46.8258 29.9957 46.7188 29.7374 46.7188 29.468V14.2188H2.03125V44.6875H6.09375C6.22715 44.6874 6.35925 44.7136 6.4825 44.7647C6.60576 44.8157 6.71775 44.8905 6.81208 44.9848C6.9064 45.0791 6.98121 45.1911 7.03222 45.3144C7.08323 45.4376 7.10945 45.5697 7.10938 45.7031V48.1222L13.7635 44.7946C13.9046 44.7242 14.0601 44.6875 14.2177 44.6875H31.5002C31.7696 44.6875 32.0279 44.7945 32.2184 44.985C32.4089 45.1754 32.5159 45.4338 32.5159 45.7031C32.5159 45.9725 32.4089 46.2308 32.2184 46.4213C32.0279 46.6117 31.7696 46.7188 31.5002 46.7188H14.4578L6.54801 50.6741C6.40692 50.7445 6.25142 50.7812 6.09375 50.7812Z" fill="white"/>
<path d="M59.9219 25.3906C59.7642 25.3906 59.6087 25.3539 59.4676 25.2835L53.5891 22.3438H47.7344C47.465 22.3438 47.2067 22.2367 47.0162 22.0463C46.8258 21.8558 46.7188 21.5975 46.7188 21.3281C46.7188 21.0588 46.8258 20.8004 47.0162 20.61C47.2067 20.4195 47.465 20.3125 47.7344 20.3125H53.8291C53.9868 20.3125 54.1423 20.3492 54.2834 20.4196L58.9062 22.7316V21.3281C58.9062 21.1947 58.9324 21.0626 58.9834 20.9394C59.0344 20.8161 59.1092 20.7041 59.2035 20.6098C59.2979 20.5155 59.4099 20.4407 59.5331 20.3897C59.6564 20.3386 59.7885 20.3124 59.9219 20.3125H62.9688V4.0625H18.2813V13.2021C18.2813 13.4715 18.1742 13.7298 17.9838 13.9203C17.7933 14.1107 17.535 14.2177 17.2656 14.2177C16.9963 14.2177 16.7379 14.1107 16.5475 13.9203C16.357 13.7298 16.25 13.4715 16.25 13.2021V3.04688C16.2499 2.91348 16.2761 2.78138 16.3272 2.65812C16.3782 2.53487 16.453 2.42287 16.5473 2.32855C16.6416 2.23423 16.7536 2.15942 16.8769 2.1084C17.0001 2.05739 17.1322 2.03117 17.2656 2.03125H63.9844C64.1178 2.03117 64.2499 2.05739 64.3731 2.1084C64.4964 2.15942 64.6084 2.23423 64.7027 2.32855C64.797 2.42287 64.8718 2.53487 64.9228 2.65812C64.9739 2.78138 65.0001 2.91348 65 3.04688V21.3281C65.0001 21.4615 64.9739 21.5936 64.9228 21.7169C64.8718 21.8401 64.797 21.9521 64.7027 22.0464C64.6084 22.1408 64.4964 22.2156 64.3731 22.2666C64.2499 22.3176 64.1178 22.3438 63.9844 22.3438H60.9375V24.375C60.9373 24.6443 60.8303 24.9025 60.6399 25.093C60.4494 25.2834 60.1912 25.3905 59.9219 25.3906Z" fill="white"/>
<path d="M27.4375 20.3125H7.125C6.85564 20.3125 6.59731 20.2055 6.40684 20.015C6.21638 19.8246 6.10938 19.5662 6.10938 19.2969C6.10938 19.0275 6.21638 18.7692 6.40684 18.5787C6.59731 18.3883 6.85564 18.2812 7.125 18.2812H27.4375C27.7069 18.2812 27.9652 18.3883 28.1557 18.5787C28.3461 18.7692 28.4531 19.0275 28.4531 19.2969C28.4531 19.5662 28.3461 19.8246 28.1557 20.015C27.9652 20.2055 27.7069 20.3125 27.4375 20.3125Z" fill="white"/>
<path d="M15.25 24.375H7.125C6.85564 24.375 6.59731 24.268 6.40684 24.0775C6.21638 23.8871 6.10938 23.6287 6.10938 23.3594C6.10938 23.09 6.21638 22.8317 6.40684 22.6412C6.59731 22.4508 6.85564 22.3438 7.125 22.3438H15.25C15.5194 22.3438 15.7777 22.4508 15.9682 22.6412C16.1586 22.8317 16.2656 23.09 16.2656 23.3594C16.2656 23.6287 16.1586 23.8871 15.9682 24.0775C15.7777 24.268 15.5194 24.375 15.25 24.375Z" fill="white"/>
<path d="M41.6404 24.375H19.3125C19.0431 24.375 18.7848 24.268 18.5943 24.0775C18.4039 23.8871 18.2969 23.6287 18.2969 23.3594C18.2969 23.09 18.4039 22.8317 18.5943 22.6412C18.7848 22.4508 19.0431 22.3438 19.3125 22.3438H41.6404C41.9097 22.3438 42.1681 22.4508 42.3585 22.6412C42.549 22.8317 42.656 23.09 42.656 23.3594C42.656 23.6287 42.549 23.8871 42.3585 24.0775C42.1681 24.268 41.9097 24.375 41.6404 24.375Z" fill="white"/>
<path d="M18.2969 32.5H7.125C6.85564 32.5 6.59731 32.393 6.40684 32.2025C6.21638 32.0121 6.10938 31.7537 6.10938 31.4844C6.10938 31.215 6.21638 30.9567 6.40684 30.7662C6.59731 30.5758 6.85564 30.4688 7.125 30.4688H18.2969C18.5662 30.4688 18.8246 30.5758 19.015 30.7662C19.2055 30.9567 19.3125 31.215 19.3125 31.4844C19.3125 31.7537 19.2055 32.0121 19.015 32.2025C18.8246 32.393 18.5662 32.5 18.2969 32.5Z" fill="white"/>
<path d="M39.9007 32.5H22.3594C22.09 32.5 21.8317 32.393 21.6412 32.2025C21.4508 32.0121 21.3438 31.7537 21.3438 31.4844C21.3438 31.215 21.4508 30.9567 21.6412 30.7662C21.8317 30.5758 22.09 30.4688 22.3594 30.4688H39.9007C40.1701 30.4688 40.4284 30.5758 40.6189 30.7662C40.8093 30.9567 40.9163 31.215 40.9163 31.4844C40.9163 31.7537 40.8093 32.0121 40.6189 32.2025C40.4284 32.393 40.1701 32.5 39.9007 32.5Z" fill="white"/>
<path d="M30.4804 28.4375H7.125C6.85564 28.4375 6.59731 28.3305 6.40684 28.14C6.21638 27.9496 6.10938 27.6912 6.10938 27.4219C6.10938 27.1525 6.21638 26.8942 6.40684 26.7037C6.59731 26.5133 6.85564 26.4062 7.125 26.4062H30.4804C30.7498 26.4062 31.0081 26.5133 31.1986 26.7037C31.389 26.8942 31.496 27.1525 31.496 27.4219C31.496 27.6912 31.389 27.9496 31.1986 28.14C31.0081 28.3305 30.7498 28.4375 30.4804 28.4375Z" fill="white"/>
<path d="M41.6404 28.4375H34.543C34.2736 28.4375 34.0153 28.3305 33.8248 28.14C33.6343 27.9496 33.5273 27.6912 33.5273 27.4219C33.5273 27.1525 33.6343 26.8942 33.8248 26.7037C34.0153 26.5133 34.2736 26.4062 34.543 26.4062H41.6404C41.9098 26.4062 42.1681 26.5133 42.3586 26.7037C42.5491 26.8942 42.6561 27.1525 42.6561 27.4219C42.6561 27.6912 42.5491 27.9496 42.3586 28.14C42.1681 28.3305 41.9098 28.4375 41.6404 28.4375Z" fill="white"/>
<path d="M41.6404 20.3125H31.5C31.2306 20.3125 30.9723 20.2055 30.7818 20.015C30.5914 19.8246 30.4844 19.5662 30.4844 19.2969C30.4844 19.0275 30.5914 18.7692 30.7818 18.5787C30.9723 18.3883 31.2306 18.2812 31.5 18.2812H41.6404C41.9097 18.2812 42.1681 18.3883 42.3585 18.5787C42.549 18.7692 42.656 19.0275 42.656 19.2969C42.656 19.5662 42.549 19.8246 42.3585 20.015C42.1681 20.2055 41.9097 20.3125 41.6404 20.3125Z" fill="white"/>
<path d="M27.4375 36.5625H7.125C6.85564 36.5625 6.59731 36.4555 6.40684 36.265C6.21638 36.0746 6.10938 35.8162 6.10938 35.5469C6.10938 35.2775 6.21638 35.0192 6.40684 34.8287C6.59731 34.6383 6.85564 34.5312 7.125 34.5312H27.4375C27.7069 34.5312 27.9652 34.6383 28.1557 34.8287C28.3461 35.0192 28.4531 35.2775 28.4531 35.5469C28.4531 35.8162 28.3461 36.0746 28.1557 36.265C27.9652 36.4555 27.7069 36.5625 27.4375 36.5625Z" fill="white"/>
<path d="M15.25 40.625H7.125C6.85564 40.625 6.59731 40.518 6.40684 40.3275C6.21638 40.1371 6.10938 39.8787 6.10938 39.6094C6.10938 39.34 6.21638 39.0817 6.40684 38.8912C6.59731 38.7008 6.85564 38.5938 7.125 38.5938H15.25C15.5194 38.5938 15.7777 38.7008 15.9682 38.8912C16.1586 39.0817 16.2656 39.34 16.2656 39.6094C16.2656 39.8787 16.1586 40.1371 15.9682 40.3275C15.7777 40.518 15.5194 40.625 15.25 40.625Z" fill="white"/>
<path d="M32.6863 40.625H19.3125C19.0431 40.625 18.7848 40.518 18.5943 40.3275C18.4039 40.1371 18.2969 39.8787 18.2969 39.6094C18.2969 39.34 18.4039 39.0817 18.5943 38.8912C18.7848 38.7008 19.0431 38.5938 19.3125 38.5938H32.6863C32.9556 38.5938 33.2139 38.7008 33.4044 38.8912C33.5949 39.0817 33.7019 39.34 33.7019 39.6094C33.7019 39.8787 33.5949 40.1371 33.4044 40.3275C33.2139 40.518 32.9556 40.625 32.6863 40.625Z" fill="white"/>
<path d="M35.0735 36.5625H31.5C31.2306 36.5625 30.9723 36.4555 30.7818 36.265C30.5914 36.0746 30.4844 35.8162 30.4844 35.5469C30.4844 35.2775 30.5914 35.0192 30.7818 34.8287C30.9723 34.6383 31.2306 34.5312 31.5 34.5312H35.0735C35.3429 34.5312 35.6012 34.6383 35.7917 34.8287C35.9821 35.0192 36.0892 35.2775 36.0892 35.5469C36.0892 35.8162 35.9821 36.0746 35.7917 36.265C35.6012 36.4555 35.3429 36.5625 35.0735 36.5625Z" fill="white"/>
<path d="M47.7421 62.9688C44.3288 62.9688 40.9922 61.9566 38.1542 60.0603C35.3162 58.164 33.1042 55.4687 31.798 52.3153C30.4919 49.1619 30.1501 45.6919 30.816 42.3443C31.4819 38.9966 33.1255 35.9216 35.539 33.508C37.9526 31.0945 41.0276 29.4509 44.3753 28.785C47.7229 28.1191 51.1929 28.4608 54.3463 29.767C57.4997 31.0732 60.195 33.2852 62.0913 36.1232C63.9876 38.9612 64.9998 42.2978 64.9998 45.7111C64.9945 50.2865 63.1745 54.6729 59.9392 57.9082C56.704 61.1435 52.3175 62.9635 47.7421 62.9688ZM47.7421 30.4846C44.7306 30.4846 41.7867 31.3777 39.2827 33.0508C36.7787 34.7239 34.8271 37.1019 33.6747 39.8842C32.5222 42.6664 32.2207 45.728 32.8082 48.6816C33.3957 51.6353 34.8459 54.3483 36.9754 56.4778C39.1048 58.6073 41.8179 60.0574 44.7716 60.645C47.7252 61.2325 50.7867 60.9309 53.569 59.7785C56.3513 58.626 58.7293 56.6744 60.4024 54.1704C62.0755 51.6665 62.9685 48.7226 62.9685 45.7111C62.9639 41.6742 61.3582 37.804 58.5037 34.9494C55.6492 32.0949 51.779 30.4892 47.7421 30.4846Z" fill="white"/>
<path d="M61.8119 54.8438L33.6699 54.8428C33.4006 54.8428 33.1422 54.7358 32.9518 54.5453C32.7613 54.3548 32.6543 54.0965 32.6543 53.8271C32.6543 53.5578 32.7613 53.2995 32.9518 53.109C33.1422 52.9185 33.4006 52.8115 33.6699 52.8115L61.8119 52.8125C62.0812 52.8125 62.3396 52.9195 62.53 53.11C62.7205 53.3005 62.8275 53.5588 62.8275 53.8282C62.8275 54.0975 62.7205 54.3559 62.53 54.5463C62.3396 54.7368 62.0812 54.8438 61.8119 54.8438Z" fill="white"/>
<path d="M56.875 54.8427H46.7188C46.5854 54.8428 46.4533 54.8166 46.33 54.7656C46.2067 54.7146 46.0947 54.6398 46.0004 54.5454C45.9061 54.4511 45.8313 54.3391 45.7803 54.2159C45.7293 54.0926 45.703 53.9605 45.7031 53.8271V50.7813C45.703 50.6479 45.7293 50.5158 45.7803 50.3925C45.8313 50.2692 45.9061 50.1572 46.0004 50.0629C46.0947 49.9686 46.2067 49.8938 46.33 49.8428C46.4533 49.7918 46.5854 49.7655 46.7188 49.7656H56.875C57.0084 49.7655 57.1405 49.7918 57.2638 49.8428C57.387 49.8938 57.499 49.9686 57.5933 50.0629C57.6877 50.1572 57.7625 50.2692 57.8135 50.3925C57.8645 50.5158 57.8907 50.6479 57.8906 50.7813V53.8271C57.8907 53.9605 57.8645 54.0926 57.8135 54.2159C57.7625 54.3391 57.6877 54.4511 57.5933 54.5454C57.499 54.6398 57.387 54.7146 57.2638 54.7656C57.1405 54.8166 57.0084 54.8428 56.875 54.8427ZM47.7344 52.8115H55.8594V51.7969H47.7344V52.8115Z" fill="white"/>
<path d="M56.875 42.6543H46.7188C46.5854 42.6544 46.4533 42.6282 46.33 42.5772C46.2067 42.5261 46.0947 42.4513 46.0004 42.357C45.9061 42.2627 45.8313 42.1507 45.7803 42.0274C45.7293 41.9042 45.703 41.7721 45.7031 41.6387V38.5928C45.703 38.4594 45.7293 38.3273 45.7803 38.204C45.8313 38.0808 45.9061 37.9688 46.0004 37.8744C46.0947 37.7801 46.2067 37.7053 46.33 37.6543C46.4533 37.6033 46.5854 37.5771 46.7188 37.5771H56.875C57.0084 37.5771 57.1405 37.6033 57.2638 37.6543C57.387 37.7053 57.499 37.7801 57.5933 37.8744C57.6877 37.9688 57.7625 38.0808 57.8135 38.204C57.8645 38.3273 57.8907 38.4594 57.8906 38.5928V41.6386C57.8907 41.772 57.8645 41.9041 57.8135 42.0274C57.7625 42.1507 57.6877 42.2627 57.5933 42.357C57.499 42.4513 57.387 42.5261 57.2638 42.5771C57.1405 42.6282 57.0084 42.6544 56.875 42.6543ZM47.7344 40.6231H55.8594V39.6084H47.7344V40.6231Z" fill="white"/>
<path d="M47.7344 51.7969C47.601 51.797 47.4689 51.7708 47.3456 51.7198C47.2224 51.6687 47.1104 51.5939 47.016 51.4996C46.9217 51.4053 46.8469 51.2933 46.7959 51.17C46.7449 51.0468 46.7187 50.9147 46.7188 50.7813V41.6218C46.7188 41.3525 46.8258 41.0941 47.0162 40.9037C47.2067 40.7132 47.465 40.6062 47.7344 40.6062C48.0037 40.6062 48.2621 40.7132 48.4525 40.9037C48.643 41.0941 48.75 41.3525 48.75 41.6218V50.7813C48.7501 50.9147 48.7239 51.0468 48.6728 51.17C48.6218 51.2933 48.547 51.4053 48.4527 51.4996C48.3584 51.5939 48.2464 51.6687 48.1231 51.7198C47.9999 51.7708 47.8678 51.797 47.7344 51.7969Z" fill="white"/>
<path d="M55.8594 51.7969C55.726 51.797 55.5939 51.7708 55.4706 51.7198C55.3474 51.6687 55.2354 51.5939 55.141 51.4996C55.0467 51.4053 54.9719 51.2933 54.9209 51.17C54.8699 51.0468 54.8437 50.9147 54.8438 50.7813V41.6218C54.8438 41.3525 54.9508 41.0941 55.1412 40.9037C55.3317 40.7132 55.59 40.6062 55.8594 40.6062C56.1287 40.6062 56.3871 40.7132 56.5775 40.9037C56.768 41.0941 56.875 41.3525 56.875 41.6218V50.7813C56.8751 50.9147 56.8489 51.0468 56.7978 51.17C56.7468 51.2933 56.672 51.4053 56.5777 51.4996C56.4834 51.5939 56.3714 51.6687 56.2481 51.7198C56.1249 51.7708 55.9928 51.797 55.8594 51.7969Z" fill="white"/>
<path d="M47.7344 48.75H37.0703C36.801 48.75 36.5426 48.643 36.3522 48.4525C36.1617 48.2621 36.0547 48.0037 36.0547 47.7344C36.0547 47.465 36.1617 47.2067 36.3522 47.0162C36.5426 46.8258 36.801 46.7188 37.0703 46.7188H47.7344C48.0037 46.7188 48.2621 46.8258 48.4525 47.0162C48.643 47.2067 48.75 47.465 48.75 47.7344C48.75 48.0037 48.643 48.2621 48.4525 48.4525C48.2621 48.643 48.0037 48.75 47.7344 48.75Z" fill="white"/>
<path d="M47.7344 45.7041H37.0703C36.801 45.7041 36.5426 45.5971 36.3522 45.4066C36.1617 45.2162 36.0547 44.9578 36.0547 44.6885C36.0547 44.4191 36.1617 44.1608 36.3522 43.9703C36.5426 43.7799 36.801 43.6729 37.0703 43.6729H47.7344C48.0037 43.6729 48.2621 43.7799 48.4525 43.9703C48.643 44.1608 48.75 44.4191 48.75 44.6885C48.75 44.9578 48.643 45.2162 48.4525 45.4066C48.2621 45.5971 48.0037 45.7041 47.7344 45.7041Z" fill="white"/>
<path d="M37.0703 48.751C36.3969 48.751 35.7511 48.4835 35.2749 48.0073C34.7988 47.5311 34.5312 46.8853 34.5312 46.2119C34.5312 45.5385 34.7988 44.8927 35.2749 44.4165C35.7511 43.9404 36.3969 43.6729 37.0703 43.6729C37.3397 43.6729 37.598 43.7799 37.7885 43.9703C37.9789 44.1608 38.0859 44.4191 38.0859 44.6885C38.0859 44.9578 37.9789 45.2162 37.7885 45.4066C37.598 45.5971 37.3397 45.7041 37.0703 45.7041C36.9356 45.7041 36.8065 45.7576 36.7112 45.8528C36.616 45.9481 36.5625 46.0772 36.5625 46.2119C36.5625 46.3466 36.616 46.4758 36.7112 46.571C36.8065 46.6662 36.9356 46.7197 37.0703 46.7197C37.3397 46.7197 37.598 46.8267 37.7885 47.0172C37.9789 47.2077 38.0859 47.466 38.0859 47.7354C38.0859 48.0047 37.9789 48.263 37.7885 48.4535C37.598 48.644 37.3397 48.751 37.0703 48.751Z" fill="white"/>
</g>
<defs>
<clipPath id="clip0_1161_192">
<rect width="65" height="65" fill="white"/>
</clipPath>
</defs>
</svg>
