<svg width="67" height="56" viewBox="0 0 67 56" fill="none" xmlns="http://www.w3.org/2000/svg">
<path d="M13.5794 13.5364L11.639 6.2506C11.5592 5.95136 11.2873 5.74224 10.9774 5.74224H3.24683C2.14076 5.74224 1.18916 4.89229 1.13711 3.78751C1.08156 2.60789 2.0215 1.63416 3.18882 1.63416H10.9774C13.1459 1.63416 15.0505 3.09774 15.6088 5.19322L22.4954 31.0497" stroke="white" stroke-width="2" stroke-miterlimit="10" stroke-linecap="round" stroke-linejoin="round"/>
<path d="M18.3033 31.2704L14.751 17.9325" stroke="white" stroke-width="2" stroke-miterlimit="10" stroke-linecap="round" stroke-linejoin="round"/>
<path d="M31.4893 35.1143H38.9675" stroke="white" stroke-width="2" stroke-miterlimit="10" stroke-linecap="round" stroke-linejoin="round"/>
<path d="M20.8396 43.8453H20.5462C18.1351 43.8453 16.1807 41.8908 16.1807 39.4798C16.1807 37.0687 18.1351 35.1143 20.5462 35.1143H26.9574" stroke="white" stroke-width="2" stroke-miterlimit="10" stroke-linecap="round" stroke-linejoin="round"/>
<path d="M37.8713 43.8452H28.2783" stroke="white" stroke-width="2" stroke-miterlimit="10" stroke-linecap="round" stroke-linejoin="round"/>
<path d="M30.7139 47.8884H39.37" stroke="white" stroke-width="2" stroke-miterlimit="10" stroke-linecap="round" stroke-linejoin="round"/>
<path d="M41.8579 31.0503H20.2229C15.5731 31.0503 11.8037 34.8198 11.8037 39.4695C11.8037 43.4965 14.6309 46.8632 18.4088 47.6928" stroke="white" stroke-width="2" stroke-miterlimit="10" stroke-linecap="round" stroke-linejoin="round"/>
<path d="M60.3125 9.23242L55.3975 27.6638" stroke="white" stroke-width="2" stroke-miterlimit="10" stroke-linecap="round" stroke-linejoin="round"/>
<path d="M51.5841 9.23242L48.6787 27.3908" stroke="white" stroke-width="2" stroke-miterlimit="10" stroke-linecap="round" stroke-linejoin="round"/>
<path d="M28.8878 31.018L25.4072 9.26428" stroke="white" stroke-width="2" stroke-miterlimit="10" stroke-linecap="round" stroke-linejoin="round"/>
<path d="M42.8555 9.25989L41.6953 31.0136" stroke="white" stroke-width="2" stroke-miterlimit="10" stroke-linecap="round" stroke-linejoin="round"/>
<path d="M35.293 31.018L34.1328 9.26428" stroke="white" stroke-width="2" stroke-miterlimit="10" stroke-linecap="round" stroke-linejoin="round"/>
<path d="M24.5617 54.9783C27.9597 54.9783 30.7143 52.2237 30.7143 48.8258C30.7143 45.4278 27.9597 42.6732 24.5617 42.6732C21.1638 42.6732 18.4092 45.4278 18.4092 48.8258C18.4092 52.2237 21.1638 54.9783 24.5617 54.9783Z" stroke="white" stroke-width="2" stroke-miterlimit="10" stroke-linecap="round" stroke-linejoin="round"/>
<path d="M24.5623 51.2219C25.8857 51.2219 26.9586 50.149 26.9586 48.8256C26.9586 47.5022 25.8857 46.4293 24.5623 46.4293C23.2389 46.4293 22.166 47.5022 22.166 48.8256C22.166 50.149 23.2389 51.2219 24.5623 51.2219Z" stroke="white" stroke-width="2" stroke-miterlimit="10" stroke-linecap="round" stroke-linejoin="round"/>
<path d="M18.6406 16.5049H58.3477" stroke="white" stroke-width="2" stroke-miterlimit="10" stroke-linecap="round" stroke-linejoin="round"/>
<path d="M20.6045 23.7772H56.2258" stroke="white" stroke-width="2" stroke-miterlimit="10" stroke-linecap="round" stroke-linejoin="round"/>
<path d="M16.6768 9.23242H62.38" stroke="white" stroke-width="2" stroke-miterlimit="10" stroke-linecap="round" stroke-linejoin="round"/>
<path d="M60.4626 51.7639C58.0497 53.7709 54.9478 54.978 51.5638 54.978C43.8738 54.978 37.6396 48.744 37.6396 41.0538C37.6396 33.3636 43.8736 27.1296 51.5638 27.1296C59.254 27.1296 65.488 33.3639 65.488 41.0539C65.488 43.7339 64.7309 46.237 63.4188 48.3611" stroke="white" stroke-width="2" stroke-miterlimit="10" stroke-linecap="round" stroke-linejoin="round"/>
<path d="M49.8742 47.1811C49.3567 47.1811 48.86 46.9746 48.4947 46.6063L44.2275 42.3036C43.4718 41.5417 43.477 40.3116 44.2389 39.5559C45.0008 38.8005 46.2308 38.8053 46.9866 39.5673L49.8168 42.4212L56.0893 35.5587C56.8134 34.7666 58.0424 34.7116 58.8343 35.4354C59.6262 36.1594 59.6815 37.3883 58.9576 38.1804L51.3082 46.5491C50.9495 46.9417 50.4454 47.1699 49.9137 47.1807C49.9005 47.181 49.8873 47.1811 49.8742 47.1811Z" stroke="white" stroke-width="2" stroke-miterlimit="10" stroke-linecap="round" stroke-linejoin="round"/>
<path d="M37.8438 1.00012H42.3719C42.7625 1.00012 43.0794 1.31685 43.0794 1.70764V9.19634" stroke="white" stroke-width="2" stroke-miterlimit="10" stroke-linecap="round" stroke-linejoin="round"/>
<path d="M21.4082 9.19622V1.70751C21.4082 1.31685 21.7249 1 22.1157 1H33.3106" stroke="white" stroke-width="2" stroke-miterlimit="10" stroke-linecap="round" stroke-linejoin="round"/>
<path d="M43.0781 4.25781H54.6769C55.0675 4.25781 55.3844 4.57454 55.3844 4.96533V9.19642" stroke="white" stroke-width="2" stroke-miterlimit="10" stroke-linecap="round" stroke-linejoin="round"/>
</svg>
