<svg width="61" height="55" viewBox="0 0 61 55" fill="none" xmlns="http://www.w3.org/2000/svg">
<path fill-rule="evenodd" clip-rule="evenodd" d="M57.3772 44.3326H4.28797C2.39067 44.3326 0.844727 42.7645 0.844727 40.8401V3.52807C0.844727 1.56803 2.39067 0 4.28797 0H57.3772C59.2745 0 60.8205 1.56803 60.8205 3.52807V40.8401C60.8205 42.7289 59.2394 44.3326 57.3772 44.3326ZM4.28797 1.17602C3.02311 1.17602 2.00419 2.24514 2.00419 3.52807V40.8401C2.00419 42.0874 3.02311 43.1209 4.28797 43.1209H57.3772C58.607 43.1209 59.6259 42.0874 59.6259 40.8401V3.52807C59.6259 2.24514 58.607 1.17602 57.3772 1.17602H4.28797Z" fill="white"/>
<path fill-rule="evenodd" clip-rule="evenodd" d="M60.2232 36.7064H1.44202C1.09067 36.7064 0.844727 36.4213 0.844727 36.1006C0.844727 35.7798 1.09067 35.4948 1.44202 35.4948H60.2232C60.5394 35.4948 60.8205 35.7798 60.8205 36.1006C60.8205 36.4213 60.5394 36.7064 60.2232 36.7064Z" fill="white"/>
<path fill-rule="evenodd" clip-rule="evenodd" d="M36.0486 49.2505C35.8729 49.2505 35.6972 49.1436 35.5918 49.001C34.1864 47.1479 34.1864 45.1878 35.5918 43.3703C35.7675 43.0852 36.154 43.0496 36.3999 43.2634C36.6459 43.4416 36.7161 43.8336 36.5053 44.0831C35.4161 45.5086 35.4161 46.8271 36.5053 48.2883C36.7161 48.5377 36.6459 48.8941 36.3999 49.1079C36.2945 49.2148 36.154 49.2505 36.0486 49.2505ZM25.6134 49.2505C25.4729 49.2505 25.3675 49.2148 25.2621 49.1079C24.981 48.9297 24.9458 48.5377 25.1215 48.2883C26.2107 46.8271 26.2107 45.5086 25.1215 44.0831C24.9458 43.8336 24.981 43.4773 25.2269 43.2634C25.508 43.0496 25.8594 43.1209 26.0702 43.3703C27.4756 45.1878 27.4756 47.1479 26.0702 49.001C25.9648 49.1436 25.7891 49.2505 25.6134 49.2505Z" fill="white"/>
<path fill-rule="evenodd" clip-rule="evenodd" d="M43.9556 54.2042H17.7096C17.3583 54.2042 17.1123 53.9191 17.1123 53.5983V51.1394C17.1123 49.4288 18.4474 48.0389 20.1339 48.0389H41.5313C43.1826 48.0389 44.5177 49.4288 44.5177 51.1394V53.5983C44.5529 53.9191 44.2718 54.2042 43.9556 54.2042ZM18.2718 52.9925H43.3583V51.1394C43.3583 50.1059 42.5502 49.2506 41.5313 49.2506H20.1339C19.115 49.2506 18.2718 50.1059 18.2718 51.1394V52.9925Z" fill="white"/>
<path fill-rule="evenodd" clip-rule="evenodd" d="M46.5579 44.3325C46.2417 44.3325 45.9606 44.0474 45.9606 43.7267V36.1003C45.9606 35.7796 46.2417 35.4945 46.5579 35.4945C46.8741 35.4945 47.1552 35.7796 47.1552 36.1003V43.7267C47.1552 44.0474 46.8741 44.3325 46.5579 44.3325ZM15.1119 44.3325C14.7606 44.3325 14.5146 44.0474 14.5146 43.7267V36.1003C14.5146 35.7796 14.7606 35.4945 15.1119 35.4945C15.4282 35.4945 15.6741 35.7796 15.6741 36.1003V43.7267C15.6741 44.0474 15.4282 44.3325 15.1119 44.3325Z" fill="white"/>
<path fill-rule="evenodd" clip-rule="evenodd" d="M7.90679 42.3011C6.57165 42.3011 5.55273 41.232 5.55273 39.9134C5.55273 38.5949 6.57165 37.5258 7.90679 37.5258C9.20679 37.5258 10.2257 38.5949 10.2257 39.9134C10.2257 41.232 9.20679 42.3011 7.90679 42.3011ZM7.90679 38.7374C7.23922 38.7374 6.7122 39.2363 6.7122 39.9134C6.7122 40.5905 7.23922 41.0895 7.90679 41.0895C8.53922 41.0895 9.06625 40.5905 9.06625 39.9134C9.06625 39.2363 8.53922 38.7374 7.90679 38.7374Z" fill="white"/>
<path fill-rule="evenodd" clip-rule="evenodd" d="M23.12 40.5196H21.82C21.4686 40.5196 21.2227 40.2345 21.2227 39.9138C21.2227 39.5931 21.4686 39.308 21.82 39.308H23.12C23.4362 39.308 23.6821 39.5931 23.6821 39.9138C23.6821 40.2345 23.4362 40.5196 23.12 40.5196Z" fill="white"/>
<path fill-rule="evenodd" clip-rule="evenodd" d="M27.3006 40.5195H26.0006C25.6493 40.5195 25.4033 40.2344 25.4033 39.9137C25.4033 39.593 25.6493 39.3079 26.0006 39.3079H27.3006C27.6168 39.3079 27.8628 39.593 27.8628 39.9137C27.8628 40.2344 27.6168 40.5195 27.3006 40.5195Z" fill="white"/>
<path fill-rule="evenodd" clip-rule="evenodd" d="M31.4823 40.5196H30.1823C29.866 40.5196 29.585 40.2345 29.585 39.9138C29.585 39.5931 29.866 39.308 30.1823 39.308H31.4823C31.7985 39.308 32.0796 39.5931 32.0796 39.9138C32.0796 40.2345 31.7985 40.5196 31.4823 40.5196Z" fill="white"/>
<path fill-rule="evenodd" clip-rule="evenodd" d="M35.6639 40.5194H34.3639C34.0477 40.5194 33.7666 40.2343 33.7666 39.9136C33.7666 39.5928 34.0477 39.3077 34.3639 39.3077H35.6639C35.9801 39.3077 36.2612 39.5928 36.2612 39.9136C36.2612 40.2343 35.9801 40.5194 35.6639 40.5194Z" fill="white"/>
<path fill-rule="evenodd" clip-rule="evenodd" d="M39.8445 40.5195H38.5094C38.1932 40.5195 37.9121 40.2344 37.9121 39.9137C37.9121 39.593 38.1932 39.3079 38.5094 39.3079H39.8445C40.1608 39.3079 40.4418 39.593 40.4418 39.9137C40.4418 40.2344 40.1608 40.5195 39.8445 40.5195Z" fill="white"/>
<path fill-rule="evenodd" clip-rule="evenodd" d="M24.6664 51.7452H17.7096C17.3583 51.7452 17.1123 51.4601 17.1123 51.1394C17.1123 50.8187 17.3583 50.5336 17.7096 50.5336H24.6664C24.9826 50.5336 25.2285 50.8187 25.2285 51.1394C25.2285 51.4601 24.9826 51.7452 24.6664 51.7452Z" fill="white"/>
<path fill-rule="evenodd" clip-rule="evenodd" d="M30.8159 32.4299C23.1564 32.4299 16.9375 26.1222 16.9375 18.3533C16.9375 10.5844 23.1564 4.27661 30.8159 4.27661C38.4402 4.27661 44.6943 10.5844 44.6943 18.3533C44.6943 26.0865 38.4402 32.4299 30.8159 32.4299ZM30.8159 5.45264C23.7889 5.45264 18.097 11.2258 18.097 18.3533C18.097 25.4451 23.7889 31.2183 30.8159 31.2183C37.8078 31.2183 43.4997 25.4451 43.4997 18.3533C43.4997 11.2258 37.8078 5.45264 30.8159 5.45264Z" fill="white"/>
<path fill-rule="evenodd" clip-rule="evenodd" d="M30.8145 27.8685C30.2875 27.8685 29.7605 27.6903 29.374 27.2983L23.4361 21.24C23.0497 20.848 22.8037 20.349 22.8037 19.7788C22.8037 19.2443 23.0145 18.6741 23.4361 18.2821C23.8226 17.8901 24.3145 17.6763 24.8767 17.6763C25.4037 17.6763 25.9307 17.8901 26.2821 18.2821L28.7767 20.7767V10.9052C28.7767 9.72918 29.6902 8.80261 30.8145 8.80261C31.9389 8.80261 32.8524 9.72918 32.8524 10.9052V20.7767L35.3118 18.2821C35.6983 17.8901 36.2254 17.6763 36.7524 17.6763C37.3145 17.6763 37.8416 17.8901 38.2281 18.2821C39.001 19.1374 39.001 20.4203 38.2281 21.24L32.2902 27.2983C31.8686 27.6903 31.3416 27.8685 30.8145 27.8685ZM24.8767 18.8523C24.6307 18.8523 24.4199 18.9592 24.2443 19.1017C24.0686 19.3156 23.9632 19.5294 23.9632 19.7788C23.9632 19.9927 24.0686 20.2065 24.2443 20.349V20.3847L30.1821 26.443C30.5335 26.7637 31.0956 26.7637 31.447 26.443L37.3848 20.3847C37.701 20.0283 37.701 19.4581 37.3497 19.1017C37.2091 18.9592 36.9983 18.8523 36.7524 18.8523C36.5064 18.8523 36.2956 18.9592 36.1199 19.1017L32.7118 22.6654C32.5362 22.808 32.2902 22.8793 32.0443 22.7724C31.8335 22.7011 31.6929 22.4873 31.6929 22.2378V10.9052C31.6929 10.4063 31.2713 10.0143 30.8145 10.0143C30.3226 10.0143 29.9362 10.4063 29.9362 10.9052V22.2378C29.9362 22.4516 29.7956 22.6654 29.5848 22.7724C29.374 22.8793 29.128 22.808 28.9524 22.6298L25.474 19.1017C25.2983 18.9592 25.0875 18.8523 24.8767 18.8523Z" fill="white"/>
</svg>
