<svg width="63" height="63" viewBox="0 0 63 63" fill="none" xmlns="http://www.w3.org/2000/svg">
<g clip-path="url(#clip0_1184_492)">
<path d="M6.71101 43.8627L10.491 47.6427V57.75C10.4927 59.1419 11.0463 60.4763 12.0305 61.4605C13.0147 62.4447 14.3491 62.9984 15.741 63H57.7505C59.1423 62.9984 60.4767 62.4447 61.4609 61.4605C62.4451 60.4763 62.9988 59.1419 63.0005 57.75V31.5C62.9964 30.1748 62.4905 28.9003 61.5846 27.933C60.6787 26.9658 59.4401 26.3776 58.118 26.2868C58.6474 25.2965 58.8461 24.1628 58.6849 23.0516C58.5237 21.9403 58.0112 20.9097 57.2223 20.1107L43.8516 6.73158L43.8453 6.72003H43.8359L38.6583 1.53618C37.6741 0.553882 36.3403 0.00219727 34.9497 0.00219727C33.5591 0.00219727 32.2254 0.553882 31.2411 1.53618L1.53451 31.2543C0.555191 32.2438 0.00585938 33.5797 0.00585938 34.9719C0.00585937 36.364 0.555191 37.6999 1.53451 38.6894L6.71101 43.8627ZM38.651 4.49823L41.6172 7.46658L22.8443 26.25H16.9055L38.651 4.49823ZM10.5005 38.5938L7.45546 41.6388L4.48816 38.6715L10.5005 32.655V38.5938ZM8.94016 43.1235L10.5005 41.5632V44.6838L8.94016 43.1235ZM60.9005 31.5V57.75C60.9005 58.5855 60.5686 59.3867 59.9778 59.9774C59.3871 60.5682 58.5859 60.9 57.7505 60.9H15.7505C14.915 60.9 14.1138 60.5682 13.5231 59.9774C12.9323 59.3867 12.6005 58.5855 12.6005 57.75V31.5C12.6005 30.6646 12.9323 29.8634 13.5231 29.2726C14.1138 28.6819 14.915 28.35 15.7505 28.35H57.7505C58.5859 28.35 59.3871 28.6819 59.9778 29.2726C60.5686 29.8634 60.9005 30.6646 60.9005 31.5ZM55.7376 26.0537L55.5455 26.25H25.8126L43.1019 8.95233L55.7345 21.5922C56.3236 22.185 56.6545 22.9866 56.6551 23.8223C56.6557 24.658 56.3259 25.4601 55.7376 26.0537ZM3.02131 32.7359L32.7258 3.02088C33.3241 2.44917 34.1194 2.1296 34.9469 2.12843C35.7744 2.12726 36.5706 2.44457 37.1705 3.01458L13.3103 26.88C12.3821 27.3719 11.6227 28.1308 11.1305 29.0588L3.00556 37.1847C2.4253 36.5887 2.10192 35.7889 2.10486 34.9571C2.10781 34.1253 2.43685 33.3278 3.02131 32.7359Z" fill="white"/>
<path d="M16.7992 39.9H23.0992C23.6562 39.9 24.1903 39.6788 24.5841 39.2849C24.978 38.8911 25.1992 38.357 25.1992 37.8V33.6C25.1992 33.043 24.978 32.5089 24.5841 32.1151C24.1903 31.7212 23.6562 31.5 23.0992 31.5H16.7992C16.2423 31.5 15.7081 31.7212 15.3143 32.1151C14.9205 32.5089 14.6992 33.043 14.6992 33.6V37.8C14.6992 38.357 14.9205 38.8911 15.3143 39.2849C15.7081 39.6788 16.2423 39.9 16.7992 39.9ZM16.7992 33.6H23.0992V37.8H16.7992V33.6Z" fill="white"/>
<path d="M15.7492 46.2C16.0277 46.2 16.2948 46.0894 16.4917 45.8925C16.6886 45.6955 16.7992 45.4285 16.7992 45.15V43.05C16.7992 42.7715 16.6886 42.5045 16.4917 42.3075C16.2948 42.1106 16.0277 42 15.7492 42C15.4707 42 15.2037 42.1106 15.0068 42.3075C14.8098 42.5045 14.6992 42.7715 14.6992 43.05V45.15C14.6992 45.4285 14.8098 45.6955 15.0068 45.8925C15.2037 46.0894 15.4707 46.2 15.7492 46.2Z" fill="white"/>
<path d="M19.9504 42C19.6719 42 19.4048 42.1106 19.2079 42.3075C19.011 42.5045 18.9004 42.7715 18.9004 43.05V45.15C18.9004 45.4285 19.011 45.6955 19.2079 45.8925C19.4048 46.0894 19.6719 46.2 19.9504 46.2C20.2289 46.2 20.4959 46.0894 20.6929 45.8925C20.8898 45.6955 21.0004 45.4285 21.0004 45.15V43.05C21.0004 42.7715 20.8898 42.5045 20.6929 42.3075C20.4959 42.1106 20.2289 42 19.9504 42Z" fill="white"/>
<path d="M23.0996 43.05V45.15C23.0996 45.4285 23.2102 45.6955 23.4071 45.8925C23.6041 46.0894 23.8711 46.2 24.1496 46.2C24.4281 46.2 24.6952 46.0894 24.8921 45.8925C25.089 45.6955 25.1996 45.4285 25.1996 45.15V43.05C25.1996 42.7715 25.089 42.5045 24.8921 42.3075C24.6952 42.1106 24.4281 42 24.1496 42C23.8711 42 23.6041 42.1106 23.4071 42.3075C23.2102 42.5045 23.0996 42.7715 23.0996 43.05Z" fill="white"/>
<path d="M28.3508 42C28.0723 42 27.8052 42.1106 27.6083 42.3075C27.4114 42.5045 27.3008 42.7715 27.3008 43.05V45.15C27.3008 45.4285 27.4114 45.6955 27.6083 45.8925C27.8052 46.0894 28.0723 46.2 28.3508 46.2C28.6293 46.2 28.8963 46.0894 29.0932 45.8925C29.2902 45.6955 29.4008 45.4285 29.4008 45.15V43.05C29.4008 42.7715 29.2902 42.5045 29.0932 42.3075C28.8963 42.1106 28.6293 42 28.3508 42Z" fill="white"/>
<path d="M32.55 46.2C32.8285 46.2 33.0955 46.0894 33.2925 45.8925C33.4894 45.6955 33.6 45.4285 33.6 45.15V43.05C33.6 42.7715 33.4894 42.5045 33.2925 42.3075C33.0955 42.1106 32.8285 42 32.55 42C32.2715 42 32.0045 42.1106 31.8075 42.3075C31.6106 42.5045 31.5 42.7715 31.5 43.05V45.15C31.5 45.4285 31.6106 45.6955 31.8075 45.8925C32.0045 46.0894 32.2715 46.2 32.55 46.2Z" fill="white"/>
<path d="M40.9504 42C40.6719 42 40.4048 42.1106 40.2079 42.3075C40.011 42.5045 39.9004 42.7715 39.9004 43.05V45.15C39.9004 45.4285 40.011 45.6955 40.2079 45.8925C40.4048 46.0894 40.6719 46.2 40.9504 46.2C41.2289 46.2 41.4959 46.0894 41.6929 45.8925C41.8898 45.6955 42.0004 45.4285 42.0004 45.15V43.05C42.0004 42.7715 41.8898 42.5045 41.6929 42.3075C41.4959 42.1106 41.2289 42 40.9504 42Z" fill="white"/>
<path d="M45.1496 42C44.8711 42 44.6041 42.1106 44.4071 42.3075C44.2102 42.5045 44.0996 42.7715 44.0996 43.05V45.15C44.0996 45.4285 44.2102 45.6955 44.4071 45.8925C44.6041 46.0894 44.8711 46.2 45.1496 46.2C45.4281 46.2 45.6952 46.0894 45.8921 45.8925C46.089 45.6955 46.1996 45.4285 46.1996 45.15V43.05C46.1996 42.7715 46.089 42.5045 45.8921 42.3075C45.6952 42.1106 45.4281 42 45.1496 42Z" fill="white"/>
<path d="M49.3508 42C49.0723 42 48.8052 42.1106 48.6083 42.3075C48.4114 42.5045 48.3008 42.7715 48.3008 43.05V45.15C48.3008 45.4285 48.4114 45.6955 48.6083 45.8925C48.8052 46.0894 49.0723 46.2 49.3508 46.2C49.6293 46.2 49.8963 46.0894 50.0932 45.8925C50.2902 45.6955 50.4008 45.4285 50.4008 45.15V43.05C50.4008 42.7715 50.2902 42.5045 50.0932 42.3075C49.8963 42.1106 49.6293 42 49.3508 42Z" fill="white"/>
<path d="M53.55 42C53.2715 42 53.0045 42.1106 52.8075 42.3075C52.6106 42.5045 52.5 42.7715 52.5 43.05V45.15C52.5 45.4285 52.6106 45.6955 52.8075 45.8925C53.0045 46.0894 53.2715 46.2 53.55 46.2C53.8285 46.2 54.0955 46.0894 54.2925 45.8925C54.4894 45.6955 54.6 45.4285 54.6 45.15V43.05C54.6 42.7715 54.4894 42.5045 54.2925 42.3075C54.0955 42.1106 53.8285 42 53.55 42Z" fill="white"/>
<path d="M19.9492 48.3H15.7492C15.4707 48.3 15.2037 48.4107 15.0068 48.6076C14.8098 48.8045 14.6992 49.0716 14.6992 49.35C14.6992 49.6285 14.8098 49.8956 15.0068 50.0925C15.2037 50.2894 15.4707 50.4 15.7492 50.4H19.9492C20.2277 50.4 20.4948 50.2894 20.6917 50.0925C20.8886 49.8956 20.9992 49.6285 20.9992 49.35C20.9992 49.0716 20.8886 48.8045 20.6917 48.6076C20.4948 48.4107 20.2277 48.3 19.9492 48.3Z" fill="white"/>
<path d="M28.3496 48.3H24.1496C23.8711 48.3 23.6041 48.4107 23.4071 48.6076C23.2102 48.8045 23.0996 49.0716 23.0996 49.35C23.0996 49.6285 23.2102 49.8956 23.4071 50.0925C23.6041 50.2894 23.8711 50.4 24.1496 50.4H28.3496C28.6281 50.4 28.8952 50.2894 29.0921 50.0925C29.289 49.8956 29.3996 49.6285 29.3996 49.35C29.3996 49.0716 29.289 48.8045 29.0921 48.6076C28.8952 48.4107 28.6281 48.3 28.3496 48.3Z" fill="white"/>
<path d="M19.9492 52.5H15.7492C15.4707 52.5 15.2037 52.6106 15.0068 52.8075C14.8098 53.0045 14.6992 53.2715 14.6992 53.55C14.6992 53.8285 14.8098 54.0955 15.0068 54.2925C15.2037 54.4894 15.4707 54.6 15.7492 54.6H19.9492C20.2277 54.6 20.4948 54.4894 20.6917 54.2925C20.8886 54.0955 20.9992 53.8285 20.9992 53.55C20.9992 53.2715 20.8886 53.0045 20.6917 52.8075C20.4948 52.6106 20.2277 52.5 19.9492 52.5Z" fill="white"/>
<path d="M28.3496 52.5H24.1496C23.8711 52.5 23.6041 52.6106 23.4071 52.8075C23.2102 53.0045 23.0996 53.2715 23.0996 53.55C23.0996 53.8285 23.2102 54.0955 23.4071 54.2925C23.6041 54.4894 23.8711 54.6 24.1496 54.6H28.3496C28.6281 54.6 28.8952 54.4894 29.0921 54.2925C29.289 54.0955 29.3996 53.8285 29.3996 53.55C29.3996 53.2715 29.289 53.0045 29.0921 52.8075C28.8952 52.6106 28.6281 52.5 28.3496 52.5Z" fill="white"/>
<path d="M36.75 48.3H32.55C32.2715 48.3 32.0045 48.4107 31.8075 48.6076C31.6106 48.8045 31.5 49.0716 31.5 49.35C31.5 49.6285 31.6106 49.8956 31.8075 50.0925C32.0045 50.2894 32.2715 50.4 32.55 50.4H36.75C37.0285 50.4 37.2956 50.2894 37.4925 50.0925C37.6894 49.8956 37.8 49.6285 37.8 49.35C37.8 49.0716 37.6894 48.8045 37.4925 48.6076C37.2956 48.4107 37.0285 48.3 36.75 48.3Z" fill="white"/>
</g>
<defs>
<clipPath id="clip0_1184_492">
<rect width="63" height="63" fill="white"/>
</clipPath>
</defs>
</svg>
