<svg width="56" height="56" viewBox="0 0 56 56" fill="none" xmlns="http://www.w3.org/2000/svg">
<path d="M23.4149 54.1214H1.71289V50.6942H54.8343V54.1214H33.1322" stroke="white" stroke-width="2" stroke-miterlimit="10" stroke-linecap="round" stroke-linejoin="round"/>
<path d="M53.1209 49.8374V28.4175H36.8418" stroke="white" stroke-width="2" stroke-miterlimit="10" stroke-linecap="round" stroke-linejoin="round"/>
<path d="M34.2709 21.563V18.1485C32.3781 18.1485 30.8438 16.6432 30.8438 14.7864V13.8518" stroke="white" stroke-width="2" stroke-miterlimit="10" stroke-linecap="round" stroke-linejoin="round"/>
<path d="M25.7032 13.8518V14.7863C25.7032 16.6432 24.5524 18.1484 23.1328 18.1484V21.563" stroke="white" stroke-width="2" stroke-miterlimit="10" stroke-linecap="round" stroke-linejoin="round"/>
<path d="M28.7014 13.8519C25.1524 13.8519 22.2754 11.0966 22.2754 7.69763V1H35.1273V7.69773C35.1274 11.0966 32.2505 13.8519 28.7014 13.8519Z" stroke="white" stroke-width="2" stroke-miterlimit="10" stroke-linecap="round" stroke-linejoin="round"/>
<path d="M35.2914 3.57031H39.4129V5.69694C39.4129 8.30807 37.4948 10.4247 35.1289 10.4247" stroke="white" stroke-width="2" stroke-miterlimit="10" stroke-linecap="round" stroke-linejoin="round"/>
<path d="M22.1137 3.57031H17.9922V5.69694C17.9922 8.30807 19.9102 10.4247 22.2762 10.4247" stroke="white" stroke-width="2" stroke-miterlimit="10" stroke-linecap="round" stroke-linejoin="round"/>
<path d="M27.417 36.9855H29.1306V45.5534" stroke="white" stroke-width="2" stroke-miterlimit="10" stroke-linecap="round" stroke-linejoin="round"/>
<path d="M14.5646 45.5533H9.79583C9.79583 45.5533 10.1006 45.212 13.1268 41.7267C13.6866 41.0818 14.168 40.4244 14.168 39.7848C14.168 38.7782 13.0959 37.8422 11.7735 37.8422C10.6098 37.8422 9.6399 38.5156 9.42383 39.4083" stroke="white" stroke-width="2" stroke-miterlimit="10" stroke-linecap="round" stroke-linejoin="round"/>
<path d="M42.8398 38.7122C43.035 37.728 43.9107 36.9855 44.9616 36.9855C46.1558 36.9855 47.1238 37.9444 47.1238 39.1275C47.1238 40.3105 46.1558 41.2695 44.9616 41.2695" stroke="white" stroke-width="2" stroke-miterlimit="10" stroke-linecap="round" stroke-linejoin="round"/>
<path d="M44.9818 41.2693C46.1649 41.2693 47.1238 42.2283 47.1238 43.4113C47.1238 44.5943 46.1649 45.5533 44.9818 45.5533C43.9002 45.5533 43.0058 44.7516 42.8605 43.7101C42.8469 43.6124 42.8398 43.5127 42.8398 43.4113" stroke="white" stroke-width="2" stroke-miterlimit="10" stroke-linecap="round" stroke-linejoin="round"/>
<path d="M19.7046 32.7014H4.28223V49.8373" stroke="white" stroke-width="2" stroke-miterlimit="10" stroke-linecap="round" stroke-linejoin="round"/>
<path d="M36.8416 21.5631H20.5625V50.6942H36.8416V21.5631Z" stroke="white" stroke-width="2" stroke-miterlimit="10" stroke-linecap="round" stroke-linejoin="round"/>
<ellipse cx="28.2738" cy="54.5497" rx="0.856796" ry="1.28519" fill="white"/>
<path d="M44.5534 8.71126C44.5534 8.00149 43.7862 7.42606 42.8398 7.42606C43.7862 7.42606 44.5534 6.85064 44.5534 6.14087C44.5534 6.85064 45.3207 7.42606 46.267 7.42606C45.3206 7.42606 44.5534 8.00149 44.5534 8.71126Z" stroke="white" stroke-width="2" stroke-miterlimit="10" stroke-linecap="round" stroke-linejoin="round"/>
<path d="M11.9948 14.7088C11.9948 13.7624 11.2276 12.9952 10.2812 12.9952C11.2276 12.9952 11.9948 12.228 11.9948 11.2816C11.9948 12.228 12.7621 12.9952 13.7084 12.9952C12.7621 12.9953 11.9948 13.7624 11.9948 14.7088Z" stroke="white" stroke-width="2" stroke-miterlimit="10" stroke-linecap="round" stroke-linejoin="round"/>
</svg>
