<svg width="61" height="61" viewBox="0 0 61 61" fill="none" xmlns="http://www.w3.org/2000/svg">
<path d="M55.9167 0H27.45C24.647 0 22.3667 2.28038 22.3667 5.08333V11.1833H3.05C1.36843 11.1833 0 12.5518 0 14.2333V46.7667C0 48.4482 1.36843 49.8167 3.05 49.8167H22.3667V55.9167C22.3667 58.7196 24.647 61 27.45 61H55.9167C58.7196 61 61 58.7196 61 55.9167V5.08333C61 2.28038 58.7196 0 55.9167 0ZM2.03333 46.7667V14.2333C2.03333 13.6732 2.4888 13.2167 3.05 13.2167H44.7333V47.7833H3.05C2.4888 47.7833 2.03333 47.3269 2.03333 46.7667ZM38.6333 49.8167H44.7333V51.85C44.7333 52.4102 44.2779 52.8667 43.7167 52.8667H39.65C39.0888 52.8667 38.6333 52.4102 38.6333 51.85V49.8167ZM44.7333 11.1833H38.6333V9.15C38.6333 8.58982 39.0888 8.13333 39.65 8.13333H43.7167C44.2779 8.13333 44.7333 8.58982 44.7333 9.15V11.1833ZM58.9667 55.9167C58.9667 57.5982 57.5982 58.9667 55.9167 58.9667H27.45C25.7684 58.9667 24.4 57.5982 24.4 55.9167V49.8167H36.6V51.85C36.6 53.5316 37.9684 54.9 39.65 54.9H43.7167C45.3982 54.9 46.7667 53.5316 46.7667 51.85V9.15C46.7667 7.46843 45.3982 6.1 43.7167 6.1H39.65C37.9684 6.1 36.6 7.46843 36.6 9.15V11.1833H24.4V5.08333C24.4 3.40177 25.7684 2.03333 27.45 2.03333H55.9167C57.5982 2.03333 58.9667 3.40177 58.9667 5.08333V55.9167Z" fill="white"/>
<path d="M8.13203 28.4667H18.2987C19.9803 28.4667 21.3487 27.0983 21.3487 25.4167V19.3167C21.3487 17.6352 19.9803 16.2667 18.2987 16.2667H8.13203C6.45046 16.2667 5.08203 17.6352 5.08203 19.3167V25.4167C5.08203 27.0983 6.45046 28.4667 8.13203 28.4667ZM7.11536 25.4167V23.3834H10.1654V26.4334H8.13203C7.57083 26.4334 7.11536 25.9769 7.11536 25.4167ZM18.2987 26.4334H16.2654V23.3834H19.3154V25.4167C19.3154 25.9769 18.8599 26.4334 18.2987 26.4334ZM19.3154 19.3167V21.3501H16.2654C15.144 21.3501 14.232 22.262 14.232 23.3834V26.4334H12.1987V18.3001H18.2987C18.8599 18.3001 19.3154 18.7565 19.3154 19.3167ZM8.13203 18.3001H10.1654V21.3501H7.11536V19.3167C7.11536 18.7565 7.57083 18.3001 8.13203 18.3001Z" fill="white"/>
<path d="M6.0987 35.5833H14.232C14.7942 35.5833 15.2487 35.1278 15.2487 34.5666C15.2487 34.0054 14.7942 33.5499 14.232 33.5499H6.0987C5.53648 33.5499 5.08203 34.0054 5.08203 34.5666C5.08203 35.1278 5.53648 35.5833 6.0987 35.5833Z" fill="white"/>
<path d="M26.4332 33.5499H18.2999C17.7377 33.5499 17.2832 34.0054 17.2832 34.5666C17.2832 35.1278 17.7377 35.5833 18.2999 35.5833H26.4332C26.9954 35.5833 27.4499 35.1278 27.4499 34.5666C27.4499 34.0054 26.9954 33.5499 26.4332 33.5499Z" fill="white"/>
<path d="M38.6324 33.5499H30.4991C29.9369 33.5499 29.4824 34.0054 29.4824 34.5666C29.4824 35.1278 29.9369 35.5833 30.4991 35.5833H38.6324C39.1946 35.5833 39.6491 35.1278 39.6491 34.5666C39.6491 34.0054 39.1946 33.5499 38.6324 33.5499Z" fill="white"/>
<path d="M17.282 39.65H6.0987C5.53648 39.65 5.08203 40.1055 5.08203 40.6667C5.08203 41.2279 5.53648 41.6834 6.0987 41.6834H17.282C17.8442 41.6834 18.2987 41.2279 18.2987 40.6667C18.2987 40.1055 17.8442 39.65 17.282 39.65Z" fill="white"/>
</svg>
