<svg width="63" height="62" viewBox="0 0 63 62" fill="none" xmlns="http://www.w3.org/2000/svg">
<g clip-path="url(#clip0_1161_123)">
<path d="M57.6268 3.875H5.12711C2.22878 3.87831 -0.119682 6.1895 -0.123047 9.04182V42.1085C-0.119682 44.9603 2.22878 47.2715 5.12711 47.2748H12.4768V56.1473C12.4772 57.2887 13.4179 58.2135 14.5772 58.2135C15.1343 58.2135 15.6678 57.9959 16.0615 57.6085L26.5618 47.2748H57.6268C60.5251 47.2715 62.8736 44.9603 62.877 42.1085V9.04182C62.8736 6.1895 60.5251 3.87831 57.6268 3.875ZM60.777 42.1085C60.777 43.8203 59.3668 45.2082 57.6268 45.2082H26.1268C25.8485 45.2087 25.5813 45.3174 25.3847 45.5109L14.5767 56.1473V46.2417C14.5767 45.6708 14.1067 45.2082 13.527 45.2082H5.12711C3.38715 45.2082 1.97692 43.8203 1.97692 42.1085V9.04182C1.97692 7.32948 3.38715 5.94164 5.12711 5.94164H57.6268C59.3668 5.94164 60.777 7.32948 60.777 9.04182V42.1085Z" fill="white"/>
<path d="M31.3771 19.375C27.8976 19.375 25.0771 22.1507 25.0771 25.5749C25.0771 28.9991 27.8976 31.7748 31.3771 31.7748C34.8565 31.7748 37.677 28.9991 37.677 25.5749C37.6736 22.1521 34.8551 19.3783 31.3771 19.375ZM31.3771 29.7082C29.0574 29.7082 27.1771 27.8577 27.1771 25.5749C27.1771 23.2921 29.0574 21.4416 31.3771 21.4416C33.6967 21.4416 35.577 23.2921 35.577 25.5749C35.577 27.8577 33.6967 29.7082 31.3771 29.7082Z" fill="white"/>
<path d="M45.0266 21.4416H41.5164L43.9985 18.9989C44.4085 18.5954 44.4085 17.9412 43.9985 17.5377L39.5433 13.1533C39.1333 12.7498 38.4686 12.7498 38.0586 13.1533L35.5765 15.596V12.1415C35.5765 11.571 35.1064 11.1084 34.5267 11.1084H28.2263C27.6467 11.1084 27.1766 11.571 27.1766 12.1415V15.596L24.6945 13.1533C24.2845 12.7498 23.6198 12.7498 23.2098 13.1533L18.7546 17.5377C18.3446 17.9412 18.3446 18.5954 18.7546 18.9989L21.2377 21.4416H17.7265C17.1468 21.4416 16.6768 21.9042 16.6768 22.4751V28.675C16.6768 29.2455 17.1468 29.7081 17.7265 29.7081H21.2367L18.7546 32.1508C18.3446 32.5548 18.3446 33.2085 18.7546 33.612L23.2098 37.9964C23.6198 38.3999 24.2845 38.3999 24.6945 37.9964L27.1766 35.5537V39.0082C27.1766 39.5792 27.6467 40.0418 28.2268 40.0418H34.5267C35.1064 40.0418 35.5765 39.5787 35.5765 39.0082V35.5537L38.059 37.9964C38.469 38.3999 39.1333 38.3999 39.5433 37.9964L43.9985 33.612C44.4085 33.2085 44.4085 32.5548 43.9985 32.1508L41.5154 29.7081H45.0266C45.6062 29.7081 46.0763 29.2455 46.0763 28.675V22.4751C46.0763 21.9042 45.6062 21.4416 45.0266 21.4416ZM43.9763 27.6415H40.2782C39.8346 27.6415 39.4385 27.9163 39.2895 28.3278C39.19 28.6008 39.0766 28.8685 38.9492 29.1296C38.7569 29.5251 38.8391 29.9967 39.154 30.3065L41.7716 32.8816L38.8012 35.8049L36.1845 33.2312C35.8711 32.9199 35.3919 32.8367 34.9896 33.0245C34.7243 33.1484 34.4527 33.2591 34.1759 33.3561C33.7567 33.5022 33.477 33.892 33.4765 34.3295V37.9751H29.2766V34.3357C29.277 33.8981 28.9973 33.5079 28.5782 33.3613C28.3008 33.2643 28.0288 33.1527 27.7635 33.0273C27.3612 32.84 26.882 32.9228 26.5686 33.234L23.9519 35.8049L20.9815 32.8816L23.5972 30.3074C23.9135 29.999 23.9976 29.5279 23.8072 29.1315C23.6818 28.8709 23.5698 28.6031 23.4722 28.3311C23.3232 27.9158 22.9238 27.6396 22.4768 27.6415H18.7767V23.5082H22.4749C22.9185 23.5087 23.3146 23.2339 23.464 22.8223C23.5631 22.5494 23.6765 22.2817 23.8043 22.0206C23.9952 21.6242 23.911 21.1521 23.5943 20.8432L20.9815 18.2681L23.9524 15.3448L26.5686 17.919C26.8824 18.2302 27.3612 18.313 27.7635 18.1257C28.0288 18.0013 28.3004 17.8906 28.5772 17.7941C28.9978 17.6475 29.278 17.2553 29.2766 16.8164V13.175H33.4765V16.8145C33.4765 17.252 33.7558 17.6423 34.1749 17.7889C34.4522 17.8859 34.7243 17.997 34.9896 18.1224C35.3924 18.3102 35.8711 18.2274 36.1845 17.9161L38.8012 15.3448L41.7716 18.2681L39.1549 20.8423C38.8387 21.1507 38.7545 21.6223 38.9449 22.0182C39.0703 22.2793 39.1823 22.5466 39.2799 22.819C39.4284 23.2324 39.8254 23.5087 40.271 23.5082H43.9763V27.6415Z" fill="white"/>
</g>
<defs>
<clipPath id="clip0_1161_123">
<rect width="63" height="62" fill="white"/>
</clipPath>
</defs>
</svg>
