<svg width="125" height="125" viewBox="0 0 125 125" fill="none" xmlns="http://www.w3.org/2000/svg">
<g clip-path="url(#clip0_1045_98)">
<path d="M108.398 41.9922C101.829 41.9922 95.222 43.6871 94.7703 47.4449C94.7416 47.5786 94.7269 47.7149 94.7266 47.8516V119.141C94.7266 123.188 101.593 125 108.398 125C115.204 125 122.07 123.188 122.07 119.141V47.8516C122.07 47.7149 122.055 47.5786 122.027 47.4449C121.575 43.6871 114.968 41.9922 108.398 41.9922ZM108.398 45.8984C113.796 45.8984 117.069 47.1296 117.987 47.8516C117.069 48.5735 113.796 49.8047 108.398 49.8047C103.001 49.8047 99.7276 48.5735 98.8102 47.8516C99.7276 47.1296 103.001 45.8984 108.398 45.8984ZM118.164 118.975C117.589 119.654 114.237 121.094 108.398 121.094C102.56 121.094 99.2074 119.654 98.6328 118.975V52.1418C101.765 53.2568 105.075 53.7886 108.398 53.7109C111.722 53.7886 115.032 53.2568 118.164 52.1418V118.975Z" fill="white"/>
<path d="M77.1484 61.5234C70.5791 61.5234 63.972 63.2184 63.5203 66.9762C63.4916 67.1098 63.4769 67.2461 63.4766 67.3828V119.141C63.4766 123.188 70.343 125 77.1484 125C83.9539 125 90.8203 123.188 90.8203 119.141V67.3828C90.82 67.2461 90.8053 67.1098 90.7766 66.9762C90.3249 63.2184 83.7178 61.5234 77.1484 61.5234ZM77.1484 65.4297C82.5462 65.4297 85.8192 66.6609 86.7367 67.3828C85.8192 68.1047 82.5462 69.3359 77.1484 69.3359C71.7506 69.3359 68.4776 68.1047 67.5602 67.3828C68.4776 66.6609 71.7506 65.4297 77.1484 65.4297ZM86.9141 118.975C86.3395 119.654 82.9868 121.094 77.1484 121.094C71.31 121.094 67.9574 119.654 67.3828 118.975V71.6731C70.5149 72.788 73.8247 73.3198 77.1484 73.2422C80.4721 73.3198 83.782 72.788 86.9141 71.6731V118.975Z" fill="white"/>
<path d="M45.8984 81.0547C39.3291 81.0547 32.722 82.7496 32.2703 86.5074C32.2416 86.6411 32.2269 86.7774 32.2266 86.9141V119.141C32.2266 123.188 39.093 125 45.8984 125C52.7039 125 59.5703 123.188 59.5703 119.141V86.9141C59.57 86.7774 59.5553 86.6411 59.5266 86.5074C59.0749 82.7496 52.4678 81.0547 45.8984 81.0547ZM45.8984 84.9609C51.2962 84.9609 54.5692 86.1921 55.4867 86.9141C54.5692 87.636 51.2962 88.8672 45.8984 88.8672C40.5006 88.8672 37.2276 87.636 36.3102 86.9141C37.2276 86.1921 40.5006 84.9609 45.8984 84.9609ZM55.6641 118.975C55.0895 119.654 51.7368 121.094 45.8984 121.094C40.06 121.094 36.7074 119.654 36.1328 118.975V91.2043C39.2649 92.3193 42.5747 92.8511 45.8984 92.7734C49.2221 92.8511 52.532 92.3193 55.6641 91.2043V118.975Z" fill="white"/>
<path d="M14.6484 90.8203C8.07905 90.8203 1.47199 92.5152 1.02031 96.2731C0.991569 96.4067 0.976906 96.543 0.976562 96.6797V119.141C0.976562 123.188 7.84302 125 14.6484 125C21.4539 125 28.3203 123.188 28.3203 119.141V96.6797C28.32 96.543 28.3053 96.4067 28.2766 96.2731C27.8249 92.5152 21.2178 90.8203 14.6484 90.8203ZM14.6484 94.7266C20.0462 94.7266 23.3192 95.9578 24.2367 96.6797C23.3192 97.4016 20.0462 98.6328 14.6484 98.6328C9.25062 98.6328 5.97763 97.4016 5.0602 96.6797C5.97763 95.9578 9.25064 94.7266 14.6484 94.7266ZM24.4141 118.975C23.8395 119.654 20.4868 121.094 14.6484 121.094C8.81004 121.094 5.4574 119.654 4.88281 118.975V100.97C8.01491 102.085 11.3247 102.617 14.6484 102.539C17.9721 102.617 21.282 102.085 24.4141 100.97V118.975Z" fill="white"/>
<path d="M88.3789 7.8125C88.8969 7.8125 89.3937 7.60673 89.76 7.24044C90.1263 6.87416 90.332 6.37738 90.332 5.85938C90.332 5.34137 90.1263 4.84459 89.76 4.47831C89.3937 4.11202 88.8969 3.90625 88.3789 3.90625H16.6016V1.95312C16.6016 1.43512 16.3958 0.938339 16.0295 0.572057C15.6632 0.205775 15.1664 0 14.6484 0C14.1304 0 13.6337 0.205775 13.2674 0.572057C12.9011 0.938339 12.6953 1.43512 12.6953 1.95312V63.4766C12.6953 63.9946 12.9011 64.4913 13.2674 64.8576C13.6337 65.2239 14.1304 65.4297 14.6484 65.4297C15.1664 65.4297 15.6632 65.2239 16.0295 64.8576C16.3958 64.4913 16.6016 63.9946 16.6016 63.4766V46.875H29.7852C30.3032 46.875 30.7999 46.6692 31.1662 46.3029C31.5325 45.9367 31.7383 45.4399 31.7383 44.9219C31.7383 44.4039 31.5325 43.9071 31.1662 43.5408C30.7999 43.1745 30.3032 42.9688 29.7852 42.9688H16.6016V37.1094H39.5508C40.0688 37.1094 40.5656 36.9036 40.9319 36.5373C41.2981 36.171 41.5039 35.6743 41.5039 35.1562C41.5039 34.6382 41.2981 34.1415 40.9319 33.7752C40.5656 33.4089 40.0688 33.2031 39.5508 33.2031H16.6016V27.3438H49.3164C49.8344 27.3438 50.3312 27.138 50.6975 26.7717C51.0638 26.4054 51.2695 25.9086 51.2695 25.3906C51.2695 24.8726 51.0638 24.3758 50.6975 24.0096C50.3312 23.6433 49.8344 23.4375 49.3164 23.4375H16.6016V17.5781H68.8477C69.3657 17.5781 69.8624 17.3723 70.2287 17.0061C70.595 16.6398 70.8008 16.143 70.8008 15.625C70.8008 15.107 70.595 14.6102 70.2287 14.2439C69.8624 13.8777 69.3657 13.6719 68.8477 13.6719H16.6016V7.8125H88.3789Z" fill="white"/>
<path d="M121.384 0.124031L113.572 3.05372C113.087 3.23609 112.695 3.60327 112.481 4.07461C112.267 4.54595 112.249 5.08292 112.431 5.56759C112.613 6.05227 112.979 6.44502 113.45 6.65959C113.921 6.87417 114.458 6.89302 114.943 6.71201L118.341 5.4379L108.755 26.5262C107.592 26.2469 106.371 26.3372 105.262 26.7846L100.218 18.3782C100.94 17.5069 101.395 16.4451 101.527 15.3211C101.659 14.1972 101.463 13.059 100.962 12.0442C100.461 11.0293 99.6773 10.1811 98.7051 9.60187C97.7328 9.02269 96.6137 8.73733 95.4829 8.78024C94.352 8.82316 93.2577 9.19251 92.3322 9.84371C91.4066 10.4949 90.6894 11.4001 90.267 12.45C89.8446 13.4999 89.7352 14.6496 89.9519 15.7604C90.1687 16.8711 90.7023 17.8954 91.4884 18.7095L77.8693 45.9476C76.9126 45.8205 75.9392 45.9406 75.0419 46.2964L66.8112 36.6867C67.2706 35.7203 67.4566 34.6465 67.3488 33.5819C67.2411 32.5172 66.8437 31.5025 66.2 30.6478C65.5562 29.793 64.6906 29.131 63.6971 28.7335C62.7036 28.3359 61.6202 28.2182 60.5645 28.393C59.5088 28.5677 58.5212 29.0283 57.7088 29.7248C56.8964 30.4212 56.2903 31.3269 55.9564 32.3435C55.6224 33.3601 55.5733 34.4488 55.8143 35.4913C56.0554 36.5339 56.5774 37.4905 57.3238 38.2573L46.7208 62.5647C45.259 62.3427 43.768 62.6957 42.5609 63.5495L36.8797 58.2471C37.1504 57.3048 37.1803 56.3096 36.9665 55.3527C36.7528 54.3958 36.3024 53.5079 35.6565 52.7703C35.0106 52.0326 34.19 51.4689 33.2697 51.1307C32.3494 50.7925 31.359 50.6907 30.3891 50.8345C29.4193 50.9784 28.5011 51.3634 27.7186 51.9542C26.9362 52.545 26.3145 53.3227 25.9106 54.2161C25.5066 55.1095 25.3334 56.0899 25.4067 57.0676C25.48 58.0453 25.7975 58.989 26.3301 59.8122L12.9954 80.9908C12.8582 81.2078 12.7652 81.4498 12.7217 81.7028C12.6781 81.9559 12.6849 82.215 12.7416 82.4654C12.7983 82.7158 12.9038 82.9526 13.0521 83.1622C13.2004 83.3718 13.3886 83.55 13.6059 83.6868C13.8231 83.8236 14.0653 83.9162 14.3184 83.9593C14.5715 84.0025 14.8306 83.9952 15.0809 83.9381C15.3312 83.881 15.5678 83.775 15.7771 83.6264C15.9865 83.4777 16.1644 83.2892 16.3008 83.0717L29.4365 62.2095C30.295 62.4914 31.2074 62.5695 32.1014 62.4378C32.9954 62.306 33.8464 61.968 34.5871 61.4504L40.2681 66.7527C39.985 67.7368 39.9648 68.7778 40.2094 69.7722C40.4541 70.7665 40.955 71.6793 41.6624 72.4197C42.3697 73.1601 43.2587 73.7021 44.2409 73.9919C45.223 74.2816 46.2639 74.3089 47.2598 74.071C48.2558 73.8331 49.172 73.3383 49.9171 72.636C50.6623 71.9337 51.2103 71.0484 51.5067 70.0682C51.8031 69.0881 51.8374 68.0474 51.6063 67.0499C51.3751 66.0523 50.8866 65.1328 50.1893 64.3829L60.8277 39.9939C61.0584 40.0227 61.2906 40.0378 61.5231 40.0391C62.3963 40.0381 63.2581 39.8405 64.0445 39.4608L72.0756 48.8377C71.531 49.781 71.2601 50.8573 71.2933 51.946C71.3266 53.0347 71.6626 54.0925 72.2638 55.0008C72.8649 55.909 73.7074 56.6317 74.6965 57.0876C75.6857 57.5436 76.7823 57.7148 77.8634 57.582C78.9444 57.4492 79.9671 57.0176 80.8164 56.3358C81.6658 55.654 82.3083 54.7489 82.6717 53.7222C83.0352 52.6954 83.1052 51.5877 82.8739 50.5233C82.6427 49.459 82.1193 48.4802 81.3625 47.6969L94.9816 20.4587C95.6105 20.5423 96.249 20.5192 96.8703 20.3904L102.284 29.4134C101.774 30.3388 101.524 31.3848 101.56 32.4408C101.596 33.4967 101.917 34.5233 102.488 35.4119C103.059 36.3006 103.86 37.0184 104.806 37.4892C105.752 37.9601 106.807 38.1666 107.861 38.0869C108.914 38.0073 109.927 37.6443 110.791 37.0365C111.655 36.4288 112.339 35.5987 112.77 34.6342C113.202 33.6697 113.364 32.6066 113.241 31.5573C113.118 30.508 112.713 29.5115 112.07 28.6732L123.848 2.7609C124.008 2.40924 124.06 2.01813 123.997 1.637C123.935 1.25587 123.761 0.901829 123.497 0.619625C123.233 0.337421 122.892 0.13972 122.516 0.0515082C122.14 -0.0367035 121.746 -0.0114659 121.384 0.124031ZM31.2497 58.5938C30.8634 58.5938 30.4858 58.4792 30.1646 58.2646C29.8434 58.05 29.5931 57.7449 29.4452 57.3881C29.2974 57.0312 29.2587 56.6385 29.3341 56.2596C29.4094 55.8807 29.5955 55.5327 29.8686 55.2596C30.1418 54.9864 30.4898 54.8004 30.8686 54.725C31.2475 54.6497 31.6402 54.6884 31.9971 54.8362C32.354 54.984 32.659 55.2343 32.8736 55.5555C33.0883 55.8767 33.2028 56.2543 33.2028 56.6406C33.2022 57.1585 32.9962 57.6549 32.6301 58.021C32.2639 58.3872 31.7675 58.5932 31.2497 58.5938ZM45.8981 70.3125C45.5118 70.3125 45.1342 70.198 44.813 69.9833C44.4918 69.7687 44.2415 69.4637 44.0937 69.1068C43.9458 68.7499 43.9072 68.3572 43.9825 67.9783C44.0579 67.5995 44.2439 67.2515 44.517 66.9783C44.7902 66.7052 45.1382 66.5191 45.5171 66.4438C45.8959 66.3684 46.2887 66.4071 46.6455 66.5549C47.0024 66.7028 47.3075 66.9531 47.5221 67.2743C47.7367 67.5955 47.8512 67.9731 47.8512 68.3594C47.8506 68.8772 47.6447 69.3736 47.2785 69.7398C46.9124 70.1059 46.4159 70.3119 45.8981 70.3125ZM61.5231 36.1328C61.1368 36.1328 60.7592 36.0183 60.438 35.8037C60.1168 35.5891 59.8665 35.284 59.7187 34.9271C59.5708 34.5702 59.5322 34.1775 59.6075 33.7987C59.6829 33.4198 59.8689 33.0718 60.142 32.7986C60.4152 32.5255 60.7632 32.3395 61.1421 32.2641C61.5209 32.1887 61.9137 32.2274 62.2705 32.3752C62.6274 32.5231 62.9325 32.7734 63.1471 33.0946C63.3617 33.4158 63.4762 33.7934 63.4762 34.1797C63.4756 34.6975 63.2697 35.194 62.9035 35.5601C62.5374 35.9263 62.0409 36.1322 61.5231 36.1328ZM77.1481 53.7109C76.7618 53.7109 76.3842 53.5964 76.063 53.3818C75.7418 53.1672 75.4915 52.8621 75.3437 52.5052C75.1958 52.1484 75.1572 51.7557 75.2325 51.3768C75.3079 50.9979 75.4939 50.6499 75.7671 50.3768C76.0402 50.1036 76.3882 49.9176 76.7671 49.8422C77.146 49.7669 77.5387 49.8055 77.8955 49.9534C78.2524 50.1012 78.5575 50.3515 78.7721 50.6727C78.9867 50.9939 79.1012 51.3715 79.1012 51.7578C79.1007 52.2756 78.8947 52.7721 78.5285 53.1382C78.1624 53.5044 77.6659 53.7104 77.1481 53.7109ZM95.7028 16.6016C95.3165 16.6016 94.9389 16.487 94.6177 16.2724C94.2965 16.0578 94.0462 15.7528 93.8984 15.3959C93.7505 15.039 93.7119 14.6463 93.7872 14.2674C93.8626 13.8885 94.0486 13.5405 94.3217 13.2674C94.5949 12.9942 94.9429 12.8082 95.3218 12.7328C95.7006 12.6575 96.0933 12.6962 96.4502 12.844C96.8071 12.9918 97.1122 13.2422 97.3268 13.5633C97.5414 13.8845 97.6559 14.2622 97.6559 14.6484C97.6553 15.1663 97.4494 15.6627 97.0832 16.0289C96.7171 16.395 96.2206 16.601 95.7028 16.6016ZM107.422 34.1797C107.035 34.1797 106.658 34.0651 106.336 33.8505C106.015 33.6359 105.765 33.3309 105.617 32.974C105.469 32.6171 105.431 32.2244 105.506 31.8455C105.581 31.4667 105.767 31.1187 106.04 30.8455C106.314 30.5724 106.662 30.3863 107.041 30.311C107.419 30.2356 107.812 30.2743 108.169 30.4221C108.526 30.5699 108.831 30.8203 109.046 31.1415C109.26 31.4627 109.375 31.8403 109.375 32.2266C109.374 32.7444 109.168 33.2408 108.802 33.607C108.436 33.9731 107.939 34.1791 107.422 34.1797Z" fill="white"/>
</g>
<defs>
<clipPath id="clip0_1045_98">
<rect width="125" height="125" fill="white"/>
</clipPath>
</defs>
</svg>
