<svg width="117" height="117" viewBox="0 0 117 117" fill="none" xmlns="http://www.w3.org/2000/svg">
<g clip-path="url(#clip0_1045_105)">
<mask id="mask0_1045_105" style="mask-type:luminance" maskUnits="userSpaceOnUse" x="0" y="0" width="117" height="117">
<path d="M0 0H117V117H0V0Z" fill="white"/>
</mask>
<g mask="url(#mask0_1045_105)">
<path d="M60.9375 112.126C32.7113 112.126 9.75 89.1599 9.75 60.9385C9.75 50.8716 12.6896 41.1168 18.2471 32.722C18.9832 31.6008 20.4994 31.2937 21.6255 32.0347C22.7467 32.7757 23.0539 34.2918 22.3129 35.413C17.2819 43.0034 14.625 51.832 14.625 60.9385C14.625 86.4737 35.4023 107.251 60.9375 107.251C86.4727 107.251 107.25 86.4737 107.25 60.9385C107.25 35.4033 86.4727 14.626 60.9375 14.626C51.831 14.626 43.0024 17.2829 35.412 22.3139C34.281 23.05 32.7746 22.7478 32.0336 21.6217C31.2926 20.5004 31.5997 18.9843 32.721 18.2433C41.1157 12.6858 50.8706 9.75104 60.9375 9.75104C89.1637 9.75104 112.125 32.7123 112.125 60.9385C112.125 89.1647 89.1637 112.126 60.9375 112.126Z" fill="white"/>
<path d="M60.9375 73.126C54.2197 73.126 48.75 67.6562 48.75 60.9385C48.75 54.2207 54.2197 48.751 60.9375 48.751C67.6553 48.751 73.125 54.2207 73.125 60.9385C73.125 67.6562 67.6553 73.126 60.9375 73.126ZM60.9375 53.626C56.9059 53.626 53.625 56.9069 53.625 60.9385C53.625 64.9701 56.9059 68.251 60.9375 68.251C64.9691 68.251 68.25 64.9701 68.25 60.9385C68.25 56.9069 64.9691 53.626 60.9375 53.626Z" fill="white"/>
<path d="M60.9394 63.376C60.3154 63.376 59.6915 63.1371 59.2137 62.6642L20.9306 24.3761H12.1897C11.5413 24.3761 10.9222 24.1177 10.4639 23.6595L0.713919 13.9094C0.0167951 13.2123 -0.19283 12.1691 0.18742 11.2575C0.562794 10.3459 1.45492 9.75112 2.43967 9.75112H9.75219V2.4386C9.75219 1.45385 10.3469 0.561722 11.2586 0.186348C12.1702 -0.193902 13.2134 0.0205977 13.9154 0.712847L23.6654 10.4628C24.1188 10.9211 24.3772 11.5402 24.3772 12.1886V20.9295L62.6652 59.2176C63.6158 60.1682 63.6158 61.7136 62.6652 62.6642C62.1874 63.1371 61.5634 63.376 60.9394 63.376ZM13.1988 19.5011H19.5022V13.1977L14.6272 8.32275V12.1886C14.6272 13.5341 13.5352 14.6261 12.1897 14.6261H8.32382L13.1988 19.5011Z" fill="white"/>
<path d="M60.9375 92.626C43.4655 92.626 29.25 78.4105 29.25 60.9385C29.25 56.2097 30.2981 51.6224 32.3651 47.3032C32.9452 46.0844 34.398 45.5725 35.6168 46.1575C36.8306 46.7377 37.3425 48.1953 36.7624 49.4091C35.0122 53.0654 34.125 56.9459 34.125 60.9385C34.125 75.7244 46.1516 87.751 60.9375 87.751C75.7234 87.751 87.75 75.7244 87.75 60.9385C87.75 46.1527 75.7234 34.126 60.9375 34.126C56.9449 34.126 53.0644 35.0133 49.4032 36.7683C48.1796 37.3387 46.7318 36.8317 46.1516 35.6178C45.5715 34.4039 46.0883 32.9463 47.3021 32.3662C51.6214 30.2992 56.2087 29.251 60.9375 29.251C78.4095 29.251 92.625 43.4665 92.625 60.9385C92.625 78.4105 78.4095 92.626 60.9375 92.626Z" fill="white"/>
<path d="M114.57 117.001C113.741 117.001 112.936 116.582 112.478 115.816L97.8532 91.4413C97.1609 90.2859 97.5363 88.7893 98.6868 88.0971C99.8422 87.3999 101.339 87.7802 102.031 88.9307L116.656 113.306C117.348 114.461 116.973 115.958 115.822 116.65C115.428 116.889 114.994 117.001 114.57 117.001Z" fill="white"/>
<path d="M7.31485 117.001C6.89073 117.001 6.45685 116.889 6.06198 116.655C4.9066 115.963 4.53608 114.466 5.22835 113.311L19.8534 88.9356C20.5456 87.7851 22.0422 87.4048 23.1976 88.1019C24.353 88.7942 24.7235 90.2908 24.0312 91.4462L9.40623 115.821C8.94798 116.582 8.13873 117.001 7.31485 117.001Z" fill="white"/>
</g>
</g>
<defs>
<clipPath id="clip0_1045_105">
<rect width="117" height="117" fill="white"/>
</clipPath>
</defs>
</svg>
