<svg width="122" height="122" viewBox="0 0 122 122" fill="none" xmlns="http://www.w3.org/2000/svg">
<g clip-path="url(#clip0_1045_75)">
<path d="M78.7099 90.5161C79.7967 90.5161 80.6776 89.6352 80.6776 88.5484C80.6776 87.4617 79.7967 86.5807 78.7099 86.5807C77.6232 86.5807 76.7422 87.4617 76.7422 88.5484C76.7422 89.6352 77.6232 90.5161 78.7099 90.5161Z" fill="white"/>
<path d="M106.258 90.5161C107.345 90.5161 108.225 89.6352 108.225 88.5484C108.225 87.4617 107.345 86.5807 106.258 86.5807C105.171 86.5807 104.29 87.4617 104.29 88.5484C104.29 89.6352 105.171 90.5161 106.258 90.5161Z" fill="white"/>
<mask id="path-4-inside-1_1045_75" fill="white">
<path d="M116.097 70.8386H110.947L110.609 68.1387C110.241 65.1906 107.723 62.9677 104.752 62.9677H80.216C77.2451 62.9677 74.7269 65.1909 74.3583 68.1387L74.0211 70.8386H68.8711C65.616 70.8386 62.968 73.4866 62.968 76.7418V78.7095C62.968 80.8796 64.7336 82.645 66.9034 82.645H69.6789C67.903 84.9994 66.9034 87.8917 66.9034 90.9314V100.355C66.9034 102.92 68.5487 105.107 70.8389 105.92V110.194H51.1614V105.92C53.4515 105.107 55.0968 102.92 55.0968 100.355V90.9314C55.0968 87.8917 54.0972 84.9994 52.3216 82.645H55.0968C57.2668 82.645 59.0323 80.8793 59.0323 78.7095V76.7418C59.0323 73.4866 56.3843 70.8386 53.1291 70.8386H47.9791L47.6417 68.1387C47.2733 65.1906 44.7549 62.9677 41.784 62.9677H17.2485C14.2776 62.9677 11.7594 65.1909 11.3908 68.1387L11.0534 70.8386H5.90318C2.64802 70.8386 0 73.4869 0 76.742V78.7098C0 80.8798 1.76566 82.6452 3.93545 82.6452H6.71095C4.93504 84.9997 3.93545 87.8919 3.93545 90.9317V100.355C3.93545 102.92 5.58079 105.107 7.87091 105.92V110.194H0V114.129H11.8064H15.7418H43.2902H47.2257H74.7741H78.7095H106.258H110.193H122V110.194H114.129V105.92C116.419 105.107 118.065 102.92 118.065 100.355V90.9317C118.065 87.8919 117.065 84.9997 115.289 82.6452H118.065C120.235 82.6452 122 80.8796 122 78.7098V76.742C122 73.4869 119.352 70.8386 116.097 70.8386ZM49.1936 102.322H39.0164C39.2349 101.707 39.3548 101.045 39.3548 100.355C39.3548 99.6649 39.2347 99.003 39.0164 98.387H51.1614V100.355C51.1614 101.44 50.2785 102.322 49.1936 102.322ZM9.83863 102.322C8.75374 102.322 7.87091 101.44 7.87091 100.355V98.387H20.0159C19.7974 99.003 19.6775 99.6649 19.6775 100.355C19.6775 101.045 19.7976 101.707 20.0159 102.322H9.83863ZM51.1614 94.4516H43.8428L46.7708 82.7391L46.7799 82.7453C49.5234 84.5741 51.1614 87.6343 51.1614 90.9317V94.4516ZM39.7863 94.4516H33.4516H25.5807H19.246L16.2944 82.6452H42.7376L39.7863 94.4516ZM12.2524 82.7453L12.2615 82.7393L15.1895 94.4516H7.87091V90.9314C7.87091 87.6344 9.50885 84.5741 12.2524 82.7453ZM23.613 100.355C23.613 99.2699 24.4958 98.387 25.5807 98.387H33.4516C34.5365 98.387 35.4193 99.2699 35.4193 100.355C35.4193 101.44 34.5365 102.322 33.4516 102.322H25.5807C24.4958 102.322 23.613 101.44 23.613 100.355ZM53.1291 74.7741C54.214 74.7741 55.0968 75.6569 55.0968 76.7418V78.7095H48.963L48.4709 74.7741H53.1291ZM17.2485 66.9032H41.784C42.7743 66.9032 43.6138 67.6442 43.7365 68.6269L44.9968 78.7095H14.0355L15.2958 68.6269C15.4187 67.6442 16.2582 66.9032 17.2485 66.9032ZM3.93545 76.742C3.93545 75.6571 4.81828 74.7743 5.90318 74.7743H10.5613L10.0693 78.7098H3.93545V76.742ZM11.8064 110.194V106.258H15.7418V110.194H11.8064ZM19.6775 110.194V106.258H25.5807H33.4516H39.3548V110.194H19.6775ZM43.2902 110.194V106.258H47.2257V110.194H43.2902ZM114.129 94.4516H96.4193H88.5484H70.8386V90.9314C70.8386 87.6344 72.4766 84.5739 75.2202 82.7451L75.3703 82.645H109.598L109.748 82.7451C112.491 84.5739 114.129 87.6341 114.129 90.9314V94.4516H114.129ZM98.387 100.355C98.387 101.44 97.5042 102.322 96.4193 102.322H88.5484C87.4635 102.322 86.5807 101.44 86.5807 100.355C86.5807 99.2699 87.4635 98.387 88.5484 98.387H96.4193C97.5042 98.387 98.387 99.2699 98.387 100.355ZM72.8064 102.322C71.7215 102.322 70.8386 101.44 70.8386 100.355V98.387H82.9836C82.7651 99.003 82.6452 99.6649 82.6452 100.355C82.6452 101.045 82.7653 101.707 82.9836 102.322H72.8064ZM80.2162 66.9032H104.752C105.742 66.9032 106.582 67.6442 106.704 68.6269L107.965 78.7095H77.0032L78.2635 68.6269C78.3864 67.6442 79.2259 66.9032 80.2162 66.9032ZM66.9032 76.742C66.9032 75.6571 67.786 74.7743 68.8709 74.7743H73.5291L73.037 78.7098H66.9032V76.742ZM74.7741 110.194V106.258H78.7095V110.194H74.7741ZM82.6452 110.194V106.258H88.5484H96.4193H102.322V110.194H82.6452ZM106.258 110.194V106.258H110.193V110.194H106.258ZM112.161 102.322H101.984C102.203 101.707 102.322 101.045 102.322 100.355C102.322 99.6649 102.202 99.003 101.984 98.387H114.129V100.355C114.129 101.44 113.246 102.322 112.161 102.322ZM118.065 78.7098H111.931L111.439 74.7743H116.097C117.182 74.7743 118.065 75.6571 118.065 76.742V78.7098Z"/>
</mask>
<path d="M116.097 70.8386H110.947L110.609 68.1387C110.241 65.1906 107.723 62.9677 104.752 62.9677H80.216C77.2451 62.9677 74.7269 65.1909 74.3583 68.1387L74.0211 70.8386H68.8711C65.616 70.8386 62.968 73.4866 62.968 76.7418V78.7095C62.968 80.8796 64.7336 82.645 66.9034 82.645H69.6789C67.903 84.9994 66.9034 87.8917 66.9034 90.9314V100.355C66.9034 102.92 68.5487 105.107 70.8389 105.92V110.194H51.1614V105.92C53.4515 105.107 55.0968 102.92 55.0968 100.355V90.9314C55.0968 87.8917 54.0972 84.9994 52.3216 82.645H55.0968C57.2668 82.645 59.0323 80.8793 59.0323 78.7095V76.7418C59.0323 73.4866 56.3843 70.8386 53.1291 70.8386H47.9791L47.6417 68.1387C47.2733 65.1906 44.7549 62.9677 41.784 62.9677H17.2485C14.2776 62.9677 11.7594 65.1909 11.3908 68.1387L11.0534 70.8386H5.90318C2.64802 70.8386 0 73.4869 0 76.742V78.7098C0 80.8798 1.76566 82.6452 3.93545 82.6452H6.71095C4.93504 84.9997 3.93545 87.8919 3.93545 90.9317V100.355C3.93545 102.92 5.58079 105.107 7.87091 105.92V110.194H0V114.129H11.8064H15.7418H43.2902H47.2257H74.7741H78.7095H106.258H110.193H122V110.194H114.129V105.92C116.419 105.107 118.065 102.92 118.065 100.355V90.9317C118.065 87.8919 117.065 84.9997 115.289 82.6452H118.065C120.235 82.6452 122 80.8796 122 78.7098V76.742C122 73.4869 119.352 70.8386 116.097 70.8386ZM49.1936 102.322H39.0164C39.2349 101.707 39.3548 101.045 39.3548 100.355C39.3548 99.6649 39.2347 99.003 39.0164 98.387H51.1614V100.355C51.1614 101.44 50.2785 102.322 49.1936 102.322ZM9.83863 102.322C8.75374 102.322 7.87091 101.44 7.87091 100.355V98.387H20.0159C19.7974 99.003 19.6775 99.6649 19.6775 100.355C19.6775 101.045 19.7976 101.707 20.0159 102.322H9.83863ZM51.1614 94.4516H43.8428L46.7708 82.7391L46.7799 82.7453C49.5234 84.5741 51.1614 87.6343 51.1614 90.9317V94.4516ZM39.7863 94.4516H33.4516H25.5807H19.246L16.2944 82.6452H42.7376L39.7863 94.4516ZM12.2524 82.7453L12.2615 82.7393L15.1895 94.4516H7.87091V90.9314C7.87091 87.6344 9.50885 84.5741 12.2524 82.7453ZM23.613 100.355C23.613 99.2699 24.4958 98.387 25.5807 98.387H33.4516C34.5365 98.387 35.4193 99.2699 35.4193 100.355C35.4193 101.44 34.5365 102.322 33.4516 102.322H25.5807C24.4958 102.322 23.613 101.44 23.613 100.355ZM53.1291 74.7741C54.214 74.7741 55.0968 75.6569 55.0968 76.7418V78.7095H48.963L48.4709 74.7741H53.1291ZM17.2485 66.9032H41.784C42.7743 66.9032 43.6138 67.6442 43.7365 68.6269L44.9968 78.7095H14.0355L15.2958 68.6269C15.4187 67.6442 16.2582 66.9032 17.2485 66.9032ZM3.93545 76.742C3.93545 75.6571 4.81828 74.7743 5.90318 74.7743H10.5613L10.0693 78.7098H3.93545V76.742ZM11.8064 110.194V106.258H15.7418V110.194H11.8064ZM19.6775 110.194V106.258H25.5807H33.4516H39.3548V110.194H19.6775ZM43.2902 110.194V106.258H47.2257V110.194H43.2902ZM114.129 94.4516H96.4193H88.5484H70.8386V90.9314C70.8386 87.6344 72.4766 84.5739 75.2202 82.7451L75.3703 82.645H109.598L109.748 82.7451C112.491 84.5739 114.129 87.6341 114.129 90.9314V94.4516H114.129ZM98.387 100.355C98.387 101.44 97.5042 102.322 96.4193 102.322H88.5484C87.4635 102.322 86.5807 101.44 86.5807 100.355C86.5807 99.2699 87.4635 98.387 88.5484 98.387H96.4193C97.5042 98.387 98.387 99.2699 98.387 100.355ZM72.8064 102.322C71.7215 102.322 70.8386 101.44 70.8386 100.355V98.387H82.9836C82.7651 99.003 82.6452 99.6649 82.6452 100.355C82.6452 101.045 82.7653 101.707 82.9836 102.322H72.8064ZM80.2162 66.9032H104.752C105.742 66.9032 106.582 67.6442 106.704 68.6269L107.965 78.7095H77.0032L78.2635 68.6269C78.3864 67.6442 79.2259 66.9032 80.2162 66.9032ZM66.9032 76.742C66.9032 75.6571 67.786 74.7743 68.8709 74.7743H73.5291L73.037 78.7098H66.9032V76.742ZM74.7741 110.194V106.258H78.7095V110.194H74.7741ZM82.6452 110.194V106.258H88.5484H96.4193H102.322V110.194H82.6452ZM106.258 110.194V106.258H110.193V110.194H106.258ZM112.161 102.322H101.984C102.203 101.707 102.322 101.045 102.322 100.355C102.322 99.6649 102.202 99.003 101.984 98.387H114.129V100.355C114.129 101.44 113.246 102.322 112.161 102.322ZM118.065 78.7098H111.931L111.439 74.7743H116.097C117.182 74.7743 118.065 75.6571 118.065 76.742V78.7098Z" fill="white" stroke="white" mask="url(#path-4-inside-1_1045_75)"/>
<mask id="path-5-inside-2_1045_75" fill="white">
<path d="M122 15.7421V13.7743C122 10.5192 119.352 7.87114 116.097 7.87114H110.947L110.609 5.17118C110.241 2.22316 107.723 0 104.752 0H80.216C77.2451 0 74.7269 2.22316 74.3583 5.17094L74.0211 7.87091H68.8711C65.616 7.87091 62.968 10.5189 62.968 13.7741V15.7418C62.968 17.9118 64.7336 19.6773 66.9034 19.6773H69.6789C67.903 22.0317 66.9034 24.924 66.9034 27.9637V37.387C66.9034 39.9521 68.5487 42.1393 70.8389 42.9519V47.2259H51.1614V42.9519C53.4515 42.1393 55.0968 39.9524 55.0968 37.387V27.9637C55.0968 24.924 54.0972 22.0317 52.3216 19.6773H55.0968C57.2668 19.6773 59.0323 17.9116 59.0323 15.7418V13.7741C59.0323 10.5189 56.3843 7.87091 53.1291 7.87091H47.9791L47.6417 5.17094C47.2731 2.22316 44.7547 0 41.7838 0H17.2485C14.2773 0 11.7592 2.22316 11.3908 5.17094L11.0534 7.87091H5.90318C2.64802 7.87091 0 10.5192 0 13.7741V15.7418C0 17.9118 1.76566 19.6773 3.93545 19.6773H6.71095C4.93504 22.0317 3.93545 24.924 3.93545 27.9637V37.387C3.93545 39.9521 5.58079 42.1393 7.87091 42.9519V47.2259H0V51.1614H11.8064H15.7418H43.2902H47.2257H74.7741H78.7095H106.258H110.193H122V47.2259H114.129V42.9519C116.419 42.1393 118.065 39.9524 118.065 37.387V27.9637C118.065 24.924 117.065 22.0317 115.289 19.6773H118.065C120.234 19.6775 122 17.9118 122 15.7421ZM49.1936 39.3548H39.0164C39.2349 38.7388 39.3548 38.0769 39.3548 37.387C39.3548 36.6972 39.2347 36.0353 39.0164 35.4193H51.1614V37.387C51.1614 38.4722 50.2785 39.3548 49.1936 39.3548ZM9.83863 39.3548C8.75374 39.3548 7.87091 38.4719 7.87091 37.387V35.4193H20.0159C19.7974 36.0353 19.6775 36.6972 19.6775 37.387C19.6775 38.0769 19.7976 38.7388 20.0159 39.3548H9.83863ZM51.1614 31.4839H42.598C45.6659 29.0036 47.89 25.5221 48.7719 21.5401C50.295 23.3037 51.1616 25.5702 51.1616 27.9637L51.1614 31.4839ZM31.4839 31.4839H27.5484C20.6216 31.4839 14.8749 26.3434 13.9171 19.6775H45.1155C44.1573 26.3434 38.4107 31.4839 31.4839 31.4839ZM16.4343 31.4839H7.87091V27.9637C7.87091 25.57 8.73777 23.3037 10.2606 21.5401C11.1425 25.5221 13.3664 29.0036 16.4343 31.4839ZM23.613 37.387C23.613 36.3021 24.4958 35.4193 25.5807 35.4193H27.5484H31.4839H33.4516C34.5365 35.4193 35.4193 36.3021 35.4193 37.387C35.4193 38.4719 34.5365 39.3548 33.4516 39.3548H25.5807C24.4958 39.3548 23.613 38.4722 23.613 37.387ZM53.1291 11.8064C54.214 11.8064 55.0968 12.6892 55.0968 13.7741V15.7418H48.963L48.4709 11.8064H53.1291ZM17.2485 3.93545H41.784C42.7743 3.93545 43.6138 4.67651 43.7365 5.65918L44.9968 15.7418H14.0355L15.2958 5.65918C15.4187 4.67651 16.2582 3.93545 17.2485 3.93545ZM3.93545 13.7741C3.93545 12.6892 4.81828 11.8064 5.90318 11.8064H10.5613L10.0693 15.7418H3.93545V13.7741ZM11.8064 47.2259V43.2905H15.7418V47.2259H11.8064ZM19.6775 47.2259V43.2905H25.5807H33.4516H39.3548V47.2259H19.6775ZM43.2902 47.2259V43.2905H47.2257V47.2259H43.2902ZM116.097 11.8064C117.182 11.8064 118.065 12.6892 118.065 13.7741V15.7418H111.931L111.439 11.8064H116.097ZM113.301 24.0171C113.838 25.2428 114.129 26.5817 114.129 27.964V31.4841H106.462C107.192 27.9602 109.833 25.0491 113.301 24.0171ZM102.467 31.4839H96.4193H88.5484H82.5004C81.7924 26.6494 78.5223 22.5259 74.0535 20.6943C74.4169 20.3638 74.8041 20.0549 75.2202 19.7776L75.3703 19.6775H109.598L109.748 19.7776C110.164 20.0549 110.551 20.3638 110.915 20.6943C106.445 22.5259 103.175 26.6494 102.467 31.4839ZM98.387 37.387C98.387 38.4719 97.5042 39.3548 96.4193 39.3548H88.5484C87.4635 39.3548 86.5807 38.4719 86.5807 37.387C86.5807 36.3021 87.4635 35.4193 88.5484 35.4193H96.4193C97.5042 35.4193 98.387 36.3021 98.387 37.387ZM72.8064 39.3548C71.7215 39.3548 70.8386 38.4719 70.8386 37.387V35.4193H82.9836C82.7651 36.0353 82.6452 36.6972 82.6452 37.387C82.6452 38.0769 82.7653 38.7388 82.9836 39.3548H72.8064ZM70.8386 27.9637C70.8386 26.5817 71.1298 25.2426 71.6664 24.0168C75.1346 25.0488 77.7762 27.9599 78.5058 31.4836H70.8386V27.9637ZM80.2162 3.93545H104.752C105.742 3.93545 106.582 4.67651 106.704 5.65918L107.965 15.7418H77.0032L78.2635 5.65918C78.3864 4.67651 79.2259 3.93545 80.2162 3.93545ZM66.9032 13.7741C66.9032 12.6892 67.786 11.8064 68.8709 11.8064H73.5291L73.037 15.7418H66.9032V13.7741ZM74.7741 47.2259V43.2905H78.7095V47.2259H74.7741ZM82.6452 47.2259V43.2905H88.5484H96.4193H102.322V47.2259H82.6452ZM106.258 47.2259V43.2905H110.193V47.2259H106.258ZM112.161 39.3548H101.984C102.203 38.7388 102.322 38.0769 102.322 37.387C102.322 36.6972 102.202 36.0353 101.984 35.4193H114.129V37.387C114.129 38.4722 113.246 39.3548 112.161 39.3548Z"/>
</mask>
<path d="M122 15.7421V13.7743C122 10.5192 119.352 7.87114 116.097 7.87114H110.947L110.609 5.17118C110.241 2.22316 107.723 0 104.752 0H80.216C77.2451 0 74.7269 2.22316 74.3583 5.17094L74.0211 7.87091H68.8711C65.616 7.87091 62.968 10.5189 62.968 13.7741V15.7418C62.968 17.9118 64.7336 19.6773 66.9034 19.6773H69.6789C67.903 22.0317 66.9034 24.924 66.9034 27.9637V37.387C66.9034 39.9521 68.5487 42.1393 70.8389 42.9519V47.2259H51.1614V42.9519C53.4515 42.1393 55.0968 39.9524 55.0968 37.387V27.9637C55.0968 24.924 54.0972 22.0317 52.3216 19.6773H55.0968C57.2668 19.6773 59.0323 17.9116 59.0323 15.7418V13.7741C59.0323 10.5189 56.3843 7.87091 53.1291 7.87091H47.9791L47.6417 5.17094C47.2731 2.22316 44.7547 0 41.7838 0H17.2485C14.2773 0 11.7592 2.22316 11.3908 5.17094L11.0534 7.87091H5.90318C2.64802 7.87091 0 10.5192 0 13.7741V15.7418C0 17.9118 1.76566 19.6773 3.93545 19.6773H6.71095C4.93504 22.0317 3.93545 24.924 3.93545 27.9637V37.387C3.93545 39.9521 5.58079 42.1393 7.87091 42.9519V47.2259H0V51.1614H11.8064H15.7418H43.2902H47.2257H74.7741H78.7095H106.258H110.193H122V47.2259H114.129V42.9519C116.419 42.1393 118.065 39.9524 118.065 37.387V27.9637C118.065 24.924 117.065 22.0317 115.289 19.6773H118.065C120.234 19.6775 122 17.9118 122 15.7421ZM49.1936 39.3548H39.0164C39.2349 38.7388 39.3548 38.0769 39.3548 37.387C39.3548 36.6972 39.2347 36.0353 39.0164 35.4193H51.1614V37.387C51.1614 38.4722 50.2785 39.3548 49.1936 39.3548ZM9.83863 39.3548C8.75374 39.3548 7.87091 38.4719 7.87091 37.387V35.4193H20.0159C19.7974 36.0353 19.6775 36.6972 19.6775 37.387C19.6775 38.0769 19.7976 38.7388 20.0159 39.3548H9.83863ZM51.1614 31.4839H42.598C45.6659 29.0036 47.89 25.5221 48.7719 21.5401C50.295 23.3037 51.1616 25.5702 51.1616 27.9637L51.1614 31.4839ZM31.4839 31.4839H27.5484C20.6216 31.4839 14.8749 26.3434 13.9171 19.6775H45.1155C44.1573 26.3434 38.4107 31.4839 31.4839 31.4839ZM16.4343 31.4839H7.87091V27.9637C7.87091 25.57 8.73777 23.3037 10.2606 21.5401C11.1425 25.5221 13.3664 29.0036 16.4343 31.4839ZM23.613 37.387C23.613 36.3021 24.4958 35.4193 25.5807 35.4193H27.5484H31.4839H33.4516C34.5365 35.4193 35.4193 36.3021 35.4193 37.387C35.4193 38.4719 34.5365 39.3548 33.4516 39.3548H25.5807C24.4958 39.3548 23.613 38.4722 23.613 37.387ZM53.1291 11.8064C54.214 11.8064 55.0968 12.6892 55.0968 13.7741V15.7418H48.963L48.4709 11.8064H53.1291ZM17.2485 3.93545H41.784C42.7743 3.93545 43.6138 4.67651 43.7365 5.65918L44.9968 15.7418H14.0355L15.2958 5.65918C15.4187 4.67651 16.2582 3.93545 17.2485 3.93545ZM3.93545 13.7741C3.93545 12.6892 4.81828 11.8064 5.90318 11.8064H10.5613L10.0693 15.7418H3.93545V13.7741ZM11.8064 47.2259V43.2905H15.7418V47.2259H11.8064ZM19.6775 47.2259V43.2905H25.5807H33.4516H39.3548V47.2259H19.6775ZM43.2902 47.2259V43.2905H47.2257V47.2259H43.2902ZM116.097 11.8064C117.182 11.8064 118.065 12.6892 118.065 13.7741V15.7418H111.931L111.439 11.8064H116.097ZM113.301 24.0171C113.838 25.2428 114.129 26.5817 114.129 27.964V31.4841H106.462C107.192 27.9602 109.833 25.0491 113.301 24.0171ZM102.467 31.4839H96.4193H88.5484H82.5004C81.7924 26.6494 78.5223 22.5259 74.0535 20.6943C74.4169 20.3638 74.8041 20.0549 75.2202 19.7776L75.3703 19.6775H109.598L109.748 19.7776C110.164 20.0549 110.551 20.3638 110.915 20.6943C106.445 22.5259 103.175 26.6494 102.467 31.4839ZM98.387 37.387C98.387 38.4719 97.5042 39.3548 96.4193 39.3548H88.5484C87.4635 39.3548 86.5807 38.4719 86.5807 37.387C86.5807 36.3021 87.4635 35.4193 88.5484 35.4193H96.4193C97.5042 35.4193 98.387 36.3021 98.387 37.387ZM72.8064 39.3548C71.7215 39.3548 70.8386 38.4719 70.8386 37.387V35.4193H82.9836C82.7651 36.0353 82.6452 36.6972 82.6452 37.387C82.6452 38.0769 82.7653 38.7388 82.9836 39.3548H72.8064ZM70.8386 27.9637C70.8386 26.5817 71.1298 25.2426 71.6664 24.0168C75.1346 25.0488 77.7762 27.9599 78.5058 31.4836H70.8386V27.9637ZM80.2162 3.93545H104.752C105.742 3.93545 106.582 4.67651 106.704 5.65918L107.965 15.7418H77.0032L78.2635 5.65918C78.3864 4.67651 79.2259 3.93545 80.2162 3.93545ZM66.9032 13.7741C66.9032 12.6892 67.786 11.8064 68.8709 11.8064H73.5291L73.037 15.7418H66.9032V13.7741ZM74.7741 47.2259V43.2905H78.7095V47.2259H74.7741ZM82.6452 47.2259V43.2905H88.5484H96.4193H102.322V47.2259H82.6452ZM106.258 47.2259V43.2905H110.193V47.2259H106.258ZM112.161 39.3548H101.984C102.203 38.7388 102.322 38.0769 102.322 37.387C102.322 36.6972 102.202 36.0353 101.984 35.4193H114.129V37.387C114.129 38.4722 113.246 39.3548 112.161 39.3548Z" fill="white" stroke="white" stroke-width="2" mask="url(#path-5-inside-2_1045_75)"/>
<path d="M0.5 55.5968H121.5V58.5323H0.5V55.5968Z" fill="white" stroke="black"/>
<path d="M0.5 118.565H121.5V121.5H0.5V118.565Z" fill="white" stroke="black"/>
</g>
<defs>
<clipPath id="clip0_1045_75">
<rect width="122" height="122" fill="white"/>
</clipPath>
</defs>
</svg>
