<svg width="72" height="72" viewBox="0 0 72 72" fill="none" xmlns="http://www.w3.org/2000/svg">
<path d="M55.125 34.875C55.125 34.5766 55.0065 34.2905 54.7955 34.0795C54.5845 33.8685 54.2984 33.75 54 33.75H49.5C49.2016 33.75 48.9155 33.8685 48.7045 34.0795C48.4935 34.2905 48.375 34.5766 48.375 34.875V54H46.125V41.625C46.125 41.3266 46.0065 41.0405 45.7955 40.8295C45.5845 40.6185 45.2984 40.5 45 40.5H40.5C40.2016 40.5 39.9155 40.6185 39.7045 40.8295C39.4935 41.0405 39.375 41.3266 39.375 41.625V54H37.125V46.125C37.125 45.8266 37.0065 45.5405 36.7955 45.3295C36.5845 45.1185 36.2984 45 36 45H31.5C31.2016 45 30.9155 45.1185 30.7045 45.3295C30.4935 45.5405 30.375 45.8266 30.375 46.125V54H28.125V30.375H25.875V55.125C25.875 55.4234 25.9935 55.7095 26.2045 55.9205C26.4155 56.1315 26.7016 56.25 27 56.25H58.5V54H55.125V34.875ZM52.875 36V43.875H50.625V36H52.875ZM50.625 46.125H52.875V54H50.625V46.125ZM43.875 42.75V47.25H41.625V42.75H43.875ZM41.625 49.5H43.875V54H41.625V49.5ZM34.875 47.25V49.5H32.625V47.25H34.875ZM32.625 51.75H34.875V54H32.625V51.75Z" fill="white"/>
<path d="M43.8755 34.2157V36H46.1255V31.5C46.1255 31.2016 46.0069 30.9155 45.7959 30.7045C45.585 30.4935 45.2988 30.375 45.0005 30.375H40.5005V32.625H42.2847L34.0801 40.8296L35.6708 42.4204L43.8755 34.2157Z" fill="white"/>
<path d="M64.125 9H13.5V3.375C13.5 3.07663 13.3815 2.79048 13.1705 2.5795C12.9595 2.36853 12.6734 2.25 12.375 2.25H7.875C6.38371 2.25179 4.954 2.84499 3.8995 3.8995C2.84499 4.954 2.25179 6.38371 2.25 7.875V55.125C2.25179 56.6163 2.84499 58.046 3.8995 59.1005C4.954 60.155 6.38371 60.7482 7.875 60.75H58.5V68.625C58.5 68.9234 58.6185 69.2095 58.8295 69.4205C59.0405 69.6315 59.3266 69.75 59.625 69.75H64.125C65.6163 69.7482 67.046 69.155 68.1005 68.1005C69.155 67.046 69.7482 65.6163 69.75 64.125V14.625C69.7482 13.1337 69.155 11.704 68.1005 10.6495C67.046 9.59499 65.6163 9.00179 64.125 9ZM4.5 7.875C4.5 6.97989 4.85558 6.12145 5.48851 5.48851C6.12145 4.85558 6.97989 4.5 7.875 4.5H11.25V49.5H7.875C6.65765 49.4984 5.4729 49.8933 4.5 50.625V7.875ZM7.875 58.5C6.97989 58.5 6.12145 58.1444 5.48851 57.5115C4.85558 56.8785 4.5 56.0201 4.5 55.125C4.5 54.2299 4.85558 53.3715 5.48851 52.7385C6.12145 52.1056 6.97989 51.75 7.875 51.75H12.375C12.6734 51.75 12.9595 51.6315 13.1705 51.4205C13.3815 51.2095 13.5 50.9234 13.5 50.625V11.25H64.125C65.0201 11.25 65.8785 11.6056 66.5115 12.2385C67.1444 12.8714 67.5 13.7299 67.5 14.625V59.6543C66.5321 58.9097 65.3462 58.5041 64.125 58.5H7.875ZM64.125 67.5H60.75V60.75H64.125C65.0201 60.75 65.8785 61.1056 66.5115 61.7385C67.1444 62.3715 67.5 63.2299 67.5 64.125C67.5 65.0201 67.1444 65.8785 66.5115 66.5115C65.8785 67.1444 65.0201 67.5 64.125 67.5Z" fill="white"/>
<path d="M25.875 27H28.125V25.875C29.0201 25.875 29.8786 25.5194 30.5115 24.8865C31.1444 24.2536 31.5 23.3951 31.5 22.5C31.5 21.6049 31.1444 20.7464 30.5115 20.1135C29.8786 19.4806 29.0201 19.125 28.125 19.125H25.875C25.5766 19.125 25.2905 19.0065 25.0795 18.7955C24.8685 18.5845 24.75 18.2984 24.75 18C24.75 17.7016 24.8685 17.4155 25.0795 17.2045C25.2905 16.9935 25.5766 16.875 25.875 16.875H28.125C28.4234 16.875 28.7095 16.9935 28.9205 17.2045C29.1315 17.4155 29.25 17.7016 29.25 18H31.5C31.5 17.1049 31.1444 16.2464 30.5115 15.6135C29.8786 14.9806 29.0201 14.625 28.125 14.625V13.5H25.875V14.625C24.9799 14.625 24.1214 14.9806 23.4885 15.6135C22.8556 16.2464 22.5 17.1049 22.5 18C22.5 18.8951 22.8556 19.7536 23.4885 20.3865C24.1214 21.0194 24.9799 21.375 25.875 21.375H28.125C28.4234 21.375 28.7095 21.4935 28.9205 21.7045C29.1315 21.9155 29.25 22.2016 29.25 22.5C29.25 22.7984 29.1315 23.0845 28.9205 23.2955C28.7095 23.5065 28.4234 23.625 28.125 23.625H25.875C25.5766 23.625 25.2905 23.5065 25.0795 23.2955C24.8685 23.0845 24.75 22.7984 24.75 22.5H22.5C22.5 23.3951 22.8556 24.2536 23.4885 24.8865C24.1214 25.5194 24.9799 25.875 25.875 25.875V27Z" fill="white"/>
<path d="M36 23.625H49.5V25.875H36V23.625Z" fill="white"/>
<path d="M36 19.125H40.5V21.375H36V19.125Z" fill="white"/>
<path d="M42.75 19.125H49.5V21.375H42.75V19.125Z" fill="white"/>
</svg>
