<svg width="66" height="64" viewBox="0 0 66 64" fill="none" xmlns="http://www.w3.org/2000/svg">
<path d="M54.4569 14.8075L54.3496 54.3242C54.3479 54.9352 54.8182 55.4357 55.3998 55.442L63.753 55.5327C64.3346 55.539 64.8076 55.0487 64.8092 54.4378L64.9165 14.9211C64.9181 14.3101 64.4479 13.8096 63.8662 13.8033L55.5131 13.7126C54.9315 13.7063 54.4585 14.1964 54.4569 14.8075ZM56.5604 15.9368L62.807 16.0046L62.7057 53.3085L56.4591 53.2407L56.5604 15.9368ZM39.9553 31.0383C39.3737 31.032 38.9008 31.5223 38.8991 32.1333L38.8393 54.1559C38.8377 54.7669 39.3079 55.2674 39.8896 55.2737L48.2428 55.3644C48.8245 55.3707 49.2974 54.8805 49.2991 54.2695L49.3588 32.2468C49.3605 31.6358 48.8903 31.1353 48.3086 31.129L39.9553 31.0383ZM47.1956 53.1402L40.9488 53.0724L41.0026 33.2625L47.2494 33.3303L47.1956 53.1402ZM24.4612 24.8857C23.8795 24.8794 23.4066 25.3696 23.4049 25.9806L23.3289 53.9873C23.3272 54.5983 23.7975 55.0988 24.3791 55.1051L32.7323 55.1958C33.3139 55.2022 33.7868 54.7119 33.7885 54.1009L33.8645 26.0942C33.8662 25.4832 33.3959 24.9827 32.8143 24.9764L24.4612 24.8857ZM31.685 52.9717L25.4384 52.9038L25.5084 27.1099L31.755 27.1777L31.685 52.9717ZM8.86872 54.9367L17.2218 55.0274C17.8035 55.0337 18.2764 54.5435 18.2781 53.9325L18.3139 40.7297C18.3156 40.1187 17.8453 39.6182 17.2637 39.6119L8.91057 39.5212C8.32891 39.5148 7.85598 40.0051 7.85432 40.6161L7.81848 53.8189C7.81682 54.4299 8.28693 54.9304 8.86872 54.9367ZM9.9578 41.7453L16.2044 41.8132L16.1746 52.8032L9.92797 52.7354L9.9578 41.7453ZM13.1062 32.5123C15.6627 32.5401 17.7486 30.3779 17.7559 27.6923C17.7579 26.964 17.6057 26.2716 17.3336 25.6475L25.7409 18.8772C26.5358 19.5639 27.5483 19.9822 28.6512 19.9942C30.5082 20.0143 32.1159 18.8785 32.8601 17.2264L39.5315 18.7712C39.5797 21.4073 41.6306 23.5561 44.1525 23.5835C46.7091 23.6112 48.7949 21.449 48.8022 18.7635C48.8045 17.9172 48.5998 17.1188 48.2389 16.4208L58.2113 7.18345L57.7453 10.2525C57.6538 10.8552 58.0453 11.4254 58.6198 11.5261C58.6748 11.5357 58.7295 11.5407 58.7838 11.5413C59.2937 11.5468 59.7429 11.162 59.8256 10.617L60.7557 4.49197C60.8054 4.16474 60.7124 3.83028 60.5026 3.58073C60.2928 3.33117 59.9885 3.19191 59.6726 3.20397L53.7662 3.4109C53.185 3.43129 52.7331 3.94279 52.7568 4.5535C52.7806 5.16422 53.2723 5.64489 53.8521 5.62242L56.8119 5.51875L46.838 14.7574C46.0857 14.1919 45.169 13.8534 44.179 13.8426C42.322 13.8225 40.7143 14.9583 39.9702 16.6104L33.2987 15.0656C33.2506 12.4295 31.1998 10.2807 28.6778 10.2533C26.1213 10.2256 24.0353 12.3878 24.0281 15.0733C24.0261 15.8016 24.1782 16.4941 24.4504 17.1181L16.0431 23.8884C15.2482 23.2019 14.2357 22.7836 13.1328 22.7716C10.5763 22.7438 8.49036 24.906 8.48307 27.5916C8.47578 30.2772 10.5496 32.4846 13.1062 32.5123ZM44.1728 16.0555C45.5679 16.0706 46.6996 17.2752 46.6956 18.7406C46.6916 20.206 45.5534 21.3859 44.1583 21.3708C42.7633 21.3556 41.6316 20.151 41.6355 18.6856C41.6395 17.2203 42.7778 16.0403 44.1728 16.0555ZM28.6715 12.4662C30.0665 12.4813 31.1983 13.6859 31.1943 15.1513C31.1903 16.6168 30.0521 17.7966 28.6571 17.7814C27.2621 17.7663 26.1303 16.5617 26.1343 15.0963C26.1384 13.631 27.2765 12.451 28.6715 12.4662ZM13.1266 24.9845C14.5217 24.9996 15.6534 26.2042 15.6494 27.6696C15.6455 29.1349 14.5072 30.3149 13.1122 30.2997C11.7172 30.2846 10.5854 29.08 10.5894 27.6146C10.5934 26.1492 11.7316 24.9693 13.1266 24.9845ZM64.2634 57.8636L5.59512 57.2265L5.74731 1.16695C5.74897 0.555961 5.27872 0.0554649 4.69707 0.0491488L1.22414 0.0114369C0.642487 0.00512089 0.169554 0.495376 0.167895 1.10637L0.00280256 61.9206C0.0011439 62.5315 0.471388 63.032 1.05304 63.0384L64.2475 63.7246C64.8291 63.7309 65.3021 63.2406 65.3037 62.6296L65.3136 58.9814C65.3153 58.3704 64.845 57.8699 64.2634 57.8636ZM63.2003 61.5004L2.11229 60.8371L2.27137 2.23561L3.63782 2.25044L3.48564 58.31C3.48398 58.921 3.95422 59.4215 4.53587 59.4278L63.2041 60.0649L63.2003 61.5004Z" fill="white"/>
</svg>
