<svg width="31" height="31" viewBox="0 0 31 31" fill="none" xmlns="http://www.w3.org/2000/svg">
<g clip-path="url(#clip0_560_20)">
<path d="M17.2179 23.3482C22.4492 24.5934 24.2898 20.119 23.3676 18.4489C22.9981 17.7824 19.6786 16.5024 19.5171 16.4404C18.0911 15.9211 17.5641 16.8899 16.576 18.1647C14.6785 17.2154 13.4062 16.4675 12.0991 14.3414C12.1727 14.2497 12.2709 14.1412 12.3445 14.0585C12.8017 13.547 13.6581 12.5938 13.0743 11.4274C12.5834 10.4496 12.3393 9.76762 12.1598 9.26775C11.6392 7.81979 11.2427 7.42712 9.44985 7.42712C7.5834 7.42712 6.13544 9.88 6.13544 11.9919C6.13544 16.6018 12.3329 22.1818 17.2179 23.3482ZM9.44985 9.36462C9.83735 9.36462 10.0337 9.37754 10.1319 9.39304C10.3411 9.83608 10.5529 10.7609 11.3331 12.1998C11.2117 12.6532 9.48731 13.7162 10.2869 15.0906C11.9208 17.8651 13.5561 18.8274 15.8991 19.9925C17.4595 20.6977 17.9581 19.4202 18.9475 18.2978C19.406 18.4838 20.9534 19.1684 21.6329 19.512C21.5721 20.8501 20.2805 22.085 17.6674 21.4624C13.1828 20.3916 8.07165 15.3463 8.07165 11.9906C8.07294 10.7144 8.96806 9.36462 9.44985 9.36462Z" fill="white"/>
<path d="M0.107197 29.8181C-0.0620118 30.4303 0.39653 31.0439 1.04107 31.0439C1.27357 31.0439 0.893821 31.1033 8.59474 29.1064C11.7296 30.7029 14.1127 30.6525 15.6343 30.7959C29.2679 30.7959 35.9458 14.1682 26.5631 4.49365C13.702 -7.93735 -6.32789 7.51099 2.05374 22.741L0.107197 29.8181ZM25.0209 5.70007C25.2443 6.10823 31.6536 11.8884 28.0847 20.5258C25.8876 25.8475 20.8178 29.127 15.137 28.8196C10.5154 28.5626 9.31936 26.9118 8.46815 27.1379L2.41928 28.7137L4.0274 22.8702C4.09715 22.6196 4.06228 22.3522 3.93311 22.1275C-3.79493 8.79232 13.68 -4.91872 25.0209 5.70007Z" fill="white"/>
</g>
<defs>
<clipPath id="clip0_560_20">
<rect width="31" height="31" fill="white"/>
</clipPath>
</defs>
</svg>
