<svg width="44" height="44" viewBox="0 0 44 44" fill="none" xmlns="http://www.w3.org/2000/svg">
<path d="M21.9998 44C27.8764 44 33.4008 41.7116 37.5562 37.5562C41.7116 33.401 44 27.8762 44 22C44 16.1236 41.7116 10.599 37.5562 6.4438C33.401 2.28858 27.8764 0 21.9998 0C9.86912 0 0 9.86912 0 22C0 27.8762 2.28839 33.401 6.44361 37.5562C10.599 41.7116 16.1236 44 21.9998 44Z" fill="black"/>
<path d="M0.76123 22C0.76123 16.3271 2.97064 10.9936 6.98204 6.98204C10.9936 2.97045 16.3271 0.76123 21.9999 0.76123C27.6732 0.76123 33.0065 2.97045 37.0182 6.98204C41.0295 10.9936 43.2389 16.3271 43.2389 22C43.2389 33.7114 33.711 43.2389 21.9999 43.2389C16.3269 43.2389 10.9936 41.0296 6.98204 37.0181C2.97064 33.0065 0.76123 27.673 0.76123 22Z" fill="#FEFEFE"/>
<path d="M21.9999 1.6366C10.7537 1.6366 1.63647 10.7537 1.63647 22C1.63647 33.2464 10.7537 42.3635 21.9999 42.3635C33.2465 42.3635 42.3635 33.2464 42.3635 22C42.3635 10.7537 33.2465 1.6366 21.9999 1.6366Z" fill="black"/>
<path d="M21.9998 35.0074C14.8163 35.0074 8.99243 29.1837 8.99243 22C8.99243 14.8163 14.8163 8.99243 21.9998 8.99243C29.1837 8.99243 35.0074 14.8163 35.0074 22C35.0074 29.1837 29.1837 35.0074 21.9998 35.0074Z" fill="#FEFEFE"/>
<path d="M9.82935 22H21.9999V9.82922C15.2783 9.82922 9.82935 15.2782 9.82935 22Z" fill="black"/>
<path d="M21.9998 22V34.1707C28.7215 34.1707 34.1705 28.7216 34.1705 22H21.9998Z" fill="black"/>
<path d="M12.4412 9.58938C12.0101 9.17023 11.3436 9.04411 10.7178 9.43197C10.8374 9.12216 10.7886 8.80603 10.7251 8.63166C10.4555 8.14023 10.3615 8.07856 10.1392 7.89227C9.42013 7.28869 8.66323 7.80397 8.12187 8.4491L5.50635 11.5659L9.61778 15.0158L12.376 11.7289C13.0062 10.978 13.1037 10.2334 12.4412 9.58938Z" fill="#FEFEFE"/>
<path d="M22.6812 8.10818L24.0931 4.36579V8.10818H25.1663V2.74841H23.554L22.0875 6.586H22.1028L20.6361 2.74841H19.0239V8.10818H20.097V4.36579L21.509 8.10818H22.6812Z" fill="#FEFEFE"/>
<path d="M37.1088 10.338L35.0887 13.1985L38.2208 11.7116L39.05 12.7358L34.12 15.1255L33.1466 13.9139L35.0859 11.0787L35.0744 11.0644L31.8979 12.3714L30.915 11.1676L34.2776 6.84229L35.107 7.86633L33.0013 10.621L36.2191 9.23929L37.1088 10.338Z" fill="#FEFEFE"/>
<path d="M8.6933 9.22037C8.87531 9.00334 9.28664 9.0121 9.55117 9.23416C9.84197 9.4782 9.84272 9.82414 9.6473 10.057L8.09419 11.9078L7.12231 11.0924L8.6933 9.22037Z" fill="black"/>
<path d="M11.4568 11.4042L9.81931 13.3556L8.79248 12.494L10.4432 10.5266C10.6297 10.3045 11.0453 10.2397 11.3257 10.475C11.6429 10.741 11.6744 11.1451 11.4568 11.4042Z" fill="black"/>
</svg>
