<svg width="39" height="39" viewBox="0 0 39 39" fill="none" xmlns="http://www.w3.org/2000/svg">
<path fill-rule="evenodd" clip-rule="evenodd" d="M19.2416 38.081C8.79383 38.0764 0.326172 29.6982 0.326172 19.3678C0.326172 9.03285 8.79829 0.654797 19.2416 0.659426C29.6989 0.659426 38.1664 9.03764 38.1664 19.3678C38.1664 29.703 29.6941 38.081 19.2416 38.081ZM3.72719 28.3434L4.06593 28.08C3.08755 26.2877 2.71128 25.0928 2.2831 23.7662C2.24557 23.6675 2.22193 23.6017 2.1796 23.5452C2.1515 23.6204 2.16555 23.6864 2.17018 23.771C2.44313 25.2199 3.10177 27.0451 3.72719 28.3434ZM19.5051 2.51765L22.078 17.4817L19.3874 19.0575L19.2979 2.52245C19.2979 2.32489 19.1663 2.32489 19.1381 2.52245L17.6186 18.2061L16.4896 17.5521L18.9076 2.52245C9.53679 2.57882 2.13728 10.1008 2.13728 19.3961C2.13728 22.3316 3.05928 25.4175 4.386 27.8213L16.1933 18.0037L17.3268 18.6528L4.07073 28.1787C3.75083 28.4047 3.8449 28.5128 4.1977 28.32L19.0017 19.7677V22.8444L4.70573 28.301C7.69758 33.1886 13.0039 36.3028 19.1944 36.3028C25.3709 36.3028 30.7667 33.184 33.7585 28.3057L19.4862 22.8537V19.7772L33.7255 27.9906C34.0502 28.1694 34.1442 28.0704 33.8387 27.8542L21.1609 18.6576L22.2946 18.0085L34.0926 27.8355C35.4473 25.4175 36.341 22.3268 36.341 19.3678C36.341 10.1901 28.7111 2.76696 19.5051 2.51765ZM37.2586 15.981C37.2913 16.0703 37.3196 16.1455 37.3621 16.1974C37.39 16.122 37.3665 16.0562 37.3621 15.9716C35.8047 7.46642 28.4287 1.11109 19.2792 1.11109C9.03818 1.11109 0.754192 9.41392 0.754192 19.6502C0.754192 22.0682 1.37068 24.3731 2.20787 26.4853C2.59374 27.459 3.82589 29.6795 4.12727 30.1169C4.19307 30.2108 4.22117 30.258 4.29639 30.3143C4.29176 30.2251 4.28714 30.1827 4.24018 30.0744C4.18827 29.9852 3.1393 27.9859 2.5324 26.4993C2.01494 25.2199 1.37068 22.6703 1.37068 19.716C1.37068 9.78556 9.42867 1.72741 19.3593 1.72741C24.5525 1.73204 29.4353 4.26759 32.4272 7.55123C34.6994 10.0443 35.8755 11.7192 37.2586 15.981ZM4.31061 28.4468L3.90144 28.5975C6.55933 33.678 12.1337 37.3708 19.2416 37.3708C29.3272 37.3754 37.39 29.2138 37.39 19.3678C37.39 16.9592 36.694 15.4822 36.3035 14.4146C36.0163 13.6149 35.4002 12.3869 35.1274 11.8837C35.0712 11.7846 35.0335 11.7425 34.9579 11.6812C34.9627 11.7708 34.9674 11.8223 35.0239 11.9212C35.2357 12.3398 35.7059 13.3937 36.04 14.452C36.4916 15.8587 36.7738 17.4344 36.7738 19.3678C36.7738 22.4397 35.8095 25.5821 34.3889 28.0846C34.4689 28.2916 34.3935 28.3951 34.1536 28.4611C31.0537 33.4474 25.5263 36.7121 19.2369 36.7074C13.3285 36.7074 8.60553 33.5416 7.11432 31.8996C5.90068 30.5638 5.00216 29.5712 4.31061 28.4468ZM18.3055 18.6059L19.0863 19.0621L19.1852 6.92069C19.1852 6.67618 19.1098 6.66659 19.0909 6.91126L18.3055 18.6059ZM19.6696 19.5232L30.174 25.6714C30.3621 25.7795 30.3998 25.7139 30.2211 25.5962L20.4694 19.0621L19.6696 19.5232ZM18.0702 19.0997L15.4312 21.259C15.2854 21.3813 15.3513 21.4378 15.5253 21.339L18.8183 19.5136L18.0702 19.0997Z" fill="white"/>
</svg>
