<svg width="57" height="13" viewBox="0 0 57 13" fill="none" xmlns="http://www.w3.org/2000/svg">
<path d="M46.1326 12.5478C44.5859 12.2499 43.039 11.0795 42.6805 9.13936C42.4037 7.56857 42.4037 5.72067 42.6805 3.97547C42.9263 2.47666 44.1451 0.926627 45.8969 0.577273C47.8328 0.187204 50.8448 0.197449 52.6577 0.546541C55.0035 1.00858 56.0996 2.24052 56.3352 3.79081C56.612 5.48479 56.612 7.06555 56.3352 9.21106C56.1407 10.8126 54.5938 12.2807 53.0265 12.5373C50.4039 12.9584 48.335 12.9686 46.1326 12.5478ZM48.2133 9.57986C48.8688 9.77503 49.9956 9.77503 50.7536 9.57986C51.2558 9.45667 51.6243 9.04611 51.7268 8.30694C51.8908 7.06476 51.8908 6.028 51.7268 4.75482C51.614 3.86173 51.3171 3.65659 50.6105 3.48191C49.9445 3.31748 49.1351 3.31748 48.3669 3.48191C47.7217 3.61535 47.2811 3.98493 47.1581 4.86777C47.0454 5.68915 46.9943 6.8696 47.1684 8.2657C47.2811 9.18979 47.6192 9.40544 48.2133 9.57986Z" fill="white"/>
<path d="M11.0968 0.67656L6.92785 0.687067C6.48726 0.687067 6.32319 1.21057 6.46656 1.7241L9.02777 10.7579C9.39654 12.0414 10.2159 12.6883 11.2608 12.6883H14.8461C15.6759 12.6883 16.5772 11.8667 16.8128 10.9429L19.2097 1.4982C19.3122 1.08738 19.4149 0.615356 19.0152 0.615356H16.2496C16.0957 0.615356 15.9728 0.810261 15.8808 1.21057L14.0265 9.17718C13.9361 9.51077 13.5607 9.5 13.49 9.18611L11.5169 1.19009C11.4451 0.902459 11.2711 0.67656 11.0968 0.67656Z" fill="white"/>
<path d="M41.657 1.205C41.657 0.835416 41.3601 0.650757 40.9709 0.650757H36.115C33.9129 0.650757 32.069 2.11883 31.6489 4.22337C31.3724 5.58874 31.2804 7.70352 31.6489 9.13036C32.3046 11.625 33.7286 12.7852 36.402 12.7954L40.9093 12.8159C41.3189 12.8159 41.493 12.6415 41.493 12.4466V10.3418C41.493 10.0749 41.3189 9.8183 41.0015 9.8183L38.1331 9.80806C37.1191 9.80806 36.5556 9.05865 36.4429 8.41195C36.2688 7.40565 36.3097 5.9993 36.4738 5.29113C36.6172 4.68515 37.2318 3.73059 38.1025 3.73059H41.0629C41.3907 3.73059 41.6544 3.5047 41.6544 3.23756L41.657 1.205Z" fill="white"/>
<path d="M30.429 3.5828L30.4392 0.954497C30.4392 0.769838 30.306 0.697867 30.1422 0.697867L22.6027 0.687622C21.3531 0.687622 20.3083 1.76563 20.3083 3.10027L20.3183 10.0196C20.3183 11.3335 21.4555 12.6886 22.5721 12.6886H29.9168C30.1524 12.6886 30.2856 12.5347 30.2856 12.3395L30.2955 10.0606C30.2955 9.8859 30.1011 9.73197 29.8757 9.73197L25.5018 9.71148C25.1946 9.71148 25.0817 9.59854 25.0817 9.4651V8.43857C25.0817 8.2639 25.2048 8.12021 25.4095 8.12021H28.7489C29.1381 8.12021 29.1997 8.0485 29.1997 7.76088V5.65634C29.1997 5.44069 29.1381 5.36898 28.8923 5.36898H25.5018C25.2048 5.36898 25.0921 5.30751 25.0921 5.14308V4.01385C25.0921 3.88041 25.1946 3.8087 25.3993 3.8087H30.1931C30.3367 3.8087 30.429 3.72648 30.429 3.5828Z" fill="white"/>
<path d="M4.75923 0.586792H1.10219C0.764087 0.586792 0.467131 0.915396 0.467131 1.19252L0.456909 12.2185C0.498058 12.5366 0.672091 12.7215 0.999974 12.7215L4.76971 12.7112C5.08711 12.7112 5.37384 12.4339 5.37384 12.1775L5.36362 1.15154C5.36362 0.843684 5.10755 0.586792 4.75923 0.586792Z" fill="white"/>
</svg>
