<svg width="47" height="45" viewBox="0 0 47 45" fill="none" xmlns="http://www.w3.org/2000/svg">
<path fill-rule="evenodd" clip-rule="evenodd" d="M33.1196 5.24893C30.2891 5.66284 27.2247 5.89632 23.8469 5.89632C20.4557 5.89632 17.2445 5.65629 14.4143 5.23516C17.1043 3.67958 20.4356 2.65216 23.7468 2.65216C27.1644 2.65216 30.3824 3.59987 33.1196 5.24893ZM20.8217 15.6261L20.1874 16.5876C20.7619 16.4936 21.1756 16.4668 21.8431 16.4936C22.511 16.5205 22.8779 16.8005 23.2584 17.1017L22.9649 17.5023C22.7912 17.4486 22.6241 17.3953 22.4575 17.3418C22.4304 17.6952 22.257 17.9889 22.0102 18.2165C21.7629 18.4433 21.3625 18.6835 20.9954 18.6767C20.628 18.6767 20.1678 18.4433 19.9072 18.1423C19.6471 17.8428 19.6401 17.3817 19.5066 16.9947C18.9792 16.8276 18.5052 16.4408 17.9377 16.4871C17.3705 16.5336 16.7694 16.901 16.3691 17.2887C15.9755 17.6753 15.875 18.25 15.628 18.7307C16.409 18.3895 17.3504 18.196 17.9913 18.2899C18.6253 18.3895 18.8724 19.017 19.2596 19.2842C19.6471 19.5517 20.7416 19.7852 21.1889 20.0585C21.6294 20.3256 21.8632 20.5261 21.8833 21.0003C21.8966 21.4736 21.4025 21.7545 20.9954 22.0948C20.588 22.4351 19.7336 23.0897 19.0864 23.2164C18.4384 23.3435 17.7711 23.0563 17.3238 22.9427C17.4705 23.2897 17.7711 23.6504 18.2649 23.8102C18.759 23.971 19.5803 23.9107 20.0743 23.8371C20.5682 23.7637 20.9419 23.7908 21.4362 23.7908C20.8285 24.1115 20.1475 24.3375 19.6134 24.6852C19.0792 25.0321 18.5587 25.8066 18.3385 26.3404C18.1179 26.8749 18.3385 27.2617 18.3385 27.7293C18.7791 27.3956 19.2199 26.9679 19.6803 26.7279C20.1409 26.4872 20.6016 26.4341 21.0758 26.2873C20.6684 26.8349 20.1276 27.2682 19.8542 27.9432C19.5803 28.6172 19.4132 29.5315 19.4534 30.2396C19.4868 30.9401 19.8804 31.5879 20.1211 32.0549C20.3611 32.5223 20.6481 32.6962 20.9152 33.0164C21.0821 32.2687 21.1356 31.3278 21.4158 30.6797C21.6963 30.0323 22.2168 29.3983 22.651 29.111C22.7912 29.6586 22.9714 30.2724 23.0714 30.8534C23.1717 31.4339 23.2117 32.0221 23.2051 32.6962C23.1984 33.3702 23.0448 34.1714 22.9649 34.9122C23.6457 34.7122 24.4069 34.5853 24.7804 34.2113C25.1543 33.8374 25.3882 33.5838 25.5948 33.0164C25.8019 32.4555 25.8886 31.6744 25.8886 30.9873C25.8886 30.2992 25.675 29.3576 25.5016 28.8638C26.0957 29.0907 26.6496 29.2849 27.0904 29.8318C27.5309 30.3792 27.7041 31.1939 27.8583 32.1014C28.305 31.8017 29.1461 31.0069 29.4268 30.2658C29.7002 29.5315 29.5534 28.6572 29.3933 27.8964C29.2335 27.1352 28.7324 26.4479 28.379 25.7533C28.8794 25.8201 29.6474 25.8269 30.1141 26.08C30.5818 26.3338 30.8552 26.6748 31.1294 27.2486C31.4493 26.5009 31.6297 25.3062 31.4028 24.4852C31.1759 23.6641 30.7019 22.8562 30.3083 22.2483C29.9141 21.6409 29.3796 21.3609 28.9463 20.8797C29.4401 20.7058 30.0407 20.6266 30.4348 20.6525C30.8283 20.6796 31.0557 20.8797 31.3694 21.0003C31.0223 20.3597 30.682 19.5845 30.2616 19.0841C29.8407 18.583 29.3933 18.4295 28.9194 18.0892C28.379 18.5431 27.7041 18.8368 27.1107 19.0642V18.3626C27.7041 18.1163 28.2255 17.9693 28.7058 17.4755C29.187 16.9809 29.6603 16.2073 29.9608 15.506C29.2933 15.4859 28.5854 15.6857 28.0313 15.9533C27.4772 16.2202 27.1369 16.6472 26.7629 17.0746L26.2359 16.6741C26.5678 16.2771 26.9759 15.8673 27.3494 15.599L27.3972 15.5985C27.784 15.3319 27.9913 15.1718 28.5791 15.0446C29.1666 14.918 30.0611 14.9376 30.8087 14.8845C30.5343 15.8794 30.2078 16.9003 29.4268 17.6617C30.0473 18.2224 30.8087 18.4494 31.2892 19.3438C31.77 20.2384 32.2704 21.5271 32.2173 22.8221C31.576 22.1544 31.2021 21.4734 30.4614 21.4266C31.3025 22.3946 31.97 23.3762 32.0834 24.6845C32.197 25.9929 31.7234 27.4218 31.0557 28.7635C30.8821 28.323 30.7685 27.8553 30.5547 27.448C30.3411 27.0413 29.9409 26.9476 29.6137 26.6538C30.1141 27.6487 30.2677 28.6567 30.1875 29.5642C30.1076 30.4654 29.6668 31.1532 29.1666 31.7742C28.6653 32.3952 27.7578 32.996 27.11 33.2227C27.0903 32.6354 27.1899 31.9013 27.1631 31.354C27.1366 30.8064 26.6692 30.2588 26.3958 30.112C26.3156 31.1133 26.4491 32.4017 26.1553 33.2295C25.8685 34.0573 25.4144 34.6245 24.7065 35.0585C23.9993 35.4925 22.8777 35.6059 22.0097 35.6795C22.1635 35.052 22.4173 34.4175 22.5038 33.7904C22.5907 33.1624 22.644 32.6083 22.604 32.0476C22.5641 31.487 22.4173 30.9999 22.3236 30.5058C22.1167 31.0667 21.8431 31.5335 21.7162 32.1881C21.5895 32.8427 21.5626 33.6902 21.5091 34.4376C20.9019 33.8369 20.1942 33.363 19.7469 32.6417C19.2994 31.9212 18.9259 31.2203 18.8588 30.3859C18.7924 29.5511 19.006 28.5163 19.3463 27.7557C18.9123 28.1295 18.4785 28.5029 18.0445 28.8769C17.8176 28.2428 17.604 27.5019 17.6241 26.9011C17.6372 26.3004 17.9644 25.7592 18.1514 25.352C18.3383 24.9449 18.6118 24.7383 18.8588 24.5646C18.432 24.4373 17.8978 24.4307 17.5238 24.1638C17.1499 23.8969 16.8496 23.5763 16.7028 23.2157C16.556 22.8548 16.4289 22.4019 16.4289 22.1009C17.0632 22.2411 18.1182 22.622 18.6386 22.5952C19.1594 22.5683 19.6868 22.121 20.2543 21.9074C20.014 21.7606 19.9205 21.6206 19.4802 21.5C19.0392 21.3801 18.365 21.3735 17.7709 21.4535C17.1768 21.5271 16.6561 21.8005 16.0084 21.9473C15.3606 22.0941 14.6798 22.3014 14.0058 22.1009C13.3383 21.9008 12.4635 21.2798 12.1431 20.7526C11.8227 20.2251 11.5156 19.5443 11.2085 18.9168C11.8294 19.2842 12.41 19.6978 13.1109 19.9313C13.812 20.1583 14.5667 20.3321 15.3606 20.3321C16.1484 20.3387 16.8699 20.1052 17.7174 20.058C18.5653 20.0115 19.0659 20.1379 19.5534 20.4055C20.0407 20.6724 20.3875 21.3334 20.6481 21.6402C20.8949 21.4535 21.0889 21.2527 21.2623 20.919C20.9419 20.532 19.8738 20.3321 19.3061 20.0849C18.7389 19.8376 18.6852 19.237 18.1247 19.0502C17.5706 18.863 17.0031 18.9635 16.4289 19.1365C15.8547 19.3104 15.3211 19.7649 14.7733 20.0645C14.9469 18.9364 15.2606 17.6685 15.8348 16.9206C16.409 16.1732 17.1567 15.9856 17.7975 15.8794C18.432 15.7724 19.0458 16.1129 19.5602 16.2466C19.7002 16.0524 19.8406 15.8589 19.9872 15.6591L20.8044 15.6523L20.8217 15.6261ZM14.7146 36.8984C13.6933 34.2285 12.4114 31.4445 10.7625 28.4941C9.1069 25.5365 7.32438 22.8463 5.58206 20.5832C5.53532 23.6944 6.26332 27.0986 7.87851 29.9892C9.54745 32.973 11.9376 35.3164 14.7146 36.8984ZM4.56097 17.5188C5.78235 12.1715 8.08558 8.71371 11.2098 5.9031L9.06693 5.37561C6.2028 7.95229 4.09332 11.0901 2.96519 15.977L4.56097 17.5188ZM17.2445 39.5356C22.5184 41.0711 26.5376 40.7771 30.5226 39.415L29.9482 41.5516C26.3104 42.8066 22.6587 43.0467 17.819 41.6783L17.2445 39.5356ZM43.1334 17.5326C41.9116 12.1853 39.6088 8.7268 36.4839 5.91664L38.6268 5.38893C41.4907 7.96584 43.6004 11.1032 44.7288 15.9901L43.1334 17.5326ZM32.4783 39.1549L31.364 43.0268C26.8444 44.5758 22.3051 44.9161 16.3634 43.2205L14.9548 39.0948C8.2389 35.8103 3.59948 28.9281 3.59948 20.9971C3.59948 20.543 3.62613 19.9555 3.65977 19.5018L0.915771 16.5108C2.31103 10.4696 4.91435 6.604 8.45251 3.4129L12.4978 4.2879C15.7093 2.10458 19.5947 0.842773 23.7536 0.842773C27.9191 0.842773 31.8041 2.13145 35.0417 4.3211L39.2414 3.43977C42.7792 6.6171 45.3829 10.4829 46.7784 16.5241L43.854 19.7624C43.8739 20.1826 43.8942 20.59 43.8942 20.9971C43.8942 28.9681 39.2277 35.8906 32.4783 39.1549ZM32.0913 38.7146L30.8629 42.5596C26.6575 44.0149 22.4317 44.322 16.8708 42.7267L15.4886 38.7679C8.80635 35.6301 4.15316 28.841 4.15316 20.9971C4.15316 20.4299 4.20035 19.8758 4.25342 19.3013L1.57671 16.3044C2.87848 10.6633 5.30816 7.04455 8.61284 4.07406L12.5915 4.90797C15.7492 2.69868 19.608 1.40345 23.7468 1.40345C27.9191 1.40345 31.8041 2.719 34.9884 4.94884L39.0807 4.10071C42.3851 7.05832 44.8155 10.6762 46.1173 16.3173L43.2868 19.4481C43.3195 19.9623 43.3401 20.483 43.3401 20.9971C43.3401 28.801 38.7273 35.5634 32.0913 38.7146ZM33.1131 36.8984C34.1342 34.2285 35.4161 31.4445 37.0647 28.4941C38.7207 25.5365 40.503 22.8463 42.2449 20.5832C42.2919 23.6944 41.5641 27.0986 39.9489 29.9892C38.28 32.973 35.8896 35.3164 33.1131 36.8984ZM41.9116 18.7544C39.8419 21.2304 37.4856 24.3481 35.5696 27.8061C33.6003 31.3043 32.0579 34.7424 31.0295 37.7996C26.4976 39.7756 21.1966 39.8694 16.4436 37.833C15.4421 34.7623 13.9066 31.3111 11.9708 27.7995C10.0013 24.3481 7.61838 21.2304 5.54864 18.7404C6.16284 13.6535 8.91316 9.19422 12.8587 6.27003C16.0364 6.87135 19.8413 7.24529 23.8469 7.24529C27.8522 7.24529 31.6171 6.9181 34.7885 6.31722C38.7142 9.30781 41.3708 13.6135 41.9116 18.7544ZM12.7173 20.4789C13.5318 20.7058 14.3598 20.94 15.0804 20.94C15.8018 20.94 16.6563 20.7596 17.2167 20.6665C17.7779 20.5728 18.1315 20.6397 18.5318 20.6927C18.1581 20.7864 17.751 20.8732 17.1501 21.0068C16.5493 21.1401 15.3877 21.5806 14.6134 21.4876C13.8389 21.3939 13.2249 20.9931 12.7173 20.4789ZM27.3107 17.0478L27.4575 17.669C27.731 17.6157 28.1855 17.4283 28.4786 17.1686C28.7731 16.9082 28.9463 16.5476 29.1666 16.1272C28.8263 16.1739 28.4255 16.3004 28.1514 16.474C27.878 16.6472 27.2642 17.0209 27.3107 17.0478ZM20.5345 17.1882C20.5345 17.4682 20.775 17.7024 21.0487 17.7024C21.3294 17.7024 21.5628 17.4682 21.5628 17.1882H21.9034C21.9099 17.6624 21.5231 18.0427 21.0487 18.0427C20.588 18.0427 20.2008 17.6624 20.2008 17.1882H20.5345ZM27.3907 19.4716L27.2103 20.3125C27.4713 20.793 27.8111 21.2338 27.9579 21.7007C28.1049 22.1682 28.1383 22.6489 28.1252 22.9761C28.1114 23.3033 27.9654 23.4632 27.8983 23.67C27.6975 23.2764 27.598 22.7157 27.2839 22.382C26.9702 22.0483 26.4766 21.7814 25.9419 21.6678C26.1625 22.3086 26.3427 23.0095 26.2492 23.637C26.156 24.2641 25.862 24.9521 25.2947 25.3258C25.4081 24.8051 25.4948 24.211 25.348 23.7703C25.2013 23.3302 24.7539 22.9296 24.4536 22.5021C24.4001 22.9761 24.4468 23.4365 24.3068 23.8371C24.1664 24.2379 23.8392 24.5251 23.6123 24.832C23.7726 24.2314 23.7123 23.6969 23.5856 23.3834L22.9581 23.7371C23.0315 24.0844 23.1582 24.3178 23.0182 24.6714C22.8847 25.0255 22.4107 25.4261 22.1436 25.7533C22.6643 25.7797 23.1049 25.8335 23.699 25.5194C24.2931 25.2059 24.4866 24.9119 24.8007 24.4714C24.7336 24.8255 24.7271 25.1725 24.52 25.5194C24.3134 25.8669 24.133 26.1737 23.9194 26.5143C24.8339 26.3738 25.6481 26.027 26.0155 25.6C26.3827 25.1725 26.6234 24.8051 26.7697 24.3375C26.9167 23.8705 26.87 23.4365 26.8765 22.9361C27.15 23.3232 27.2439 23.6569 27.3376 24.104C27.4306 24.5513 27.4175 25.1592 27.4112 25.6334C27.8183 25.0255 28.4124 24.3244 28.6256 23.6169C28.8392 22.9095 28.7731 22.1815 28.5854 21.4076C28.3987 20.6331 27.9048 20.0984 27.3907 19.4716ZM21.8363 19.8652C22.0368 19.8717 22.2705 19.8112 22.5178 19.9189C22.7644 20.025 23.0247 20.399 23.2916 20.5457C23.559 20.6927 23.7859 20.7465 24.046 20.8264C23.8661 20.9736 23.5788 21.0337 23.2916 20.9531C23.0048 20.8732 22.7111 20.4324 22.464 20.252C22.2168 20.0718 22.0434 20.0187 21.8363 19.8652Z" fill="black"/>
<path fill-rule="evenodd" clip-rule="evenodd" d="M27.3972 15.5985L27.5541 15.4904L27.3879 15.5988L27.3972 15.5985ZM33.1196 5.24893C30.2891 5.66283 27.2247 5.89631 23.8468 5.89631C20.4557 5.89631 17.2445 5.65628 14.4142 5.23515C17.1042 3.67957 20.4356 2.65215 23.7468 2.65215C27.1644 2.65215 30.3823 3.59986 33.1196 5.24893ZM14.7145 36.8984C13.6932 34.2285 12.4113 31.4445 10.7625 28.4941C9.10685 25.5365 7.32434 22.8462 5.58202 20.5832C5.53527 23.6944 6.26327 27.0986 7.87847 29.9892C9.5474 32.973 11.9376 35.3164 14.7145 36.8984ZM4.56092 17.5188C5.78231 12.1715 8.08553 8.7137 11.2098 5.90309L9.06688 5.3756C6.20276 7.95228 4.09327 11.0901 2.96514 15.977L4.56092 17.5188ZM17.2445 39.5356C22.5184 41.0711 26.5375 40.7771 30.5226 39.415L29.9481 41.5516C26.3104 42.8066 22.6586 43.0467 17.8189 41.6783L17.2445 39.5356ZM43.1334 17.5326C41.9116 12.1852 39.6088 8.7268 36.4838 5.91664L38.6268 5.38893C41.4907 7.96583 43.6004 11.1032 44.7287 15.9901L43.1334 17.5326ZM32.0912 38.7146L30.8629 42.5596C26.6574 44.0149 22.4317 44.322 16.8708 42.7267L15.4886 38.7679C8.8063 35.6301 4.15311 28.841 4.15311 20.9971C4.15311 20.4299 4.20031 19.8758 4.25337 19.3013L1.57666 16.3044C2.87843 10.6633 5.30811 7.04454 8.61279 4.07406L12.5915 4.90796C15.7492 2.69867 19.608 1.40344 23.7468 1.40344C27.919 1.40344 31.804 2.71899 34.9883 4.94883L39.0806 4.1007C42.3851 7.05831 44.8154 10.6762 46.1172 16.3173L43.2867 19.4481C43.3195 19.9622 43.34 20.483 43.34 20.9971C43.34 28.801 38.7272 35.5634 32.0912 38.7146ZM33.113 36.8984C34.1341 34.2285 35.416 31.4445 37.0646 28.4941C38.7207 25.5365 40.503 22.8462 42.2449 20.5832C42.2918 23.6944 41.564 27.0986 39.9488 29.9892C38.2799 32.973 35.8895 35.3164 33.113 36.8984ZM41.9116 18.7544C39.8418 21.2304 37.4855 24.3481 35.5696 27.8061C33.6003 31.3043 32.0578 34.7424 31.0295 37.7996C26.4976 39.7756 21.1965 39.8693 16.4435 37.833C15.4421 34.7623 13.9066 31.3111 11.9708 27.7995C10.0013 24.3481 7.61834 21.2304 5.5486 18.7404C6.16279 13.6534 8.91311 9.19422 12.8586 6.27002C16.0364 6.87135 19.8412 7.24528 23.8468 7.24528C27.8522 7.24528 31.617 6.91809 34.7885 6.31722C38.7141 9.3078 41.3708 13.6135 41.9116 18.7544ZM27.7761 15.3456C27.9859 15.2192 28.2058 15.1252 28.579 15.0446C29.1666 14.918 30.061 14.9376 30.8087 14.8845C30.5343 15.8794 30.2078 16.9003 29.4267 17.6617C30.0472 18.2224 30.8087 18.4493 31.2892 19.3438C31.7699 20.2384 32.2703 21.5271 32.2172 22.8221C31.5759 22.1544 31.202 21.4733 30.4614 21.4266C31.3025 22.3946 31.97 23.3762 32.0833 24.6845C32.1969 25.9929 31.7234 27.4218 31.0557 28.7635C30.882 28.323 30.7685 27.8553 30.5546 27.448C30.341 27.0413 29.9409 26.9476 29.6137 26.6538C30.1141 27.6487 30.2676 28.6567 30.1875 29.5642C30.1075 30.4654 29.6668 31.1532 29.1666 31.7742C28.6653 32.3951 27.7578 32.996 27.1099 33.2227C27.0903 32.6354 27.1899 31.9013 27.163 31.354C27.1366 30.8064 26.6692 30.2588 26.3957 30.112C26.3156 31.1132 26.449 32.4017 26.1552 33.2295C25.8685 34.0573 25.4144 34.6245 24.7065 35.0585C23.9992 35.4925 22.8777 35.6059 22.0097 35.6795C22.1634 35.052 22.4172 34.4175 22.5037 33.7904C22.5907 33.1624 22.6439 32.6083 22.604 32.0476C22.564 31.487 22.4172 30.9999 22.3235 30.5058C22.1167 31.0667 21.843 31.5335 21.7161 32.1881C21.5894 32.8427 21.5626 33.6901 21.509 34.4376C20.9019 33.8369 20.1942 33.363 19.7469 32.6417C19.2993 31.9212 18.9258 31.2203 18.8588 30.3859C18.7924 29.5511 19.006 28.5162 19.3463 27.7557C18.9123 28.1294 18.4785 28.5029 18.0445 28.8769C17.8176 28.2428 17.604 27.5019 17.624 26.9011C17.6371 26.3004 17.9643 25.7592 18.1513 25.352C18.3383 24.9449 18.6117 24.7383 18.8588 24.5646C18.432 24.4373 17.8977 24.4307 17.5238 24.1638C17.1499 23.8969 16.8495 23.5763 16.7028 23.2157C16.556 22.8548 16.4289 22.4019 16.4289 22.1009C17.0631 22.2411 18.1181 22.622 18.6386 22.5952C19.1593 22.5683 19.6868 22.121 20.2542 21.9073C20.014 21.7606 19.9205 21.6206 19.4802 21.5C19.0392 21.3801 18.3649 21.3735 17.7708 21.4535C17.1767 21.5271 16.656 21.8005 16.0084 21.9473C15.3606 22.0941 14.6798 22.3014 14.0057 22.1009C13.3382 21.9008 12.4635 21.2798 12.143 20.7526C11.8226 20.2251 11.5155 19.5443 11.2084 18.9168C11.8294 19.2842 12.41 19.6978 13.1109 19.9313C13.812 20.1582 14.5666 20.3321 15.3606 20.3321C16.1484 20.3387 16.8699 20.1052 17.7173 20.058C18.5652 20.0115 19.0658 20.1379 19.5533 20.4055C20.0406 20.6724 20.3875 21.3333 20.648 21.6402C20.8949 21.4535 21.0888 21.2527 21.2622 20.919C20.9418 20.532 19.8738 20.3321 19.3061 20.0849C18.7389 19.8376 18.6851 19.237 18.1247 19.0502C17.5705 18.863 17.0031 18.9635 16.4289 19.1365C15.8546 19.3103 15.321 19.7649 14.7732 20.0645C14.9469 18.9364 15.2605 17.6685 15.8348 16.9206C16.409 16.1732 17.1566 15.9856 17.7975 15.8794C18.432 15.7724 19.0457 16.1129 19.5601 16.2466C19.7001 16.0524 19.8406 15.8589 19.9871 15.6591L20.0031 15.6588L17.6338 9.86509C18.0075 9.86509 18.595 9.99877 18.8619 10.3727C19.0959 10.6933 19.1557 11.1741 18.9958 11.5471C19.2562 11.4676 20.4376 10.8002 20.7246 12.1884C21.0118 13.5769 19.9234 13.4699 19.5764 13.6306C19.9234 14.1376 20.4042 14.645 21.3589 14.6181C22.3138 14.5921 22.7142 13.8174 23.1947 13.0968C22.527 13.203 21.4657 13.2829 21.4923 12.1347C21.519 10.9864 22.5807 11.0671 23.0612 11.1741C22.9813 10.8801 22.6139 10.6125 22.7677 10.0518C22.9278 9.49115 23.4419 9.27799 23.9024 9.27799C24.363 9.27799 24.8169 9.49115 24.9707 10.0518C25.1308 10.6125 24.7568 10.8801 24.6767 11.1741C25.1576 11.0671 26.2189 10.9864 26.2456 12.1347C26.2724 13.2829 25.2109 13.203 24.5432 13.0968C25.0237 13.8174 25.4243 14.5921 26.3788 14.6181C27.3337 14.645 27.8142 14.1376 28.162 13.6306C27.8142 13.4699 26.7263 13.5769 27.0129 12.1884C27.3003 10.8002 28.482 11.4676 28.7421 11.5471C28.5822 11.1741 28.649 10.6933 28.876 10.3727C29.1429 10.0053 29.73 9.86509 30.1044 9.86509L27.8879 15.2727L27.7761 15.3456ZM20.7993 15.6602L20.1874 16.5876C20.7621 16.4939 21.1755 16.467 21.843 16.4939C22.5112 16.5205 22.8781 16.8005 23.2586 17.1017L22.965 17.5023C22.7912 17.4488 22.6241 17.3955 22.4574 17.3418C22.4306 17.6952 22.2571 17.9889 22.0103 18.2165C21.7629 18.4433 21.3625 18.6835 20.9953 18.677C20.6282 18.677 20.168 18.4432 19.9072 18.1422C19.647 17.8428 19.64 17.3817 19.5066 16.9947C18.9791 16.8276 18.5051 16.4408 17.9379 16.4873C17.3705 16.5336 16.7694 16.901 16.3692 17.2887C15.9754 17.6755 15.875 18.25 15.6279 18.7307C16.409 18.3897 17.3504 18.1962 17.9912 18.2902C18.6253 18.3897 18.8723 19.0173 19.2598 19.2842C19.647 19.5517 20.7418 19.7852 21.1889 20.0584C21.6296 20.3256 21.8631 20.5261 21.8832 21.0003C21.8968 21.4738 21.4025 21.7545 20.9953 22.0948C20.5882 22.4351 19.7335 23.0899 19.0864 23.2163C18.4385 23.3435 17.7713 23.0562 17.3239 22.9427C17.4705 23.2897 17.7713 23.6503 18.2651 23.8104C18.759 23.9712 19.5802 23.9107 20.0745 23.8373C20.5683 23.7637 20.9418 23.7908 21.4361 23.7908C20.8285 24.1114 20.1477 24.3377 19.6134 24.6852C19.0791 25.0321 18.5589 25.8066 18.3385 26.3404C18.1181 26.8749 18.3385 27.2617 18.3385 27.7293C18.779 27.3956 19.2198 26.9679 19.6802 26.7281C20.1409 26.4874 20.6015 26.4341 21.0757 26.2873C20.6686 26.8349 20.1278 27.2682 19.8541 27.9432C19.5802 28.6172 19.4133 29.5315 19.4533 30.2398C19.4867 30.9403 19.8803 31.5879 20.121 32.0551C20.3613 32.5225 20.648 32.6961 20.9152 33.0166C21.082 32.2687 21.1356 31.3278 21.416 30.6797C21.6965 30.0325 22.2169 29.3985 22.6509 29.1112C22.7912 29.6586 22.9714 30.2726 23.0714 30.8536C23.1717 31.4339 23.2116 32.0223 23.2051 32.6962C23.1985 33.3704 23.045 34.1713 22.965 34.9122C23.6454 34.7119 24.4066 34.585 24.7803 34.2115C25.1542 33.8376 25.388 33.584 25.5948 33.0166C25.8016 32.4554 25.8883 31.6746 25.8883 30.9872C25.8883 30.2992 25.6749 29.3576 25.5013 28.864C26.0954 29.0907 26.6495 29.2849 27.0903 29.832C27.5309 30.3792 27.704 31.1939 27.8583 32.1014C28.3047 31.8017 29.146 31.0071 29.4267 30.266C29.7002 29.5315 29.5534 28.6572 29.3933 27.8966C29.2334 27.1352 28.7324 26.4479 28.379 25.7533C28.8794 25.8203 29.6473 25.8269 30.1141 26.08C30.5817 26.3338 30.8552 26.6748 31.1291 27.2488C31.4493 26.5012 31.6297 25.3064 31.4028 24.4851C31.1758 23.6641 30.7016 22.8562 30.3083 22.2483C29.914 21.6409 29.3795 21.3609 28.946 20.8797C29.4398 20.7058 30.0405 20.6266 30.4347 20.6525C30.8281 20.6796 31.0557 20.8797 31.3693 21.0003C31.0223 20.3599 30.682 19.5847 30.2615 19.0841C29.8406 18.583 29.3933 18.4295 28.9191 18.0892C28.379 18.5433 27.704 18.8368 27.1106 19.0644V18.3626C27.704 18.1163 28.2254 17.9693 28.7055 17.4754C29.1869 16.9809 29.6602 16.2073 29.9608 15.506C29.293 15.4859 28.5854 15.6857 28.0312 15.9533C27.4771 16.2202 27.1366 16.6474 26.7629 17.0749L26.2356 16.6741C26.5434 16.306 26.9164 15.9273 27.2667 15.6602H20.7993ZM12.7173 20.4791C13.532 20.7058 14.3598 20.94 15.0806 20.94C15.8018 20.94 16.6565 20.7596 17.2169 20.6668C17.7778 20.5728 18.1317 20.6397 18.5318 20.693C18.1583 20.7867 17.7512 20.8732 17.1501 21.0068C16.5492 21.1401 15.3877 21.5808 14.6134 21.4876C13.8389 21.3939 13.2249 20.9931 12.7173 20.4791ZM27.3105 17.048L27.4575 17.669C27.7309 17.6159 28.1852 17.4282 28.4786 17.1686C28.773 16.9082 28.946 16.5476 29.1666 16.1272C28.8261 16.1739 28.4253 16.3003 28.1514 16.474C27.8779 16.6474 27.2642 17.0209 27.3105 17.048ZM20.5345 17.1882C20.5345 17.4682 20.775 17.7024 21.0486 17.7024C21.3293 17.7024 21.5628 17.4682 21.5628 17.1882H21.9033C21.9101 17.6624 21.523 18.0429 21.0486 18.0429C20.5882 18.0429 20.201 17.6624 20.201 17.1882H20.5345ZM27.3906 19.4718L27.2102 20.3125C27.4712 20.7932 27.8109 21.2338 27.9579 21.7007C28.1046 22.1684 28.138 22.6489 28.1252 22.9761C28.1114 23.3035 27.9651 23.4634 27.8982 23.6702C27.6975 23.2766 27.5977 22.716 27.2836 22.382C26.9702 22.0485 26.4763 21.7816 25.9419 21.6678C26.1625 22.3086 26.3427 23.0097 26.249 23.637C26.1559 24.2641 25.8619 24.9521 25.2945 25.3258C25.408 24.8053 25.4945 24.211 25.3475 23.7702C25.201 23.3304 24.7539 22.9296 24.4536 22.5021C24.4 22.9761 24.4468 23.4365 24.3066 23.8373C24.1661 24.2379 23.8391 24.5253 23.6122 24.832C23.7725 24.2316 23.7122 23.6969 23.5856 23.3834L22.9583 23.7371C23.0314 24.0846 23.1583 24.3178 23.0181 24.6714C22.8847 25.0257 22.4109 25.4261 22.1438 25.7533C22.6645 25.7797 23.105 25.8334 23.6989 25.5193C24.293 25.2059 24.4865 24.9122 24.8006 24.4716C24.7336 24.8257 24.727 25.1725 24.52 25.5193C24.3131 25.8669 24.1329 26.1737 23.9193 26.5142C24.8338 26.3738 25.6479 26.027 26.0152 25.6C26.3826 25.1725 26.6231 24.8053 26.7697 24.3377C26.9164 23.8705 26.8699 23.4365 26.8765 22.9361C27.1499 23.3232 27.2436 23.6569 27.3376 24.1042C27.4306 24.5513 27.4175 25.1592 27.4109 25.6336C27.8181 25.0257 28.4122 24.3244 28.6253 23.6169C28.8392 22.9095 28.773 22.1815 28.5854 21.4076C28.3986 20.6331 27.9048 20.0986 27.3906 19.4718ZM21.8365 19.8652C22.0368 19.8717 22.2705 19.8114 22.5177 19.9189C22.7643 20.025 23.0249 20.399 23.2916 20.5457C23.5589 20.693 23.7856 20.7465 24.046 20.8264C23.8658 20.9736 23.5788 21.0337 23.2916 20.9531C23.005 20.8731 22.711 20.4324 22.4642 20.2522C22.2169 20.0718 22.0435 20.0187 21.8365 19.8652Z" fill="#FEFEFE"/>
</svg>
