<svg width="42" height="42" viewBox="0 0 42 42" fill="none" xmlns="http://www.w3.org/2000/svg">
<path fill-rule="evenodd" clip-rule="evenodd" d="M38.7426 7.76829C39.1168 7.38449 39.6803 7.42516 39.9953 7.8585L40.9829 9.33528C41.2637 9.79091 41.4935 9.72622 41.4935 9.19163V1.89276C41.4935 1.35817 41.0542 0.920499 40.5166 0.920499H33.1148C32.5772 0.920499 32.5152 1.14463 32.9768 1.41853L34.6846 2.53336C35.1194 2.84728 35.1644 3.41324 34.7848 3.79141L34.2624 4.31129C33.9192 4.65334 33.3387 4.73057 32.9053 4.51574C29.6053 2.22225 25.5576 0.852783 21.2111 0.852783C10.0109 0.852783 0.927856 9.89237 0.927856 21.0381C0.927856 32.1845 10.0109 41.2916 21.2111 41.2916C32.4111 41.2916 41.4935 32.1845 41.4935 21.0381C41.4935 17.0768 40.3742 13.3818 38.3724 10.2316C38.1479 9.78377 37.8639 8.66915 38.2135 8.3111L38.7426 7.76829ZM3.57633 18.8705V19.4707H4.64894L6.72742 23.3409H9.20851L11.287 19.4707H12.3602V18.8705H9.20851V19.4707H10.0802L8.60503 22.207L6.9959 19.4707H8.1359V18.8705H3.57633ZM35.5596 18.67C33.8166 18.67 32.3416 19.7381 32.3416 21.0725C32.3416 22.4071 33.8166 23.4746 35.5596 23.4746C37.3703 23.4746 38.8452 22.4071 38.8452 21.0725C38.8452 19.7381 37.3703 18.67 35.5596 18.67ZM35.5596 22.7405C34.8892 22.7405 34.4198 22.0065 34.4198 21.0725C34.4198 20.0712 34.8892 19.3372 35.5596 19.3372C36.1629 19.3372 36.6994 20.0712 36.6994 21.0725C36.6994 22.0065 36.1629 22.7405 35.5596 22.7405ZM15.1761 18.7368C16.9866 18.7368 18.4613 19.8045 18.4613 21.0725C18.4613 22.4071 16.9866 23.4746 15.1761 23.4746C13.4329 23.4746 11.9576 22.4071 11.9576 21.0725C11.9576 19.8045 13.4329 18.7368 15.1761 18.7368ZM15.1761 22.7405C15.7796 22.7405 16.3161 22.0065 16.3161 21.0725C16.3161 20.1383 15.7796 19.4038 15.1761 19.4038C14.5055 19.4038 14.0363 20.1383 14.0363 21.0725C14.0363 22.0065 14.5055 22.7405 15.1761 22.7405ZM18.7298 18.8705V19.4707H19.8024V22.607H18.7298V23.3409H19.8024H25.0994V21.2726C25.0994 21.2726 24.9653 21.2726 24.4292 21.2726C24.3622 22.3405 23.4233 22.607 23.0211 22.607C22.6183 22.607 21.8811 22.607 21.8811 22.607V19.4707H22.9542V18.8705H18.7298ZM23.96 18.8705H28.5194V19.4707H27.3794L28.9887 22.207L30.3966 19.4707H29.592V18.8705H32.7433V19.4707H31.6707L29.592 23.3409H27.1111L25.0326 19.4707H23.96V18.8705ZM21.2107 7.06322C27.5016 7.06322 32.8246 11.1716 34.6285 16.838H7.79286C9.59699 11.1716 14.92 7.06322 21.2107 7.06322ZM21.2107 35.0811C14.92 35.0811 9.59721 30.9727 7.79307 25.3064H34.6285C32.8246 30.9727 27.5016 35.0811 21.2107 35.0811Z" fill="white"/>
</svg>
