<svg width="57" height="30" viewBox="0 0 57 30" fill="none" xmlns="http://www.w3.org/2000/svg">
<path fill-rule="evenodd" clip-rule="evenodd" d="M20.8423 16.6657C20.8251 16.5123 20.7821 16.376 20.7218 16.2482C20.6185 16.0352 20.4463 15.8649 20.2139 15.7455C19.8437 15.5495 19.3271 15.4472 18.673 15.4472H15.5047L12.0612 23.7291H14.618L15.5823 21.4032L15.7458 21.011L15.8751 23.7291H18.7762L18.2596 20.3551C19.3358 20.0227 20.0848 19.3325 20.5237 18.2845C20.6012 18.0886 20.6701 17.9011 20.7218 17.7221C20.8423 17.3133 20.8854 16.9638 20.8423 16.6657ZM15.324 14.4163H17.8981L18.5869 13.0789H20.9457L20.9198 14.4163H23.1583L23.7005 8.3924L23.907 6.13435H21.2126L20.7218 6.8245L17.3041 11.6302L15.5823 14.0501L15.324 14.4163ZM20.7218 9.90903L21.5482 8.64796H21.5999L21.3502 11.0339L20.7218 10.9997L20.0331 10.9656L20.7218 9.90903ZM31.3021 14.4163H33.1789C34.4961 14.4163 35.5894 14.2205 36.4761 13.8455C36.6055 13.7945 36.726 13.7346 36.8463 13.675C37.5524 13.3258 38.1121 12.8914 38.5337 12.38C39.033 11.7749 39.4377 11.0764 39.765 10.2841C40.04 9.59393 40.1953 8.99724 40.2126 8.48613C40.2294 7.97515 40.1177 7.54042 39.8767 7.19127C39.6268 6.84159 39.2483 6.57736 38.7316 6.39858C38.2409 6.22821 37.6124 6.14316 36.8463 6.13435C36.8207 6.13435 36.7861 6.13435 36.7604 6.13435H34.6853L32.5764 11.2979L31.3021 14.4163ZM36.1751 8.69081C36.4416 8.69081 36.6657 8.71618 36.8463 8.75878C37.0787 8.81833 37.2421 8.91219 37.3197 9.05718C37.4662 9.29552 37.4404 9.67057 37.2248 10.1815C37.1133 10.4717 36.984 10.7184 36.8463 10.9318C36.6742 11.1872 36.4935 11.3832 36.2867 11.5194C35.925 11.7749 35.4516 11.8944 34.8663 11.8944L36.1751 8.69081ZM44.6632 10.531L42.6146 11.2382L42.1926 11.3919L42.425 11.8433L42.6146 11.7749L46.2732 10.531V9.03142H42.0718V10.531H44.6632ZM23.5024 14.4163H25.7064L27.5144 10.0283L28.0652 14.4163H30.467L32.5764 9.25306L33.8506 6.13435H31.5L30.3551 8.92086L29.8043 10.48L29.0638 6.13435H26.8771L24.8542 11.1019L23.7005 13.9136L23.5024 14.4163ZM15.4187 12.218H13.3267L15.5823 6.76495L15.8405 6.13435H13.5419L10.1586 14.4163H14.5406L15.4187 12.218ZM9.17731 18.4124L9.66782 18.242L11.648 17.5519L11.4155 17.1003L9.66782 17.6967L7.56735 18.4124V19.9121H11.7684V18.4124H9.17731ZM49.5703 15.7455C49.2001 15.5495 48.6923 15.4472 48.0379 15.4472H44.8615L42.6146 20.8492L41.4178 23.7291H43.9747L45.1108 21.011L45.2401 23.7291H48.1415L47.6248 20.3551C48.6923 20.0227 49.4413 19.3325 49.8801 18.2845C50.1559 17.6286 50.2592 17.0916 50.2074 16.6657C50.1471 16.2482 49.9404 15.9415 49.5703 15.7455ZM47.3923 18.3273C47.2201 18.7531 46.9704 19.0258 46.6605 19.145C46.5484 19.1877 46.4364 19.2048 46.3076 19.2048H45.86L46.54 17.569H47.074C47.263 17.569 47.3838 17.6456 47.4352 17.7903C47.4954 17.9437 47.4785 18.1227 47.3923 18.3273ZM46.6605 3.45918C45.4034 2.90522 44.0518 2.41094 42.6146 1.98501C40.8063 1.43118 38.8781 0.988169 36.8463 0.664257C35.4689 0.443013 34.0397 0.272512 32.5764 0.161693C31.2419 0.0595505 29.8902 0 28.5042 0C27.2647 0 26.0507 0.0424609 24.8542 0.127514C24.4667 0.15328 24.0879 0.187459 23.7005 0.221244C22.6932 0.306691 21.6946 0.425923 20.7218 0.570527C19.5511 0.749704 18.4145 0.962666 17.3041 1.20981C16.7186 1.34613 16.1505 1.49073 15.5823 1.63586C13.4387 2.21507 11.4585 2.93072 9.66782 3.76587C3.74496 6.50953 0 10.531 0 15.0042C0 19.469 3.74496 23.4905 9.66782 26.2425C11.4585 27.0691 13.4387 27.7849 15.5823 28.3643C16.1505 28.5177 16.7186 28.654 17.3041 28.7903C18.4145 29.0373 19.5511 29.2503 20.7218 29.4293C21.6946 29.5741 22.6932 29.6933 23.7005 29.7873C24.0879 29.8212 24.4667 29.847 24.8542 29.8724C26.0507 29.9577 27.2647 30 28.5042 30C29.8902 30 31.2419 29.9403 32.5764 29.847C34.0397 29.736 35.4689 29.5657 36.8463 29.3356C38.8781 29.0117 40.8063 28.5687 42.6146 28.0235C44.0518 27.5889 45.4034 27.0948 46.6605 26.5408C52.9711 23.7887 57 19.6309 57 15.0042C57 10.3691 52.9711 6.21112 46.6605 3.45918ZM46.6605 25.6632C45.4123 26.2256 44.0518 26.7283 42.6146 27.163C40.8152 27.7167 38.8781 28.1683 36.8463 28.5005C35.4689 28.7222 34.0397 28.8926 32.5764 29.0033C31.2419 29.1056 29.8902 29.1567 28.5042 29.1567C27.2647 29.1567 26.0507 29.114 24.8542 29.0373C24.4667 29.0117 24.0792 28.9778 23.7005 28.9436C22.6932 28.85 21.6946 28.7306 20.7218 28.5858C19.5511 28.407 18.4059 28.1938 17.3041 27.9468C16.7186 27.8103 16.1418 27.6656 15.5823 27.5122C13.43 26.9241 11.4413 26.2002 9.66782 25.348C4.24437 22.7664 0.843695 19.0772 0.843695 15.0042C0.843695 10.9231 4.24437 7.24215 9.66782 4.65203C11.4413 3.80833 13.43 3.07559 15.5823 2.48771C16.1418 2.33469 16.7186 2.18956 17.3041 2.06179C18.4059 1.80623 19.5511 1.59314 20.7218 1.41409C21.6946 1.26936 22.6932 1.15012 23.7005 1.0564C24.0792 1.02222 24.4667 0.996845 24.8542 0.962666C26.0507 0.886026 27.2647 0.843434 28.5042 0.843434C29.8902 0.843434 31.2419 0.894308 32.5764 0.996845C34.0397 1.1074 35.4689 1.27777 36.8463 1.50782C38.8781 1.83173 40.8152 2.28342 42.6146 2.83726C44.0518 3.27159 45.4123 3.78296 46.6605 4.34521C52.4715 6.94374 56.1562 10.761 56.1562 15.0042C56.1562 19.2474 52.4715 23.0645 46.6605 25.6632ZM39.3775 20.6277H41.4351L42.3215 18.5061H40.2555L40.5827 17.7136H42.8726L43.8109 15.4472H38.9728L36.8463 20.5509L35.5291 23.7291H40.4102L41.3402 21.4968H39.0158L39.3775 20.6277ZM38.1635 15.4472H35.4002L33.3168 18.5147L32.5764 19.7331L32.1544 20.4232H32.1026L32.5675 18.4634L32.5764 18.4124L33.0584 15.4472H30.2519L29.5632 23.7291H31.965L32.5764 22.9113L36.8463 17.211L38.1635 15.4472ZM28.0479 15.6092C27.6778 15.3875 27.2131 15.2683 26.6619 15.2683C26.1196 15.2683 25.5686 15.3791 25.0091 15.6006C24.9573 15.6263 24.9057 15.6432 24.8542 15.6689C24.4581 15.8392 24.0792 16.0523 23.7005 16.3079C23.5972 16.3845 23.5024 16.4612 23.3991 16.5379C22.8741 16.9383 22.4092 17.407 21.9872 17.9353C21.5569 18.4634 21.2297 19.0258 20.9886 19.6051C20.8768 19.8695 20.7907 20.1336 20.7218 20.3891C20.6012 20.8749 20.5582 21.3351 20.6012 21.778C20.6271 21.9824 20.6615 22.1784 20.7218 22.3573C20.851 22.7579 21.0662 23.09 21.3674 23.3543C21.7979 23.7376 22.3661 23.9336 23.0547 23.9336C23.2701 23.9336 23.4853 23.9167 23.7005 23.8825C24.0792 23.8144 24.4581 23.7037 24.8542 23.5331C24.9833 23.4821 25.1038 23.4224 25.2329 23.3543C25.9991 22.9623 26.6878 22.4426 27.3076 21.778C27.9361 21.1133 28.4096 20.3891 28.7366 19.6051C28.9777 19.0258 29.1069 18.4634 29.1326 17.9268C29.1498 17.3899 29.0724 16.9298 28.8829 16.5379C28.6935 16.1459 28.4182 15.8307 28.0479 15.6092ZM26.0852 19.6309C25.9044 20.0739 25.6291 20.4403 25.2586 20.7469C25.121 20.8578 24.9833 20.9516 24.8542 21.0196C24.6303 21.139 24.4064 21.1985 24.1998 21.1985C23.9932 21.1985 23.8296 21.139 23.7005 21.0281C23.6229 20.9516 23.5627 20.8578 23.5197 20.7384C23.3991 20.4318 23.4335 20.0653 23.6143 19.6309C23.6403 19.5628 23.6661 19.4944 23.7005 19.4263C23.8811 19.0772 24.131 18.7786 24.4408 18.5147C24.5786 18.404 24.7165 18.3101 24.8542 18.2333C25.078 18.1141 25.2932 18.0544 25.5083 18.0544C25.8356 18.0544 26.0681 18.208 26.1885 18.5061C26.3091 18.8128 26.2746 19.1877 26.0852 19.6309ZM18.0357 18.3273C17.8551 18.7531 17.614 19.0258 17.3041 19.145C17.1921 19.1877 17.0717 19.2048 16.9426 19.2048H16.4948L17.175 17.569H17.7173C17.8981 17.569 18.0186 17.6456 18.0789 17.7903C18.139 17.9437 18.1219 18.1227 18.0357 18.3273Z" fill="white"/>
</svg>
