<svg width="64" height="25" viewBox="0 0 64 25" fill="none" xmlns="http://www.w3.org/2000/svg">
<path fill-rule="evenodd" clip-rule="evenodd" d="M32.01 24.4426C49.1673 24.4426 63.0776 19.1672 63.0776 12.6436C63.0776 6.12031 49.1673 0.824829 32.01 0.824829C14.8324 0.824829 0.921875 6.12031 0.921875 12.6436C0.921875 19.1672 14.8324 24.4426 32.01 24.4426ZM32.01 22.4091C47.9847 22.4091 60.9531 18.0399 60.9531 12.6436C60.9531 7.26821 47.9847 2.89875 32.01 2.89875C16.0151 2.89875 3.08683 7.26821 3.08683 12.6436C3.08683 18.0399 16.0151 22.4091 32.01 22.4091ZM32.01 23.2346C15.534 23.2346 2.14474 18.5232 2.14474 12.6436C2.14474 6.78461 15.534 2.01283 32.01 2.01283C48.5262 2.01283 61.8955 6.78461 61.8955 12.6436C61.8955 18.5232 48.5262 23.2346 32.01 23.2346Z" fill="black"/>
<path fill-rule="evenodd" clip-rule="evenodd" d="M29.1039 10.5502C29.1039 10.7712 29.4044 10.9528 29.6649 10.9728C29.6045 11.1942 29.625 11.2949 29.5247 11.2749C28.9232 11.2749 28.6829 10.6908 28.6829 10.6908C27.8813 10.8317 27.0997 10.9324 25.5157 11.0936C21.527 17.5766 20.2844 18.6437 17.8389 18.6437C16.0953 18.6437 14.552 17.4961 14.5118 15.4425C14.4918 14.1941 15.4941 12.6639 17.358 12.2012C17.5784 12.2012 17.6585 12.2811 17.6585 12.4022C17.6585 12.4827 17.5784 12.5835 17.398 12.6639C16.8567 12.8652 15.9148 13.9324 15.9148 14.9188C15.9148 15.6639 16.3758 16.4896 17.1576 16.6706C17.378 16.731 17.5784 16.711 17.7791 16.711C19.7231 16.711 21.9078 14.5162 24.2731 11.1741C23.8923 11.1942 22.2687 11.3754 21.8679 11.8387C21.6877 11.9796 21.5671 11.8988 21.527 11.7379C21.527 11.6975 21.5874 11.5567 21.6478 11.4762C22.2886 10.7512 24.213 10.5903 24.6739 10.5296C26.3918 7.88385 28.5823 6.18739 29.2029 6.04892L29.1641 6.03956C27.6202 5.67733 26.2177 5.37525 25.1149 5.37525C21.2465 5.37525 19.5227 7.04658 19.6028 8.57676C19.643 9.20123 20.1441 9.60356 20.8856 9.46268C21.6877 9.32153 22.81 8.55671 23.0905 7.89214C23.1509 7.75152 23.3113 7.73094 23.3712 7.7713C23.4915 7.87209 23.4513 8.01297 23.4513 8.01297C23.351 8.79837 22.1484 10.9728 20.0638 10.9728C18.9013 10.9728 18.1197 9.88559 18.1397 8.81842C18.1596 6.8247 20.1841 4.81146 25.1751 4.81146C26.1171 4.81146 27.1795 4.89193 28.3423 5.09349C29.6851 5.33515 33.0322 5.89895 35.7582 5.93878C36.7604 5.93878 38.0432 5.97968 39.0853 5.81848C40.1877 5.63697 39.9471 5.59687 40.3881 5.59687C40.7891 5.59687 40.7891 5.7578 40.7891 5.919C40.7891 6.56326 38.544 7.79135 36.6396 7.79135C33.8362 7.79135 30.9253 6.5146 29.4132 6.10238C29.4706 6.15719 29.5106 6.24647 29.4645 6.36196C29.4443 6.40206 29.2439 6.62367 29.1641 6.68409C28.7633 7.04658 27.4002 7.9325 25.9165 10.4491C27.1191 10.3887 28.5224 10.147 28.5224 10.147C28.5224 10.147 28.4423 9.88559 28.4423 9.66398C28.5025 8.79837 29.0036 8.27468 29.645 8.37546C30.0058 8.43588 30.2461 8.73769 30.2461 9.05982C30.2461 9.40226 29.9859 9.90564 29.7251 10.147C29.5446 10.2879 29.3442 10.4291 29.1039 10.5502ZM32.01 23.2346C15.534 23.2346 2.14478 18.5232 2.14478 12.6436C2.14478 6.7846 15.534 2.01282 32.01 2.01282C48.5263 2.01282 61.8955 6.7846 61.8955 12.6436C61.8955 18.5232 48.5263 23.2346 32.01 23.2346ZM32.01 22.409C47.9847 22.409 60.9532 18.0399 60.9532 12.6436C60.9532 7.2682 47.9847 2.89874 32.01 2.89874C16.0152 2.89874 3.08687 7.2682 3.08687 12.6436C3.08687 18.0399 16.0152 22.409 32.01 22.409ZM39.5867 14.5967C40.9496 13.3082 41.711 11.9592 43.6755 11.9796C44.858 11.9996 45.1587 12.9457 45.3593 13.3485L47.9445 8.95904H49.528L45.2385 16.5901C45.1587 16.7511 44.9583 17.0532 44.9782 17.2948C45.0187 17.6774 45.4993 17.5766 45.3192 17.5766C46.1809 17.5365 47.7644 15.8855 48.1454 15.4829C48.2253 15.3821 48.3655 15.2011 48.4459 15.2011C48.5263 15.2011 48.6865 15.2813 48.6865 15.4021C48.6865 15.4829 48.5058 15.7847 48.3655 15.9662C47.564 16.9727 46.241 18.5232 44.7377 18.5633C43.996 18.5633 43.7157 18.2615 43.6154 17.6774C43.2745 17.9794 42.112 18.5029 40.9294 18.5029C39.9471 18.4828 39.5466 17.899 39.3459 17.4357C39.1657 17.0532 39.0854 16.4896 39.2256 15.9256C38.6843 16.2076 38.1834 16.248 37.4617 16.2277C36.6199 16.2076 36.0991 15.8251 35.8386 14.8386C34.876 16.6105 34.8363 16.6706 33.854 18.5232H32.15L34.3349 14.7983C34.6154 14.2949 34.756 13.892 34.856 13.4691C34.9162 13.2277 34.7357 13.0061 34.4755 12.986C34.1947 12.986 33.734 13.2678 33.2925 13.6907C33.2925 13.6907 32.1703 14.8988 31.3484 16.1269C30.5668 17.2948 29.2239 18.6237 27.7608 18.6237C26.6984 18.6237 25.7363 18.0399 25.5359 16.9123C25.5359 16.9123 25.4359 17.174 24.4935 17.7175C24.4134 17.7581 24.213 17.8787 24.1531 17.8386C23.9724 17.6774 23.8723 17.4761 23.8521 17.3352C23.9123 17.3552 24.0326 17.2545 24.4134 16.9524C25.1548 16.3888 25.3153 15.9456 25.3153 15.9456C25.4957 15.5633 25.8167 14.9592 26.037 14.5365C26.6388 13.3285 27.6807 12.1004 29.3844 12.04C29.6649 12.04 29.745 12.1605 29.8052 12.2611C29.9654 12.3822 29.9055 12.6236 29.9055 12.6236C28.7029 12.8048 27.8813 13.5097 27.3799 14.1941C27.0795 14.6371 26.7585 15.362 26.6984 15.8855C26.5781 16.7914 26.9991 17.3956 27.6202 17.5365C28.783 17.7175 29.745 16.8719 30.5067 15.5633C30.7071 15.2209 30.8479 14.3352 30.8479 13.8519C30.8479 13.3686 30.5868 12.8652 30.3867 12.6639C30.3867 12.3217 30.607 12.1004 30.8676 12.1004C30.9477 12.1004 31.028 12.1004 31.1079 12.1806C31.5089 12.5835 31.7293 13.3485 31.7293 13.9324C31.7293 14.1337 31.7293 14.3352 31.6894 14.5365C32.5311 13.5097 33.5932 12.1806 34.4153 11.9189C34.5755 11.8387 34.7357 11.8387 34.8965 11.8387C36.3996 11.7983 36.1992 13.1673 36.1992 13.1673C37.0008 12.241 37.562 11.8988 38.3037 11.9392C39.1058 11.9796 39.3861 12.5431 39.3861 12.986C39.3661 13.5097 38.985 14.1136 38.324 14.1337C37.7425 14.1337 37.4018 13.8519 37.2214 13.3285C36.8405 13.4691 36.6604 13.7311 36.58 14.2545C36.4597 14.9188 36.9608 15.4425 37.6022 15.4425C38.7048 15.4425 39.1857 14.9592 39.5867 14.5967ZM43.7559 12.9256C43.0541 12.8452 42.1722 13.4491 41.4504 14.3352C41.0898 14.7779 40.709 15.6238 40.6489 16.1269C40.5685 16.6302 40.709 17.1336 40.8894 17.2748C41.0699 17.4156 41.8715 17.8386 43.1143 16.5701C43.8155 15.8654 44.4971 14.7175 44.4971 14.7175L44.2767 14.6571C44.6977 13.872 44.6174 13.0264 43.7559 12.9256Z" fill="#FEFEFE"/>
</svg>
