<svg width="57" height="13" viewBox="0 0 57 13" fill="none" xmlns="http://www.w3.org/2000/svg">
<path d="M32.7857 10.8888C32.7857 10.9875 32.8147 11.0413 32.8825 11.0413C32.9308 11.0413 32.9695 11.0234 33.0179 10.9965L50.4722 0.474219C50.7818 0.285841 51.0624 0.187168 51.4785 0.187168H55.3196C55.9098 0.187168 56.3064 0.554952 56.3064 1.10214V7.89271C56.3064 8.70901 56.1129 9.18444 55.3196 9.62399L50.6657 12.2164C50.6077 12.2523 50.5496 12.2702 50.5109 12.2702C50.4529 12.2702 50.4045 12.2344 50.4045 12.0819V4.15207C50.4045 4.06236 50.3755 3.99957 50.3077 3.99957C50.2594 3.99957 50.2207 4.01751 50.1723 4.04442L37.4105 11.732C37.0525 11.9473 36.7623 12.0101 36.4333 12.0101H27.9674C27.3772 12.0101 26.9805 11.6423 26.9805 11.0951V1.31743C26.9805 1.24567 26.9418 1.18288 26.8838 1.18288C26.8354 1.18288 26.7967 1.20082 26.7483 1.22773L18.3308 5.91923C18.2437 5.96408 18.2243 6.00893 18.2243 6.04481C18.2243 6.08069 18.234 6.1076 18.3017 6.16143L24.3101 11.732C24.3875 11.8038 24.4456 11.8666 24.4456 11.9204C24.4456 11.9832 24.3585 12.0191 24.2521 12.0191H18.8145C18.3888 12.0191 18.0599 11.9563 17.8277 11.741L14.1801 8.35917C14.1414 8.32328 14.1123 8.30534 14.0736 8.30534C14.0446 8.30534 13.9962 8.32328 13.9575 8.34122L7.86207 11.741C7.49441 11.9473 7.24285 12.0101 6.87519 12.0101H1.2635C0.6733 12.0101 0.276611 11.6423 0.276611 11.0951V4.43015C0.276611 3.60487 0.470118 3.13842 1.2635 2.69887L5.94635 0.0884939C5.99473 0.0615828 6.03343 0.0526123 6.07213 0.0526123C6.13986 0.0526123 6.17856 0.124375 6.17856 0.267901V9.18444C6.17856 9.27414 6.20759 9.31899 6.27532 9.31899C6.31402 9.31899 6.36239 9.29208 6.41077 9.26517L22.2299 0.447308C22.6073 0.24099 22.8395 0.178197 23.2749 0.178197H31.7892C32.3794 0.178197 32.776 0.545982 32.776 1.09317L32.7857 10.8888Z" fill="white"/>
</svg>
