<svg width="35" height="28" viewBox="0 0 35 28" fill="none" xmlns="http://www.w3.org/2000/svg">
<path fill-rule="evenodd" clip-rule="evenodd" d="M34.9382 8.18712C34.8183 6.19418 34.5187 4.01895 33.0203 2.5446C31.6535 1.19978 29.6814 0.822458 27.8457 0.580744C24.3924 0.126822 20.9877 0.00251132 17.5002 0C14.0127 0.00251132 10.6081 0.126822 7.15456 0.580744C5.31985 0.822458 3.34651 1.19978 1.98013 2.5446C0.4815 4.01895 0.183004 6.19418 0.0622046 8.18712C0.0184705 8.90913 0.000212685 9.63051 3.83811e-07 10.3513C-0.000211918 11.9376 0.0876809 13.522 0.187038 15.1073C0.332464 17.3773 0.592109 19.6687 1.15407 21.8786C1.41478 22.9033 1.76741 23.9327 2.37119 24.8142C2.95099 25.6603 3.78682 26.2597 4.72243 26.6805C6.71085 27.5762 9.00497 27.6526 11.1524 27.7836C13.2582 27.9121 15.3789 27.9897 17.5002 28C19.622 27.9897 21.7422 27.9121 23.8484 27.7836C25.9952 27.6526 28.2896 27.5762 30.2778 26.6805C31.2142 26.2597 32.0492 25.6603 32.6292 24.8142C33.2328 23.9327 33.5856 22.9033 33.8464 21.8786C34.4085 19.6687 34.668 17.3773 34.813 15.1073C34.9089 13.576 34.9945 12.0458 35 10.5137V10.1893C34.9975 9.52231 34.9788 8.85493 34.9382 8.18712ZM4.52499 24.2443C3.18006 22.8168 3.00279 20.4066 2.74484 18.5654C2.37077 15.8952 2.24466 13.1598 2.27651 10.4662C2.30092 8.35559 2.14297 5.67747 3.49958 3.89506C4.2163 2.95227 5.40965 2.6394 6.49685 2.32883C7.07133 2.35227 6.84375 3.24128 6.87538 3.60166C6.90574 5.73858 7.02909 7.87781 7.12313 10.0135C7.44074 15.1025 7.81226 20.1743 8.4842 25.2304C8.65807 26.8486 4.99757 24.748 4.52499 24.2443ZM22.2473 26.2276C22.0331 26.2647 21.3127 26.2632 20.5179 26.2825C19.5107 26.3067 18.5057 26.309 17.5002 26.309C16.495 26.309 15.4901 26.3067 14.4832 26.2825C13.6877 26.2632 12.9672 26.2647 12.7532 26.2276C12.5387 26.1908 12.3179 26.1782 12.3823 25.9428C12.447 25.7061 13.4132 22.636 13.4132 22.636C14.0471 20.5954 14.0913 20.4614 15.719 20.1469C16.2599 20.0418 16.8769 19.9744 17.5002 19.9707C18.1237 19.9744 18.7405 20.0418 19.2814 20.1469C20.9087 20.4614 20.9535 20.5954 21.5872 22.636C21.5872 22.636 22.554 25.7061 22.6175 25.9428C22.6829 26.1782 22.4623 26.1908 22.2473 26.2276ZM25.084 2.28489C24.3401 4.95421 23.4805 8.4935 22.7152 11.1748C22.1027 13.3201 21.4 16.0834 18.7439 16.3575C18.3469 16.3983 17.9261 16.4318 17.5002 16.4385C17.0743 16.4318 16.6536 16.3983 16.257 16.3575C13.6004 16.0834 12.8977 13.3201 12.2855 11.1748C11.5201 8.4935 10.6607 4.95421 9.91638 2.28489C9.78837 1.82448 9.98092 1.92953 10.9422 1.80146C12.6704 1.5723 15.2479 1.53693 17.5002 1.55849C19.7519 1.53693 22.3299 1.5723 24.058 1.80146C25.0195 1.92953 25.2125 1.82448 25.084 2.28489ZM32.2556 18.5654C31.9976 20.4066 31.8199 22.8168 30.4752 24.2443C30.0029 24.748 26.3424 26.8486 26.5162 25.2304C27.1877 20.1743 27.559 15.1025 27.8779 10.0135C27.9713 7.87781 28.0951 5.73858 28.1248 3.60166C28.1567 3.24128 27.9287 2.35227 28.5038 2.32883C29.5906 2.6394 30.7843 2.95227 31.5006 3.89506C32.8572 5.67747 32.6997 8.35622 32.7241 10.4662C32.7566 13.1598 32.6299 15.8952 32.2556 18.5654Z" fill="white"/>
</svg>
