<svg width="39" height="50" viewBox="0 0 39 50" fill="none" xmlns="http://www.w3.org/2000/svg">
<path d="M17.5591 0.26237C16.9199 1.45823 8.30378 17.5978 4.59236 24.5322C4.46373 24.772 4.47362 24.9453 4.59928 25.1802C8.23551 31.9748 15.6049 45.7584 15.6811 45.8872C15.7573 45.7594 23.1267 31.9748 26.7629 25.1811C26.8886 24.9463 26.8995 24.773 26.7699 24.5332C24.6891 20.6583 22.6221 16.7755 20.5413 12.9006C20.4077 12.6529 20.3988 12.4676 20.5373 12.218C21.1092 11.1856 21.6574 10.1403 22.2372 9.05642C22.3193 9.19612 27.8335 19.5031 30.5377 24.553C30.6515 24.765 30.6614 24.9235 30.5446 25.1425C26.2652 33.139 21.9928 41.1394 17.7253 49.1428C17.6115 49.3568 17.4958 49.4539 17.2365 49.45C16.1798 49.4321 15.1221 49.4371 14.0653 49.447C13.8694 49.449 13.7655 49.3866 13.6735 49.2122C9.38426 41.1692 5.09104 33.1281 0.792872 25.09C0.703822 24.9226 0.695906 24.7977 0.787925 24.6243C5.08708 16.5843 9.37931 8.5432 13.6785 0.505109C13.7329 0.40405 13.8605 0.27426 13.9555 0.273269C15.1349 0.256426 16.3144 0.26237 17.5591 0.26237Z" fill="white"/>
<path d="M22.447 5.18594C20.48 8.85673 15.0578 18.9982 12.1023 24.5217C11.9767 24.7575 11.9678 24.9309 12.0964 25.1697C14.1772 29.0456 16.2442 32.9274 18.325 36.8023C18.4585 37.051 18.4655 37.2353 18.3269 37.4849C17.755 38.5173 17.2069 39.5626 16.6261 40.6475C16.5489 40.5167 11.0357 30.2087 8.32559 25.1489C8.21181 24.9369 8.2029 24.7784 8.31966 24.5594C12.598 16.5639 16.8705 8.56346 21.138 0.560049C21.2527 0.345053 21.3695 0.24994 21.6268 0.253903C22.6835 0.271737 23.7412 0.266783 24.7979 0.256875C24.9948 0.254894 25.0968 0.319293 25.1898 0.492677C29.48 8.53572 33.7732 16.5768 38.0714 24.6149C38.1614 24.7823 38.1674 24.9081 38.0754 25.0805C33.7772 33.1186 29.485 41.1597 25.1858 49.1978C25.1314 49.2988 25.0037 49.4276 24.9088 49.4286C23.7293 49.4445 22.5499 49.4385 21.3141 49.4385C21.3952 49.28 30.0153 33.1256 34.2729 25.1687C34.4015 24.9289 34.3916 24.7556 34.265 24.5208C30.6288 17.7261 23.2593 3.94253 23.1832 3.81472C23.1693 3.8385 22.8992 4.34082 22.447 5.18594Z" fill="white"/>
</svg>
