<svg width="55" height="20" viewBox="0 0 55 20" fill="none" xmlns="http://www.w3.org/2000/svg">
<path fill-rule="evenodd" clip-rule="evenodd" d="M53.8319 4.72178L38.2098 4.7236C37.8096 4.7236 37.5494 4.61 37.5494 4.08751L37.5481 1.87864C37.5481 1.24136 37.1885 0.904297 36.5354 0.904297L18.6536 0.904817C17.9851 0.904817 17.6412 1.2636 17.6412 1.87266L17.6401 4.08169C17.6401 4.54795 17.4092 4.71762 16.9799 4.71762L6.74244 4.72131C5.95954 4.72131 5.50113 5.0776 5.26484 5.54515L0.280395 14.8343C0.21722 14.9508 0.178955 15.0889 0.178955 15.2288C0.178955 15.5962 0.4316 16.0714 1.12958 16.0714L16.9793 16.0696C17.4684 16.0696 17.6398 16.2814 17.6398 16.7052L17.6384 18.9146C17.6384 19.58 18.0441 19.8824 18.653 19.8824L27.5957 19.8819H36.5354C37.1448 19.8819 37.5501 19.6004 37.5501 18.9205L37.5489 16.7115C37.5489 16.2591 37.7494 16.0755 38.2093 16.0755L48.1483 16.0726C48.8332 16.0726 49.3268 15.9006 49.6704 15.292L54.5989 6.1116C54.7069 5.91376 54.7825 5.80078 54.7825 5.56443C54.7825 4.94124 54.2179 4.72178 53.8319 4.72178ZM49.8945 8.42233L47.5187 12.8526C47.3701 13.1093 47.1049 13.1205 46.9197 13.1205H35.1256C34.6364 13.1205 34.4579 13.3329 34.4579 13.756L34.4567 16.3049C34.4567 16.7279 34.2615 16.9316 33.7876 16.9316H27.5957L21.4005 16.9321C20.9861 16.9321 20.7324 16.7934 20.7324 16.299L20.7312 13.75C20.7312 13.2843 20.5073 13.1188 20.0631 13.1188H5.60568C5.25061 13.1188 5.00461 12.9051 5.00461 12.609C5.00461 12.5231 5.02702 12.4423 5.06621 12.3709L7.44184 7.94064C7.53303 7.78339 7.68194 7.67561 8.04104 7.67561L20.0631 7.67629C20.4784 7.67629 20.7357 7.51701 20.7357 7.03667L20.735 4.48891C20.735 4.03659 20.9419 3.85527 21.4007 3.85527L33.789 3.8546C34.2326 3.8546 34.4543 4.04241 34.4543 4.49421L34.4531 7.04244C34.4531 7.48021 34.6665 7.67441 35.1256 7.67441H49.3557C49.8081 7.67441 49.9559 7.95889 49.9559 8.18417C49.9559 8.26955 49.9344 8.35088 49.8945 8.42233Z" fill="#FEFEFE"/>
</svg>
