<svg width="38" height="39" viewBox="0 0 38 39" fill="none" xmlns="http://www.w3.org/2000/svg">
<path fill-rule="evenodd" clip-rule="evenodd" d="M18.9303 0C29.509 0 38 8.71444 38 19.5C38 30.2856 29.509 39 18.9303 39C8.49074 39 0 30.2856 0 19.5C0 8.71444 8.49074 0 18.9303 0ZM25.403 34.4286C28.7434 32.9285 31.597 30.0001 33.2674 26.5714C35.0769 22.9286 35.4943 18.643 34.3114 14.7857C31.4578 21.5001 28.5347 28 25.403 34.4286ZM12.1796 34.2141C9.18683 27.7142 6.40298 21.0714 3.89758 14.2858C2.15749 19.8571 3.41019 25.9286 7.02934 30.1429C8.42126 31.8573 10.0916 33.2858 12.1796 34.2141ZM6.19403 9.64277C13.2234 27.1427 13.2234 27.1427 13.2234 27.1427C16.4946 19.8571 16.4946 19.8571 16.4946 19.8571C21.5054 19.9286 21.5054 19.9286 21.5054 19.9286C24.5677 27.3572 24.5677 27.3572 24.5677 27.3572C27.2123 21.7143 29.718 15.8572 32.0842 10.0001C30.8314 8.21423 29.3003 6.6428 27.4213 5.4287C21.5054 18.7143 21.5054 18.7143 21.5054 18.7143C16.5641 18.7143 16.5641 18.7143 16.5641 18.7143C10.9964 5.21425 10.9964 5.21424 10.9964 5.21424C9.32604 6.21441 7.30777 7.92872 6.19403 9.64277ZM23.4542 35.1427C18.9303 24.5001 18.9303 24.5001 18.9303 24.5001C14.0587 34.9285 14.0587 34.9285 14.0587 34.9285C17.1904 35.9285 20.3224 36.1429 23.4542 35.1427ZM14.6153 3.5715C19.1392 14.2142 19.1392 14.2142 19.1392 14.2142C23.9413 3.71438 23.9413 3.71438 23.9413 3.71438C21.088 2.78579 18.0257 2.64291 14.6153 3.5715Z" fill="#FEFEFE"/>
</svg>
