<svg width="59" height="19" viewBox="0 0 59 19" fill="none" xmlns="http://www.w3.org/2000/svg">
<path fill-rule="evenodd" clip-rule="evenodd" d="M47.339 0.00109863C45.092 0.00109863 43.0286 0.7657 41.3927 2.04746C39.7576 0.7657 37.6934 0.00109863 35.4464 0.00109863C33.1999 0.00109863 31.1346 0.766294 29.4998 2.04746C27.8652 0.7657 25.8007 0.00109863 23.5535 0.00109863C21.3072 0.00109863 19.2419 0.766294 17.6072 2.04746C15.9714 0.7657 13.9078 0.00109863 11.6609 0.00109863C6.3635 0.00109863 2.0708 4.25309 2.0708 9.50006C2.0708 14.7467 6.3635 18.9989 11.6609 18.9989C13.9078 18.9989 15.9723 18.2341 17.6072 16.9524C19.2419 18.2337 21.3072 18.9989 23.5535 18.9989C25.8007 18.9989 27.8652 18.2343 29.4998 16.9524C31.1346 18.2337 33.1999 18.9989 35.4464 18.9989C37.6934 18.9989 39.7576 18.2343 41.3927 16.9524C43.0272 18.2341 45.092 18.9989 47.339 18.9989C52.6362 18.9989 56.9292 14.7467 56.9292 9.50006C56.9292 4.25309 52.6362 0.00109863 47.339 0.00109863ZM16.0381 15.4006C14.816 16.284 13.2895 16.8229 11.6609 16.8229C7.5744 16.8229 4.2675 13.5474 4.2675 9.50006C4.2675 5.45232 7.5744 2.17704 11.6609 2.17704C13.2895 2.17704 14.8151 2.71632 16.0381 3.59922C14.7374 5.22061 13.9635 7.26815 13.9635 9.50006C13.9635 11.7231 14.7466 13.7823 16.0381 15.4006ZM17.6072 13.8508C16.6971 12.6333 16.1604 11.1309 16.1604 9.50006C16.1604 7.86695 16.6956 6.36758 17.6072 5.14906C18.5188 6.36758 19.0541 7.86695 19.0541 9.50006C19.0541 11.1309 18.5175 12.6333 17.6072 13.8508ZM27.9308 15.4006C26.7041 16.2952 25.1886 16.8207 23.5484 16.8207C21.9089 16.8207 20.4029 16.2948 19.1764 15.4006C20.4678 13.7823 21.251 11.7231 21.251 9.50006C21.251 7.26815 20.4771 5.22061 19.1764 3.59922C20.4029 2.70518 21.9089 2.17927 23.5484 2.17927C25.1886 2.17927 26.7041 2.70474 27.9308 3.59922C26.6302 5.22061 25.8563 7.26815 25.8563 9.50006C25.8563 11.7231 26.6392 13.7823 27.9308 15.4006ZM29.4998 13.8508C28.5898 12.6333 28.0531 11.1309 28.0531 9.50006C28.0531 7.86695 28.5883 6.36758 29.4998 5.14906C30.4117 6.36758 30.9467 7.86695 30.9467 9.50006C30.9467 11.1309 30.41 12.6333 29.4998 13.8508ZM39.8234 15.4006C38.5968 16.2952 37.0814 16.8207 35.441 16.8207C33.8013 16.8207 32.2956 16.2948 31.0688 15.4006C32.3604 13.7823 33.1437 11.7231 33.1437 9.50006C33.1437 7.26815 32.3698 5.22061 31.0688 3.59922C32.2956 2.70518 33.8013 2.17927 35.441 2.17927C37.0814 2.17927 38.5968 2.70474 39.8234 3.59922C38.5228 5.22061 37.7489 7.26815 37.7489 9.50006C37.7489 11.7231 38.5318 13.7823 39.8234 15.4006ZM41.3927 13.8508C40.4827 12.6333 39.9459 11.1309 39.9459 9.50006C39.9459 7.86695 40.4809 6.36758 41.3927 5.14906C42.3044 6.36758 42.8393 7.86695 42.8393 9.50006C42.8393 11.1309 42.3028 12.6333 41.3927 13.8508ZM47.339 16.8229C45.7105 16.8229 44.1839 16.284 42.9617 15.4006C44.2531 13.7823 45.0363 11.7231 45.0363 9.50006C45.0363 7.26815 44.2625 5.22061 42.9617 3.59922C44.1851 2.71632 45.7105 2.17704 47.339 2.17704C51.4254 2.17704 54.7323 5.45232 54.7323 9.50006C54.7323 13.5474 51.4254 16.8229 47.339 16.8229Z" fill="white"/>
</svg>
