<svg width="55" height="19" viewBox="0 0 55 19" fill="none" xmlns="http://www.w3.org/2000/svg">
<path d="M27.5 0C27.9674 0 28.4321 0.0038486 28.8938 0.0115474H28.8953C35.8666 0.127081 42.1533 1.10368 46.789 2.62424C51.8621 4.28833 55 6.24735 55 8.89173C55 11.5362 51.8621 13.8878 46.789 15.5519C41.846 17.1733 35.0257 18.1761 27.5 18.1761C19.9742 18.1761 13.154 17.1733 8.21096 15.5519C3.13777 13.8878 0 11.5362 0 8.89173C0 6.24735 3.13783 4.28833 8.21096 2.62424C12.8466 1.10368 19.1333 0.127133 26.1046 0.0115474H26.1061C26.5678 0.00395264 27.0326 0 27.5 0ZM24.2937 12.3146L31.0524 12.2977C31.88 12.2612 32.7158 12.2115 33.5587 12.1474L33.5631 12.1463C34.4103 11.4683 34.826 10.6275 34.9421 9.87671C33.2502 8.37087 31.831 7.21912 30.6853 6.3993C30.5035 6.27118 30.3154 6.14056 30.121 6.00739C29.1387 5.34743 28.3949 4.9731 27.8903 4.86667C27.7645 4.8495 27.6388 4.84076 27.513 4.84076C26.9607 4.87713 26.2372 5.15673 25.3453 5.6894C25.2978 5.72664 25.2502 5.76509 25.2026 5.80478C25.2026 5.80478 24.9965 5.9124 24.623 6.15133C23.3752 6.99778 21.8548 8.26001 20.067 9.95978C20.1831 10.711 20.5654 11.4756 21.4133 12.1537C22.3526 12.2224 23.3136 12.2769 24.2937 12.3146ZM14.9675 8.98692C14.9954 8.93704 15.0329 8.89136 15.0798 8.85282L23.3619 2.02858C12.8692 2.95727 6.8617 5.16063 7.3565 7.83637C7.84906 9.66436 9.20634 10.5093 11.5281 10.587C12.7079 10.5999 13.7128 10.0472 14.9675 8.98692ZM31.6149 1.95757L37.9463 7.16398C38.51 7.62013 39.111 8.10557 39.7504 8.62118C41.1732 9.87894 42.2523 10.5382 43.5397 10.5242C45.8616 10.4464 47.2189 9.60152 47.7114 7.77353C48.2076 5.09004 42.1642 2.88158 31.6149 1.95757Z" fill="#FEFEFE"/>
</svg>
