<svg width="49" height="49" viewBox="0 0 49 49" fill="none" xmlns="http://www.w3.org/2000/svg">
<path fill-rule="evenodd" clip-rule="evenodd" d="M24.5003 0C32.3748 0 40.548 0.609883 48.844 1.90885C48.9678 4.92598 49.1084 9.58964 48.8723 13.5471C48.3436 22.3705 46.2031 29.2189 42.1337 35.0998C38.077 40.9636 31.7955 46.0056 24.5003 49C17.2052 46.0056 10.9231 40.9636 6.86645 35.0998C2.7976 29.2189 0.656545 22.3705 0.128362 13.5471C-0.108793 9.58964 0.0322777 4.92598 0.156131 1.90885C8.45211 0.609883 16.6259 0 24.5003 0ZM24.5003 0.850003C16.7375 0.850003 8.85644 1.44879 1.06421 2.63072C0.893145 7.10673 0.893145 10.6682 1.0631 13.5012C1.58184 22.1742 3.67791 28.894 7.659 34.6478C11.6395 40.4011 17.6084 45.1535 24.5003 48.0652C31.3917 45.1535 37.3611 40.4011 41.3417 34.6478C45.3228 28.894 47.4183 22.1742 47.9376 13.5012C48.1075 10.6682 48.1075 7.10673 47.9365 2.63072C40.1442 1.44879 32.2626 0.850003 24.5003 0.850003ZM24.4325 26.6155C24.4325 26.6155 24.5858 27.4413 24.6324 27.6809C24.6585 27.8166 24.6641 27.8529 24.6263 27.9861C24.5038 28.4143 23.9379 30.6715 23.4849 32.9821L23.4143 33.3471C23.2292 34.3203 23.0694 35.2864 22.9762 36.1128C22.9235 36.5824 22.9407 36.6949 23.0773 37.1116C23.4644 38.289 24.8962 41.3652 25.1711 41.9261C25.2017 41.9882 25.22 42.0532 25.2289 42.1203L25.3322 42.8457C24.8735 42.2167 22.3808 38.0565 21.4017 35.7526C21.2861 35.4812 21.2639 35.3475 21.3917 34.8486C22.0726 32.2018 23.9148 27.7041 24.4325 26.6155ZM20.7974 20.2215C20.7974 20.2215 20.9889 20.7849 21.1736 21.3967L21.2382 21.6138C21.3549 22.0125 21.459 22.406 21.4966 22.655C21.5327 22.8946 21.5266 22.9592 21.4328 23.1887C21.2052 23.7385 20.7863 24.6229 20.3395 25.527L20.1468 25.9147C19.5986 27.0116 19.0436 28.0712 18.7741 28.5299C18.6413 28.7559 18.5164 28.9032 18.2664 29.1337C17.696 29.6609 16.6041 30.6571 15.9282 31.2146C15.6827 31.4174 15.6166 31.5904 15.5666 31.8527C15.4861 32.2739 15.4061 32.9928 15.3839 33.364C15.3645 33.6904 15.4228 33.8433 15.6233 34.1666C16.8146 36.0962 20.7918 40.5353 21.9248 41.4676C22.007 41.5352 22.067 41.5806 22.2403 41.685C22.4069 41.7859 22.9501 42.1057 22.9501 42.1057C22.9718 42.1193 22.9901 42.1375 23.004 42.1582L23.2006 42.4724C23.2006 42.4724 23.1822 42.4642 23.1491 42.4492L23.0642 42.4109C22.9959 42.3801 22.9056 42.3392 22.8019 42.2922L22.5494 42.1774C22.1623 42.0011 21.7009 41.7889 21.4583 41.6704C21.3583 41.6214 21.2645 41.5639 21.1773 41.4978C19.8504 40.497 15.7844 36.1764 14.5886 34.3724C14.2903 33.922 14.2598 33.7762 14.2998 33.3499C14.3748 32.5564 14.4908 31.5586 14.5925 31.1212C14.6541 30.8574 14.718 30.7025 14.9407 30.4695C15.6891 29.6872 16.602 28.6544 17.4916 27.5947L17.8043 27.22C19.1524 25.5943 20.3942 23.9672 20.8579 23.1383C20.964 22.9496 20.9729 22.884 20.9751 22.706C20.9812 22.1894 20.7996 21.1835 20.7518 20.9293C20.7446 20.8894 20.7424 20.8491 20.7463 20.8087L20.7974 20.2215ZM31.8945 19.252L32.2383 19.3877C32.3399 19.4276 32.4326 19.4861 32.5093 19.5587C34.617 21.5564 36.3027 23.6276 36.6403 24.1735C36.7053 24.2784 36.7498 24.3833 36.7659 24.5034C37.1446 27.4166 36.8192 30.5028 36.0455 33.1875C35.9755 33.4297 35.8972 33.5538 35.6406 33.7288C34.8146 34.293 33.5817 35.1926 32.3555 36.1098L31.969 36.3997C30.4919 37.5102 29.0887 38.5975 28.4932 39.0977C28.3438 39.2238 28.2133 39.3661 28.1066 39.524C27.8274 39.9361 27.4011 40.6454 27.1917 40.9974L27.1333 41.0959C27.0913 41.1669 27.0669 41.2083 27.0669 41.2083C26.7892 40.658 26.1839 39.3151 25.9761 38.7723C25.9084 38.5953 25.8962 38.5024 25.9678 38.2654C26.3066 37.1399 27.9078 33.868 28.2194 33.2763L28.2199 33.5184C28.2199 33.5538 28.2138 33.5886 28.2016 33.6219C28.0611 34.0088 27.2002 36.5875 27.0253 37.7059C26.9864 37.9546 26.9897 38.0217 27.0253 38.2659C27.1019 38.788 27.4457 39.7454 27.4457 39.7454C27.4457 39.7454 27.6496 39.359 27.8395 39.0977C27.9328 38.9696 27.9889 38.908 28.1411 38.7708C28.9109 38.0794 30.2241 37.0107 31.592 35.936L32.0763 35.5571C33.1269 34.7381 34.1759 33.9412 35.0047 33.3323C35.2202 33.1739 35.3007 33.068 35.3485 32.7673C35.5862 31.2862 35.6551 28.6278 35.5118 26.6932C35.4846 26.328 35.354 25.9749 35.1274 25.6717C34.6076 24.974 33.9861 24.3137 33.0436 23.4657C32.9092 23.3441 32.8175 23.1888 32.7831 23.0193C32.5082 21.6875 31.8945 19.252 31.8945 19.252ZM14.0705 22.3332C14.2016 22.2949 14.341 22.2903 14.4743 22.3196C15.0752 22.4508 16.3471 22.7338 17.3085 22.9572C17.4435 22.9885 17.6117 23.103 17.6834 23.2115L17.8928 23.5278C17.9661 23.6387 17.9711 23.775 17.9061 23.89C17.7313 24.1976 17.4821 24.6142 17.2186 25.0438L17.0192 25.3669C16.6523 25.9582 16.2868 26.5287 16.0794 26.8289C15.9428 27.0272 15.8667 27.1149 15.6234 27.1931C14.6776 27.4953 13.5029 27.8565 12.8048 28.0618C12.662 28.1037 12.6137 28.1824 12.6415 28.3261C12.6915 28.5879 12.8525 29.4768 12.9142 29.7361C12.937 29.8319 13.0214 29.9081 13.178 29.8808C13.5907 29.8097 14.6892 29.5656 14.6892 29.5656C14.6892 29.5656 14.3654 29.8375 14.1716 29.9979C14.1361 30.0281 14.095 30.0503 14.0489 30.064C13.7495 30.1548 13.0186 30.3409 12.7909 30.3863C12.6132 30.4211 12.4999 30.3575 12.4543 30.1749C12.4543 30.1749 12.1427 28.9703 12.03 28.5607C12.0122 28.4981 11.9944 28.4442 11.9728 28.3826C11.8884 28.1455 11.6856 27.6794 11.5712 27.4353C11.5579 27.407 11.5512 27.3767 11.5518 27.3455C11.5551 27.0665 11.6118 26.444 11.6118 26.444C11.6118 26.444 12.2844 27.0166 12.6098 27.2234C12.6831 27.2703 12.727 27.2799 12.817 27.2592C13.2641 27.1548 14.2921 26.8461 14.8564 26.6544C14.9853 26.6105 15.098 26.5368 15.1858 26.4405C15.7695 25.8003 16.5015 24.8045 16.9242 24.0534C16.9825 23.95 16.9936 23.8314 16.9569 23.7205L16.8658 23.4481C16.8392 23.3684 16.7464 23.2786 16.6609 23.2488C15.6662 22.9053 14.882 22.65 13.9605 22.365L14.0705 22.3332ZM33.7431 14.5799C33.9619 14.5068 34.2019 14.5118 34.4168 14.5941C36.0841 15.2297 38.8878 16.7249 40.4462 17.7782C40.5967 17.8801 40.6567 17.9502 40.6961 18.1146C41.0621 19.626 41.201 21.9621 40.9705 23.929C40.9538 24.0702 40.9227 24.155 40.8416 24.3058C39.8541 26.1395 38.7428 27.8652 37.5731 29.1965L37.5755 29.1747C37.5907 29.0329 37.6747 28.2336 37.6792 27.8011C37.6798 27.7522 37.7048 27.7073 37.7475 27.6775C37.9647 27.5242 38.2629 27.3063 38.4318 27.1736C38.514 27.109 38.5595 27.0606 38.6023 26.998C39.0788 26.2989 39.9308 24.835 40.274 23.9542C40.3579 23.7393 40.3912 23.5118 40.3707 23.2843C40.2607 22.0569 40.0485 20.3564 39.7325 19.2466C39.6786 19.0575 39.5409 18.8975 39.3493 18.8083C39.0766 18.6811 38.5417 18.4597 37.3238 18.0163C37.1549 17.9547 36.9972 17.8695 36.8583 17.7635C36.0597 17.1542 34.8111 16.2406 34.0341 15.715C33.807 15.5611 33.5171 15.5051 33.2405 15.5621C32.6745 15.6786 31.9542 15.8411 31.5487 15.941C31.411 15.9747 31.3566 15.9778 31.2144 15.9626C31.1403 15.9548 31.0446 15.9463 30.9441 15.938L30.7918 15.9259C30.6147 15.9121 30.4486 15.9005 30.3836 15.896L30.3546 15.894C31.6759 15.3306 32.9472 14.8443 33.7431 14.5799ZM16.1147 24.5003C15.7014 25.1178 15.2077 25.7735 14.8345 26.1832C14.7856 26.2366 14.7206 26.278 14.6467 26.3032C14.2385 26.4419 13.5582 26.6508 13.0572 26.7895L16.1147 24.5003ZM10.6534 23.6896L10.4096 25.2176L9.5804 24.3338C9.73147 24.0367 10.173 23.7562 10.6534 23.6896ZM15.1199 15.0389L14.8933 15.2921C14.8805 15.3032 14.8683 15.3138 14.8555 15.3254C14.6561 15.4591 13.8169 16.0428 13.5898 16.2062C13.5253 16.2526 13.4998 16.293 13.4848 16.3661C13.4337 16.6244 13.3487 17.1152 13.3237 17.3871C13.3165 17.4668 13.2787 17.5062 13.1893 17.539C12.8 17.6827 12.3385 17.8341 11.9652 17.9698C11.8852 17.9985 11.863 18.0096 11.8158 18.0424C11.7786 18.0686 11.2826 18.4707 11.2826 18.4707C11.2826 18.4707 12.3607 18.2296 12.7561 18.1483C12.8505 18.1292 12.8911 18.1342 12.9783 18.1715C13.0599 18.2058 13.196 18.2548 13.2676 18.2785C13.3776 18.3153 13.4359 18.3138 13.5576 18.2896C14.003 18.1993 14.7522 18.0379 15.151 17.9435C15.3582 17.8946 15.4715 17.8436 15.647 17.7322C15.838 17.6116 16.3218 17.2822 16.3218 17.2822C16.3218 17.2822 16.3129 17.3402 16.3062 17.3725C16.3012 17.4002 16.2901 17.4159 16.2701 17.4376C16.1718 17.545 15.9996 17.7201 15.9141 17.8003C15.7181 17.9844 15.6009 18.05 15.3548 18.1433C14.2218 18.5721 12.2857 19.238 10.8333 19.6945C10.7384 19.7248 10.6973 19.7495 10.6267 19.815C10.5501 19.8857 10.4479 19.9886 10.4479 19.9886C10.4479 19.9886 11.632 20.0668 11.9936 20.1046C12.1107 20.1167 12.1946 20.1515 12.284 20.2216C12.5812 20.4537 13.5648 21.3733 13.8591 21.6926C13.8591 21.6926 11.0627 22.1148 9.76696 22.4069C9.60701 22.4427 9.52703 22.5351 9.49093 22.6516C9.38374 22.9936 9.13103 24.0933 9.13103 24.0933C9.13103 24.0933 9.04106 24.0671 8.91554 24.0015C8.82945 23.9566 8.78557 23.9193 8.69115 23.8285C8.38457 23.5344 7.88083 22.9714 7.63868 22.645C7.56758 22.5487 7.53759 22.4261 7.62646 22.3277C7.88916 22.0341 8.41679 21.4984 8.70782 21.223C8.73892 21.1932 8.77835 21.1413 8.82001 21.0666C8.91793 20.8899 9.04702 20.4425 9.09198 20.281L9.10635 20.2287L9.10826 20.2216C9.10826 20.2216 9.10549 20.2232 9.10046 20.2261L9.04731 20.2564C8.97527 20.2976 8.85889 20.3641 8.8089 20.3926C8.73392 20.436 8.71337 20.4547 8.68227 20.5142C8.63506 20.604 8.55231 20.7458 8.48955 20.8441C8.469 20.8764 8.41401 20.9264 8.38457 20.947C8.01301 21.2048 7.60257 21.4818 7.31043 21.6684C7.29044 21.681 7.26489 21.6755 7.24768 21.6603C7.21046 21.6265 7.0544 21.4656 7.02663 21.4278C7.0033 21.396 6.99272 21.3662 6.99272 21.3279C6.99219 21.2608 6.99941 21.1428 7.00663 21.055C7.01552 20.9511 7.04829 20.9016 7.18769 20.7705C7.34376 20.6237 7.51371 20.4693 7.69255 20.3109C8.13076 19.976 9.23711 19.1608 11.2127 17.8805C11.2499 17.8563 11.2838 17.828 11.311 17.7942C11.5187 17.54 12.108 16.8458 12.2535 16.6809C12.274 16.6577 12.2968 16.636 12.3229 16.6173C12.5556 16.4503 12.6706 16.3782 12.9066 16.243C13.457 15.9282 14.5228 15.3542 15.1199 15.0389ZM27.161 14.4711C27.2438 14.458 27.3288 14.4686 27.4048 14.5014L27.9819 14.7521C28.0386 14.7768 28.0802 14.8237 28.0952 14.8802C28.1735 15.1799 28.2696 15.5769 28.334 15.9144C28.3601 16.0546 28.3312 16.1979 28.2529 16.3215C28.0141 16.6983 27.5237 17.3763 27.2493 17.7405C27.1882 17.8222 27.181 17.9211 27.1999 18.0184C27.3243 18.643 27.8431 20.8237 27.8431 20.8237L27.5165 20.5538C27.4515 20.4993 27.4087 20.4418 27.381 20.3667C27.1488 19.7497 26.7145 18.4608 26.5145 17.8338C26.4823 17.7304 26.5068 17.6199 26.5817 17.5377C26.9222 17.1624 27.4182 16.5621 27.7081 16.1817C27.7892 16.0748 27.8158 15.9567 27.7681 15.8685C27.7014 15.7444 27.5892 15.5557 27.4815 15.3847C27.4526 15.3373 27.4043 15.302 27.3471 15.2848L26.9555 15.1708C26.8872 15.1511 26.8139 15.1521 26.7461 15.1743C25.8931 15.4553 24.7456 15.8604 24.0436 16.1247C23.9408 16.1636 23.8986 16.1666 23.7742 16.1494C23.5709 16.1222 22.9789 16.0259 22.6884 15.9764C22.6362 15.9673 22.6101 15.9139 22.6368 15.872L22.9811 15.3302C23.0278 15.2571 23.105 15.2051 23.196 15.1864C24.3035 14.9574 25.7681 14.6941 27.161 14.4711ZM14.9061 16.9592C14.9588 16.9552 15.0088 16.9819 15.0294 17.0258C15.0988 17.1726 15.0799 17.3365 15.0127 17.4768C14.9866 17.5338 14.9061 17.5893 14.84 17.6024L14.2873 17.7139C14.254 17.7204 14.2235 17.6962 14.2257 17.6654L14.2773 17.0762C14.2812 17.0364 14.3157 17.0046 14.3595 17.0016L14.9061 16.9592ZM21.1941 13.1733C21.2579 13.1728 21.2979 13.2354 21.2663 13.2853L19.9189 15.3924C19.8439 15.5165 19.7184 15.6088 19.5695 15.6497L17.043 16.3675C16.7498 16.4482 16.5021 16.4916 16.1966 16.5128C15.6362 16.5511 13.9717 16.5986 13.9717 16.5986L14.0083 16.5269C14.0255 16.4931 14.0561 16.4664 14.0938 16.4518L14.8814 16.1481C14.9403 16.1254 14.9919 16.0906 15.0314 16.0457L16.2477 14.6857C16.3127 14.613 16.3976 14.5434 16.4882 14.5C17.2918 14.1161 18.7209 13.5396 19.7217 13.2359C19.8161 13.2071 19.9433 13.189 20.0427 13.188L21.1941 13.1733ZM19.8433 10.7264C22.6314 10.504 26.4042 10.4434 30.0082 10.6911C30.2132 10.7052 30.4125 10.7491 30.6019 10.8218C31.7827 11.2727 33.8777 12.2595 36.207 13.4696C36.3098 13.5231 36.4064 13.5857 36.4953 13.6568C37.1123 14.1507 38.6758 15.6035 38.6758 15.6035L38.1881 15.5157C38.1198 15.5036 38.0559 15.4794 37.9982 15.4441C37.0118 14.8423 35.5716 14.0588 34.3648 13.5065C34.2215 13.4414 34.0665 13.3995 33.9071 13.3844C33.3201 13.3274 32.5264 13.2774 32.0071 13.2583C31.7511 13.2487 31.5767 13.2098 31.3262 13.0943C30.8474 12.8739 29.6878 12.3962 29.1101 12.1959C28.863 12.1101 28.7369 12.09 28.4948 12.0935C27.5023 12.1066 25.2412 12.1722 24.0866 12.2373C24.0466 12.2393 24.0083 12.2378 23.9694 12.2322L23.419 12.154C24.9796 11.9099 28.8374 11.5976 30.4342 11.5214L29.7844 11.3242C29.6589 11.2864 29.5284 11.2662 29.3956 11.2632C29.049 11.2557 28.2781 11.2417 27.2775 11.2404L26.9357 11.2405C25.4201 11.2432 23.4701 11.277 21.6717 11.3999C21.5145 11.4105 21.3612 11.4448 21.2168 11.5028C20.4904 11.7926 18.7189 12.6649 16.9423 13.561L16.5478 13.7603C16.0885 13.9927 15.634 14.2239 15.2024 14.4442C15.2024 14.4442 15.424 14.1855 15.4668 14.135C15.5046 14.0911 15.5162 14.0831 15.5673 14.0528C15.6387 14.0103 15.8824 13.8645 16.1282 13.7165L16.3102 13.6067C16.4577 13.5175 16.5894 13.4374 16.6637 13.3909C16.7003 13.3682 16.7237 13.3521 16.7698 13.3208C17.3046 12.9546 18.1488 12.3089 18.652 11.9089C18.7659 11.8186 18.8625 11.7136 18.9419 11.5966C19.1046 11.3575 19.2824 11.0982 19.3918 10.9544C19.4851 10.8298 19.6445 10.7426 19.8433 10.7264ZM7.9703 4.90812C8.659 4.84355 9.04389 5.0867 9.04389 5.71979V6.06988C9.04389 6.71759 8.659 6.9794 7.9703 7.04448C7.0178 7.13478 6.06529 7.23264 5.11445 7.33857V8.29552C4.91506 8.31772 4.71512 8.33991 4.51573 8.36312V5.27032C5.66596 5.13815 6.8173 5.01759 7.9703 4.90812ZM39.9342 4.80784C41.4527 4.94202 42.97 5.09638 44.4846 5.26991V5.76882C43.8298 5.69366 43.1739 5.62202 42.5174 5.55443V8.14883C42.318 8.12814 42.1186 8.10796 41.9181 8.08779V5.49339C41.2578 5.4273 40.5957 5.36526 39.9342 5.30674V4.80784ZM14.7092 4.40135V4.89975C13.4601 4.96987 12.2115 5.0531 10.9641 5.14945V5.91117C12.0738 5.82491 13.184 5.74975 14.2948 5.68518V6.18408C13.184 6.24865 12.0738 6.32382 10.9641 6.40957V7.24545C12.2115 7.1486 13.4601 7.06536 14.7092 6.99575V7.49415C13.2646 7.57486 11.8211 7.67373 10.3782 7.79026V4.69696C11.8211 4.58043 13.2646 4.48206 14.7092 4.40135ZM34.1365 5.24858C34.1365 4.55495 34.5153 4.41219 35.3689 4.46466C36.1187 4.51157 36.8674 4.56252 37.6166 4.61902C38.3581 4.67451 38.8474 4.86368 38.8474 5.57143V6.95262C38.8474 7.64725 38.4247 7.77235 37.6166 7.71182C36.8674 7.65582 36.1187 7.60437 35.3689 7.55796C34.5525 7.50802 34.1365 7.36476 34.1365 6.62977V5.24858ZM28.3275 4.16975C29.7738 4.20103 31.2195 4.25047 32.6652 4.31806V4.81646C31.4155 4.75845 30.1653 4.71355 28.9146 4.68228V5.4435C30.027 5.47175 31.139 5.51008 32.2503 5.55902V6.05792C31.139 6.00899 30.027 5.97015 28.9146 5.9424V6.77777C30.1653 6.80905 31.4155 6.85395 32.6652 6.91246V7.41086C31.2195 7.34377 29.7738 7.29433 28.3275 7.26255V4.16975ZM20.8019 4.16703V6.40428C20.8019 7.11202 20.3926 7.2674 19.5678 7.2906C18.8497 7.31078 18.1316 7.33499 17.4135 7.36425C16.6481 7.39553 16.1805 7.26336 16.1805 6.56267V4.32543L16.767 4.29819V6.62977C16.767 6.77152 16.9008 6.88704 17.0786 6.87947C18.02 6.83962 18.9608 6.80733 19.9022 6.78262C20.081 6.77808 20.1999 6.65398 20.1999 6.51223V4.18065C20.4004 4.17561 20.6009 4.17107 20.8019 4.16703ZM35.0351 4.94338C34.8568 4.93228 34.723 5.04579 34.723 5.20772V6.73722C34.723 6.87897 34.8568 7.02778 35.0351 7.03888C36.0076 7.09739 36.979 7.16398 37.9504 7.23864C38.1059 7.25075 38.2614 7.1211 38.2614 6.97986V5.44985C38.2614 5.28843 38.1059 5.15475 37.9504 5.14264C36.979 5.06798 36.0076 5.00139 35.0351 4.94338ZM23.3955 4.13152C24.4735 4.12445 25.5515 4.12799 26.629 4.1411V4.6395C25.4771 4.62588 24.3247 4.62285 23.1722 4.63143C23.0161 4.63294 22.8601 4.75552 22.8601 4.89728V6.44695C22.8601 6.58871 23.0161 6.72894 23.1722 6.72743C24.2058 6.71936 25.2388 6.72087 26.2724 6.73146V5.89559C25.6726 5.88953 25.0728 5.88651 24.4735 5.88701V5.38811C25.2688 5.38811 26.0642 5.39366 26.8595 5.40425V7.23693C25.742 7.22179 24.6246 7.21776 23.5071 7.22381C22.689 7.22886 22.273 7.10072 22.273 6.37936V5.03146C22.273 4.35802 22.6446 4.13656 23.3955 4.13152ZM8.14803 5.39038C7.1361 5.48522 6.12472 5.58863 5.11445 5.70112V6.83967C6.12472 6.72768 7.1361 6.62376 8.14803 6.52943C8.30299 6.5143 8.4585 6.38566 8.4585 6.25097V5.62444C8.4585 5.48269 8.30299 5.37575 8.14803 5.39038Z" fill="white"/>
</svg>
