<svg width="58" height="15" viewBox="0 0 58 15" fill="none" xmlns="http://www.w3.org/2000/svg">
<path fill-rule="evenodd" clip-rule="evenodd" d="M28.9999 7.42448H28.6139C28.3776 7.42448 28.3776 7.42448 28.3 7.60221L25.9038 13.0914C25.6332 13.7116 24.4704 14.4051 23.964 14.4051H19.2555L24.5493 2.27816C24.9379 1.38794 25.7933 0.594849 26.5927 0.594849H31.4071C32.2065 0.594849 33.0619 1.38794 33.4505 2.27816L38.7443 14.4051H34.0359C33.5294 14.4051 32.3667 13.7116 32.096 13.0914L29.6998 7.60221C29.6222 7.42448 29.6222 7.42448 29.3859 7.42448H28.9999ZM44.8604 14.4051C44.6208 14.4051 44.452 14.3922 44.2182 14.357C42.0375 14.0281 40.3478 12.0509 40.3478 9.6804V5.31962C40.3478 2.91264 42.0899 0.91118 44.3192 0.628955C44.5235 0.603073 44.6546 0.594849 44.8604 0.594849H56.5493C56.9962 0.594849 57.3618 0.977639 57.3618 1.44551C57.3618 2.44228 57.3618 3.46039 57.3618 4.45716H47.7311C46.7543 4.45716 45.9553 5.29386 45.9553 6.31651C45.9553 7.07181 45.9553 7.82717 45.9553 8.58253C45.9553 9.60518 46.7543 10.4418 47.7311 10.4418H57.3618C57.3618 11.4386 57.3618 12.5577 57.3618 13.5544C57.3618 14.0223 56.9962 14.4051 56.5493 14.4051H44.8604ZM13.1394 14.4051C13.379 14.4051 13.5478 14.3922 13.7816 14.357C15.9622 14.0281 17.652 12.0509 17.652 9.6804C17.652 6.93544 17.652 4.19048 17.652 1.44551C17.652 0.977639 17.2864 0.594849 16.8395 0.594849C12.8559 0.594849 8.87232 0.594849 4.88864 0.594849C4.44182 0.594849 4.07616 0.977639 4.07616 1.44551C4.07616 2.44228 4.07616 3.46039 4.07616 4.45716H11.232C11.6789 4.45716 12.0446 4.84001 12.0446 5.30783C12.0446 6.39941 12.0446 7.49094 12.0446 8.58253C12.0446 9.60518 11.2454 10.4418 10.2686 10.4418H0.637939C0.637939 11.4386 0.637939 12.5577 0.637939 13.5544C0.637939 14.0223 1.00355 14.4051 1.45042 14.4051H13.1394Z" fill="white"/>
</svg>
