<svg width="48" height="19" viewBox="0 0 48 19" fill="none" xmlns="http://www.w3.org/2000/svg">
<path fill-rule="evenodd" clip-rule="evenodd" d="M24.0003 0C10.7458 0 0 4.25392 0 9.49975C0 14.7463 10.7458 19 24.0003 19C37.2542 19 48 14.7463 48 9.49975C48 4.25392 37.2542 0 24.0003 0ZM21.7237 2.11431C24.4634 1.33794 32.6013 2.11431 35.7624 3.3317C36.7743 4.10931 31.2509 6.60932 24.6753 7.69277C15.2734 9.21277 19.7419 3.39892 21.7237 2.11431ZM5.57694 13.3707C3.51038 12.189 -0.536751 8.80796 6.16752 5.29222C9.70883 3.63654 11.69 3.26373 14.1346 2.85893C15.3155 2.65529 16.1585 2.89241 15.1042 3.60256C12.8706 5.46213 8.23254 11.6126 7.81149 12.9656C7.47366 13.8789 6.79925 14.1143 5.57694 13.3707ZM24.8854 17.2925C20.9227 17.6296 12.112 16.5823 11.9425 15.6708C12.112 13.4721 25.9397 9.82146 28.427 11.8497C29.481 13.4382 27.4572 17.1908 24.8854 17.2925ZM45.0375 10.9024C44.0253 12.762 40.6102 14.8587 33.4443 16.2787C32.3473 16.4801 31.968 15.9399 32.6845 15.4329C33.8657 14.8587 39.5565 7.21975 40.2739 5.69777C40.6946 4.91966 41.4959 5.22475 42.0023 5.52811C44.2789 6.71102 46.0077 8.63805 45.0375 10.9024Z" fill="#FEFEFE"/>
</svg>
