<svg width="73" height="14" viewBox="0 0 73 14" fill="none" xmlns="http://www.w3.org/2000/svg">
<path d="M20.3691 2.0505C19.4247 0.760708 17.9412 0 16.3679 0C16.2894 0 16.2099 0.00180834 16.1316 0.00568159C15.0365 0.00568159 10.1852 0.00568159 7.37076 0.00568159H0V2.73607C5.93511 2.73607 12.9661 2.73607 16.0541 2.73607C16.1158 2.73039 16.1772 2.72806 16.2383 2.72806C16.7227 2.72806 17.1936 2.89306 17.5771 3.19647C17.8572 3.44616 18.0182 3.80844 18.0182 4.18931C18.0182 4.34527 17.9913 4.5002 17.9382 4.64635C17.6536 5.45535 16.843 5.65753 16.0546 5.66889C14.8283 5.66889 11.4769 5.66889 8.96923 5.66889C2.8255 5.66889 5.48668 5.66889 0.000251893 5.66889L0 8.35435C5.92454 8.35435 12.977 8.35435 16.0541 8.35435C17.0071 8.35435 18.0145 8.71404 18.0145 9.81534C18.0145 10.9166 17.0071 11.265 16.0541 11.2763C12.988 11.2763 5.93511 11.2763 0 11.2763V13.9956C5.94644 13.9956 13.7327 13.9956 16.1309 13.9956C16.2049 13.9982 16.2806 14 16.3548 14C17.9347 14 19.4224 13.2359 20.3691 11.9384C20.7798 11.304 21 10.5572 21 9.79494C21 8.7205 20.5654 7.69434 19.7999 6.96127C20.5488 6.23 20.9733 5.21417 20.9733 4.15316C20.9733 3.40794 20.7635 2.67693 20.3696 2.05102L20.3691 2.0505Z" fill="white"/>
<path d="M70.3009 1.62622C68.8069 0.606315 67.0454 0.0614255 65.2466 0.0614255C65.1442 0.0614255 65.0411 0.0634722 64.9399 0.0670553C63.3782 0.0670553 61.0196 0.0670554 58.9342 0H52.0437V2.74006C57.2088 2.74006 60.7794 2.74006 64.8193 2.80686C64.9053 2.80404 64.9946 2.80148 65.0815 2.80148C66.2259 2.80148 67.348 3.12397 68.3244 3.7313C69.3855 4.46712 70.0206 5.69127 70.0206 7.00013C70.0206 8.30873 69.3855 9.53288 68.3249 10.2692C67.3327 10.8975 66.185 11.2323 65.0167 11.2323C64.9332 11.2323 64.8474 11.2297 64.7648 11.2269C60.7794 11.3385 57.1213 11.3047 52 11.3047V14C57.1976 14 60.932 14 64.8958 13.9222C65.0014 13.9255 65.1091 13.9276 65.2152 13.9276C67.007 13.9276 68.762 13.3906 70.2572 12.3853C71.9755 11.1532 73 9.14309 73 7.00013C73 4.85691 71.9755 2.84704 70.2574 1.6147L70.3009 1.62622Z" fill="white"/>
<path d="M29.8698 6.21733C28.4895 6.21733 28.0544 5.72478 28.0437 4.28241C28.033 2.84003 28.0437 1.36266 28.0437 0.000263369L25 0C25 1.37397 25 4.1448 25 5.48456C25.0979 8.09542 25.9134 8.91975 28.4349 9C30.185 9 31.576 9 34 9V6.21733C32.087 6.21733 31.3045 6.21733 29.8698 6.21733Z" fill="white"/>
<path d="M44.8877 4.21339C44.8877 5.58422 44.4268 6.03015 43 6.05243C42.3145 6.05243 40.528 6.05243 39.056 6.05243H35V14H38.6853V8.7946H39.056C40.9773 8.7946 43.3708 8.7946 44.2807 8.7946C47.056 8.71674 47.899 7.93655 48 5.37265C48 5.03814 48 4.60349 48 4.12426V0H44.8877C44.8877 1.36007 44.8985 2.87561 44.8877 4.21339Z" fill="white"/>
</svg>
