<svg width="41" height="51" viewBox="0 0 41 51" fill="none" xmlns="http://www.w3.org/2000/svg">
<path d="M36.4395 33.7869C36.4736 33.812 36.5089 33.8392 36.544 33.8654C36.7723 33.2162 36.9393 32.5396 37.092 31.8692C37.2389 31.2189 37.3376 30.5626 37.441 29.9032L20.1311 17.0058C14.4747 21.2378 8.8125 25.4648 3.1349 29.6676C3.03542 29.7412 2.9389 29.8187 2.83936 29.8921C3.00529 31.1967 3.28182 32.5003 3.68892 33.7537C3.70004 33.789 3.7272 33.8202 3.74642 33.8524L20.1311 21.5972C25.5693 25.6571 31.0125 29.712 36.4395 33.7869ZM18.9185 47.8943C19.7369 47.9598 20.5584 47.9667 21.3801 47.8933C24.091 47.6347 26.6753 46.5978 28.8746 44.988C31.299 43.2123 33.2066 40.8657 34.6607 38.2454L20.1331 27.4288C19.7782 27.6956 19.4192 27.9573 19.0632 28.223C14.9364 31.2963 10.8185 34.3828 6.68258 37.4431C6.32255 37.7089 5.96661 37.9807 5.61161 38.2535C6.90283 40.5858 8.58118 42.7452 10.6646 44.4233C12.4285 45.8447 14.4707 46.956 16.674 47.5109C17.413 47.697 18.1572 47.8238 18.9185 47.8943ZM20.1331 11.0796C26.0278 15.4787 31.9184 19.8837 37.8151 24.2819C37.8875 24.3364 37.8976 24.2759 37.8895 24.1863C37.8544 23.8028 37.8433 23.4133 37.8182 23.0267C37.605 20.0229 36.9191 17.0228 35.7205 14.2566C35.2107 13.0809 34.6214 11.9303 33.9305 10.8501C33.2055 9.71557 32.3809 8.65552 31.477 7.66093C30.5479 6.64016 29.4729 5.73827 28.3306 4.96507C27.3854 4.32491 26.3555 3.77528 25.2897 3.37452C24.3063 3.0052 23.2887 2.71226 22.2488 2.55723C21.6977 2.47571 21.0633 2.40209 20.5113 2.39599C19.2723 2.38089 18.0214 2.48764 16.8187 2.79579C14.5603 3.37357 12.4747 4.43865 10.6646 5.9163C9.20858 7.10525 7.94553 8.51156 6.86858 10.0528C5.20637 12.4305 4.02093 15.1485 3.29188 17.953C2.78001 19.9231 2.4975 21.9365 2.40082 23.969C2.39489 24.0886 2.40082 24.2225 2.4068 24.3403L20.1331 11.0796ZM19.7149 50.3405C18.2627 50.2912 16.8339 50.0767 15.4431 49.66C12.7713 48.8598 10.3247 47.393 8.27543 45.5156C7.18746 44.5199 6.21195 43.4166 5.33418 42.2338C3.01429 39.104 1.4808 35.4468 0.664335 31.6518C-0.0376608 28.3891 -0.15631 25.0349 0.181584 21.722C0.585765 17.7728 1.82965 13.8458 3.82578 10.4152C4.60301 9.07933 5.49497 7.81093 6.51061 6.64625C8.391 4.488 10.6646 2.69011 13.2711 1.50222C14.5834 0.903237 15.976 0.477363 17.3979 0.231697C19.8747 -0.196138 22.4519 -0.0260004 24.8553 0.696793C27.4909 1.49013 29.9233 2.93763 31.9506 4.79393C34.1307 6.79121 35.9156 9.21618 37.232 11.8648C37.608 12.6229 37.9459 13.3968 38.2586 14.1841C39.4371 17.1508 40.136 20.6339 40.2537 23.824C40.3421 26.252 40.1922 28.6862 39.7247 31.0719C39.2591 33.4497 38.5139 35.762 37.4873 37.9575C35.9156 41.3176 33.64 44.2995 30.7197 46.5876C29.121 47.8389 27.2878 48.8567 25.362 49.4939C24.1131 49.9067 22.8311 50.1523 21.5249 50.2871C20.9235 50.3454 20.3181 50.3567 19.7149 50.3405Z" fill="#FEFEFE"/>
</svg>
