<svg width="50" height="52" viewBox="0 0 50 52" fill="none" xmlns="http://www.w3.org/2000/svg">
<path fill-rule="evenodd" clip-rule="evenodd" d="M10.5109 14.9576H17.4546V17.5203L12.9051 17.5266L12.9126 24.455L16.4841 24.4603L16.496 27.0567L12.9157 27.049L12.9011 38.1574H10.5109V14.9576ZM18.536 14.8901H20.9265V38.1574H18.536V14.8901ZM31.6837 38.0899H29.2932L29.2777 27.0289L25.9833 27.0284L25.9317 38.0921L23.7722 38.0899V14.8901H29.41L31.6837 19.4815V38.0899ZM29.2936 23.9412H25.9921V17.4529L28.0395 17.4462L29.2936 20.4878V23.9412ZM32.2155 14.9576H39.5381L39.5131 17.5626L37.1175 17.5568L37.0907 38.0899H34.7002L34.5937 17.5709L32.2125 17.5558L32.2155 14.9576ZM0.958687 14.3426C1.61197 10.3095 4.1918 7.33783 8.33193 4.94216C17.3702 -1.02241 31.7133 -1.11226 42.0356 5.15218C45.7623 7.096 47.9097 10.0655 48.9177 13.9139C51.0003 24.8573 49.1856 34.4164 44.576 42.6831C39.5437 54.202 12.9231 54.3977 6.66928 44.0276C1.37188 36.848 -1.20924 24.8795 0.958687 14.3426ZM39.9662 44.382C34.003 50.4275 14.1959 49.1294 10.5611 44.382C6.11409 34.6089 4.51524 24.5987 5.06205 14.4094C4.90368 11.0228 6.0153 8.7402 8.39673 7.56154C16.6669 3.84865 33.2041 3.44066 40.8747 7.41205C44.0417 8.6369 45.2011 11.6863 45.0715 16.1291C45.3256 27.2771 43.0444 36.4939 39.9662 44.382Z" fill="#FEFEFE"/>
</svg>
