<svg width="44" height="28" viewBox="0 0 44 28" fill="none" xmlns="http://www.w3.org/2000/svg">
<path fill-rule="evenodd" clip-rule="evenodd" d="M22 0C9.84972 0 0 6.26813 0 14C0 21.7321 9.84972 28 22 28C34.1503 28 44 21.7321 44 14C44 6.26813 34.1503 0 22 0ZM5.69911 8.4593C6.30457 10.9886 10.7082 13.0889 16.6682 13.8874C16.6669 14.0063 16.6661 14.1256 16.6661 14.2452C16.6661 20.2439 18.3946 25.2765 20.7246 26.6449C11.057 26.183 3.43089 20.8564 3.43089 14.3533C3.43089 12.2184 4.25287 10.2101 5.69911 8.4593ZM18.8553 14.1157C19.8729 14.1928 20.9245 14.2332 22 14.2332C23.0755 14.2332 24.1268 14.1928 25.1447 14.1157C25.0002 18.565 23.6474 22.0523 22 22.0523C20.3524 22.0523 18.9995 18.565 18.8553 14.1157ZM27.3318 13.8874C33.4269 13.0709 37.8942 10.8928 38.3361 8.28682C39.8726 10.0778 40.7496 12.1478 40.7496 14.3533C40.7496 20.9002 33.0207 26.2546 23.2605 26.6535C25.5978 25.2979 27.3339 20.2567 27.3339 14.2452C27.3339 14.1256 27.3331 14.0063 27.3318 13.8874ZM23.9061 2.31779C29.9994 2.62731 34.6704 4.399 34.6704 6.53806C34.6704 8.285 31.5549 9.78677 27.0939 10.4475C26.6079 6.7095 25.4236 3.70804 23.9061 2.31779ZM25.0101 10.6851C24.0452 10.7646 23.0372 10.8065 22 10.8065C20.9628 10.8065 19.9546 10.7646 18.9899 10.6851C19.3947 7.15737 20.5895 4.60092 22 4.60092C23.4105 4.60092 24.605 7.15737 25.0101 10.6851ZM16.9061 10.4475C12.4451 9.78677 9.32956 8.285 9.32956 6.53806C9.32956 5.81635 9.86146 5.13634 10.8003 4.54022C11.9017 3.98656 13.0993 3.51212 14.3734 3.12938C16.015 2.71173 17.9678 2.42591 20.0936 2.31779C18.5764 3.70804 17.3921 6.7095 16.9061 10.4475Z" fill="white"/>
</svg>
