<svg width="53" height="33" viewBox="0 0 53 33" fill="none" xmlns="http://www.w3.org/2000/svg">
<path fill-rule="evenodd" clip-rule="evenodd" d="M28.3313 0.763672C34.1196 0.763672 39.1781 3.89536 41.9078 8.55749C44.7277 8.70142 47.4715 9.10221 50.066 9.81739C50.8526 10.0762 51.3608 10.7015 51.3608 11.5121C51.3608 12.7714 50.0399 13.6106 48.9243 13.1277C33.1716 7.37458 11.1926 16.1601 7.12549 17.1715C6.82096 17.2472 6.73377 16.9155 6.72949 16.8486C6.72073 16.6809 6.81925 16.5389 6.94149 16.4805C8.74392 15.625 10.7145 14.7777 12.8108 13.9714C14.02 6.48317 20.5086 0.763672 28.3313 0.763672ZM44.9756 21.0528C31.1836 17.2496 13.184 22.3366 1.8505 27.7161C1.7289 27.7741 1.63038 27.9156 1.63978 28.0835C1.64277 28.1511 1.73018 28.4826 2.03514 28.4071C3.74675 27.9811 8.63108 26.1784 14.8879 24.6625C17.6462 29.2023 22.6348 32.2366 28.3313 32.2366C34.3662 32.2366 39.6064 28.8308 42.2421 23.8372C42.7789 23.9976 43.3108 24.1723 43.8342 24.3628C44.9491 24.8453 46.2705 24.0072 46.2705 22.7477C46.2705 21.9369 45.7619 21.3111 44.9756 21.0528ZM16.6875 24.2439C23.9607 22.6237 32.7392 21.5601 40.5069 23.378C38.1063 27.6241 33.5535 30.4917 28.3313 30.4917C23.4732 30.4917 19.1935 28.0095 16.6875 24.2439ZM47.4856 15.4695C33.6947 11.6669 15.6948 16.754 4.36137 22.1335C4.23892 22.1914 4.14061 22.3332 4.15002 22.5009C4.15386 22.5685 4.24127 22.9 4.54538 22.8241C8.61227 21.8122 30.5915 13.0267 46.3442 18.7804C47.4602 19.2627 48.7805 18.4235 48.7805 17.1646C48.7805 16.3539 48.2729 15.7289 47.4856 15.4695ZM39.8 8.49696C37.272 4.87723 33.0784 2.50799 28.3313 2.50799C21.7253 2.50799 16.19 7.09505 14.7293 13.2577C22.3397 10.5262 31.3268 8.43965 39.8 8.49696Z" fill="white"/>
</svg>
