<svg width="40" height="43" viewBox="0 0 40 43" fill="none" xmlns="http://www.w3.org/2000/svg">
<path fill-rule="evenodd" clip-rule="evenodd" d="M17.2466 41.9847C19.09 43.4011 20.7345 42.8907 22.5606 41.8988C30.5897 37.5378 39.7298 22.0304 39.7851 8.94811C39.7947 6.67742 38.9584 5.56645 37.7514 4.63475C28.875 -1.54071 8.97826 -1.47435 2.11177 4.93095C0.939777 6.02448 0.0181846 7.48929 0.172418 9.84853C1.09601 23.9841 7.44844 34.4553 17.2466 41.9847ZM3.90306 19.5569C9.28891 16.7255 20.5168 15.7322 34.9846 15.9344C36.9884 15.8673 37.5226 15.1912 37.5861 14.1599L37.8937 8.8752C37.969 7.57966 36.9107 6.66706 35.7415 5.91283C25.3276 0.915437 15.0801 1.27309 4.95004 5.43899C3.18742 6.31358 2.24314 7.61348 2.18308 9.37286C2.31355 12.83 2.76355 16.242 3.90306 19.5569ZM5.54411 7.76949H7.98137C8.46076 7.76949 8.83274 7.84495 9.09421 7.99423C9.35532 8.14497 9.55129 8.35971 9.68175 8.63973C9.81058 8.9212 9.87645 9.24685 9.87845 9.61942C9.88171 9.99199 9.83562 10.3858 9.74127 10.8024C9.59338 11.4552 9.41429 11.9612 9.20308 12.321C8.99296 12.6807 8.74564 12.9822 8.46076 13.2255C8.17589 13.4686 7.89318 13.6306 7.61175 13.7117C7.22708 13.8226 6.88849 13.878 6.59689 13.878H4.15945L5.54411 7.76949ZM6.86889 9.15158L6.11278 12.4874H6.5156C6.85891 12.4874 7.11349 12.4434 7.27897 12.3567C7.44355 12.2685 7.59161 12.1163 7.72371 11.8987C7.85617 11.6797 7.97683 11.3272 8.0877 10.838C8.23431 10.1911 8.2432 9.74889 8.11328 9.50996C7.98336 9.27104 7.7052 9.15158 7.27897 9.15158H6.86889ZM14.7413 7.76949H16.3793L15.5546 11.4083C15.4731 11.7679 15.3463 12.1092 15.1761 12.429C15.0057 12.7505 14.7891 13.0305 14.5258 13.2709C14.2625 13.5111 14.0059 13.6789 13.7552 13.7771C13.4059 13.9122 13.0074 13.9804 12.5614 13.9804C12.3032 13.9804 12.0265 13.9591 11.7305 13.9179C11.4348 13.8766 11.1978 13.7942 11.0207 13.6704C10.8438 13.5468 10.6955 13.3718 10.5779 13.1444C10.4589 12.9169 10.3959 12.6823 10.388 12.4405C10.3745 12.0523 10.4019 11.7083 10.4698 11.4083L11.2947 7.76949H12.9326L12.0883 11.495C12.0129 11.8276 12.0343 12.0879 12.1513 12.2741C12.2694 12.4618 12.4705 12.5556 12.7546 12.5556C13.035 12.5556 13.277 12.4632 13.4797 12.2785C13.6806 12.095 13.8201 11.8334 13.8969 11.495L14.7413 7.76949ZM20.1791 11.3784L21.5039 11.8774C21.3025 12.341 21.0626 12.7291 20.7835 13.0391C20.5055 13.3506 20.1952 13.5851 19.8507 13.7429C19.5074 13.9008 19.0976 13.9804 18.6221 13.9804C18.0439 13.9804 17.595 13.8837 17.2717 13.6919C16.95 13.4984 16.7119 13.1585 16.5562 12.6738C16.4005 12.1889 16.4083 11.5661 16.5796 10.8095C16.8086 9.79998 17.218 9.02375 17.8081 8.48044C18.3992 7.93877 19.1216 7.66712 19.9764 7.66712C20.6449 7.66712 21.1359 7.82222 21.4483 8.13351C21.7594 8.44499 21.9364 8.92265 21.9755 9.56815L20.4467 9.93653C20.4378 9.75161 20.4153 9.61669 20.379 9.53123C20.319 9.38759 20.2317 9.27667 20.117 9.19994C20.0013 9.12176 19.8617 9.08339 19.6975 9.08339C19.3245 9.08339 19 9.2554 18.7248 9.59815C18.5175 9.85271 18.3511 10.2536 18.2278 10.7982C18.0744 11.475 18.0586 11.9372 18.1806 12.1889C18.3031 12.439 18.5255 12.5641 18.849 12.5641C19.163 12.5641 19.423 12.4632 19.6297 12.2599C19.836 12.0579 20.0189 11.7637 20.1791 11.3784ZM25.3356 12.8714H23.4775L22.9825 13.878H21.3086L24.6909 7.76949H26.4858L27.09 13.878H25.373L25.3356 12.8714ZM25.2882 11.549L25.2064 9.35359L24.1269 11.549H25.2882ZM28.1114 7.76949H33.0999L32.7575 9.27958H31.0825L30.0401 13.878H28.4021L29.4444 9.27958H27.7692L28.1114 7.76949ZM33.9015 7.76949H35.5471L34.1625 13.878H32.5169L33.9015 7.76949ZM36.0234 18.24C36.2479 18.2238 36.4061 18.2836 36.3546 18.5836C34.1436 27.0398 29.352 34.3693 21.6274 40.1793C20.5578 40.9839 19.374 40.794 18.3165 40.0846C13.774 37.064 10.9719 33.2807 8.45423 29.3726C7.65312 27.9724 8.34082 26.7556 9.46528 25.5926C15.0868 19.8897 26.089 18.5167 36.0234 18.24ZM17.582 40.8795C19.3417 42.1889 20.8352 41.637 22.5214 40.6391C30.428 35.9599 38.4988 21.7489 38.7897 9.5536C38.841 7.40111 38.0118 6.34704 36.8759 5.46353C28.5237 -0.392097 10.1352 0.045929 3.44708 5.12842C2.28034 6.01484 1.15208 6.3585 1.23191 8.60627C1.71693 22.2555 8.165 33.8718 17.582 40.8795Z" fill="black"/>
<path fill-rule="evenodd" clip-rule="evenodd" d="M17.5821 40.8795C19.3418 42.1889 20.8353 41.637 22.5216 40.6391C30.4281 35.9599 38.4989 21.7489 38.7898 9.5536C38.8411 7.40111 38.0119 6.34704 36.876 5.46353C28.5238 -0.392096 10.1353 0.0459304 3.44719 5.12842C2.28046 6.01484 1.15219 6.3585 1.23203 8.60627C1.71705 22.2555 8.16511 33.8718 17.5821 40.8795ZM5.54423 7.76949H7.98148C8.46088 7.76949 8.83285 7.84495 9.09433 7.99424C9.35544 8.14497 9.5514 8.35971 9.68187 8.63973C9.8107 8.9212 9.87656 9.24686 9.87856 9.61943C9.88183 9.99199 9.83574 10.3858 9.74138 10.8024C9.5935 11.4552 9.41441 11.9612 9.2032 12.321C8.99308 12.6807 8.74576 12.9822 8.46088 13.2255C8.176 13.4686 7.8933 13.6306 7.61187 13.7117C7.22719 13.8226 6.8886 13.878 6.59701 13.878H4.15957L5.54423 7.76949ZM6.869 9.15158L6.1129 12.4874H6.51572C6.85902 12.4874 7.1136 12.4434 7.27908 12.3567C7.44366 12.2685 7.59173 12.1163 7.72382 11.8987C7.85628 11.6797 7.97695 11.3272 8.08781 10.838C8.23443 10.1911 8.24332 9.74889 8.1134 9.50996C7.98348 9.27104 7.70531 9.15158 7.27908 9.15158H6.869ZM14.7415 7.76949H16.3794L15.5547 11.4083C15.4733 11.7679 15.3464 12.1092 15.1762 12.4291C15.0058 12.7505 14.7892 13.0305 14.5259 13.2709C14.2626 13.5111 14.006 13.6789 13.7553 13.7771C13.406 13.9122 13.0075 13.9804 12.5615 13.9804C12.3033 13.9804 12.0266 13.9591 11.7306 13.9179C11.4349 13.8766 11.1979 13.7942 11.0208 13.6704C10.8439 13.5468 10.6956 13.3718 10.5781 13.1444C10.459 12.9169 10.3961 12.6823 10.3881 12.4405C10.3747 12.0523 10.402 11.7083 10.4699 11.4083L11.2948 7.76949H12.9328L12.0885 11.495C12.013 11.8276 12.0344 12.0879 12.1514 12.2741C12.2695 12.4618 12.4706 12.5556 12.7548 12.5556C13.0351 12.5556 13.2771 12.4632 13.4798 12.2785C13.6807 12.095 13.8202 11.8334 13.897 11.495L14.7415 7.76949ZM20.1792 11.3784L21.504 11.8774C21.3026 12.341 21.0627 12.7291 20.7836 13.0391C20.5056 13.3506 20.1954 13.5851 19.8508 13.7429C19.5075 13.9008 19.0978 13.9804 18.6222 13.9804C18.0441 13.9804 17.5952 13.8837 17.2718 13.6919C16.9501 13.4984 16.712 13.1585 16.5563 12.6738C16.4007 12.1889 16.4085 11.5661 16.5798 10.8095C16.8087 9.79998 17.2181 9.02375 17.8082 8.48045C18.3993 7.93878 19.1217 7.66712 19.9765 7.66712C20.645 7.66712 21.136 7.82222 21.4485 8.13352C21.7595 8.44499 21.9366 8.92266 21.9756 9.56815L20.4468 9.93654C20.438 9.75162 20.4155 9.6167 20.3792 9.53124C20.3191 9.38759 20.2318 9.27668 20.1172 9.19995C20.0014 9.12176 19.8618 9.08339 19.6976 9.08339C19.3246 9.08339 19.0001 9.2554 18.7249 9.59815C18.5177 9.85271 18.3513 10.2536 18.2279 10.7982C18.0745 11.475 18.0588 11.9372 18.1807 12.1889C18.3032 12.4391 18.5256 12.5642 18.8492 12.5642C19.1631 12.5642 19.4231 12.4632 19.6298 12.26C19.8361 12.0579 20.019 11.7637 20.1792 11.3784ZM25.3357 12.8714H23.4776L22.9826 13.878H21.3087L24.691 7.76949H26.4859L27.0902 13.878H25.3731L25.3357 12.8714ZM25.2883 11.549L25.2065 9.35359L24.1271 11.549H25.2883ZM28.1115 7.76949H33.1L32.7576 9.27959H31.0826L30.0402 13.878H28.4022L29.4445 9.27959H27.7693L28.1115 7.76949ZM33.9017 7.76949H35.5473L34.1626 13.878H32.517L33.9017 7.76949ZM3.90318 19.5569C9.28902 16.7255 20.5169 15.7322 34.9848 15.9344C36.9885 15.8673 37.5227 15.1912 37.5862 14.1599L37.8938 8.8752C37.9691 7.57966 36.9109 6.66706 35.7416 5.91283C25.3277 0.915438 15.0802 1.2731 4.95015 5.43899C3.18753 6.31359 2.24326 7.61348 2.1832 9.37286C2.31366 12.83 2.76366 16.242 3.90318 19.5569ZM36.0236 18.24C36.248 18.2238 36.4062 18.2836 36.3547 18.5836C34.1437 27.0398 29.3521 34.3693 21.6276 40.1793C20.5579 40.9839 19.3741 40.7941 18.3166 40.0846C13.7741 37.064 10.972 33.2807 8.45435 29.3726C7.65324 27.9724 8.34094 26.7556 9.46539 25.5926C15.0869 19.8897 26.0891 18.5167 36.0236 18.24Z" fill="#FEFEFE"/>
</svg>
