<svg width="57" height="42" viewBox="0 0 57 42" fill="none" xmlns="http://www.w3.org/2000/svg">
<path fill-rule="evenodd" clip-rule="evenodd" d="M9.95782 9.04899L9.95966 5.57936C20.361 5.03996 25.4933 1.91891 28.0506 0.000366211C30.7929 1.94617 35.7251 5.03996 46.1259 5.57936L46.1209 9.04899C44.7053 9.55982 43.6842 10.8048 43.6365 12.3847H42.3878C42.4282 10.5959 43.4061 9.12867 44.8492 8.2745L44.8529 6.70271C36.4545 6.11089 30.9709 3.50801 28.0506 1.49877C25.5002 3.37093 20.373 5.87972 11.2332 6.70271L11.2369 8.2745C12.6797 9.12867 13.6576 10.5959 13.6979 12.3847H12.4493C12.4019 10.8048 11.3731 9.55982 9.95782 9.04899ZM41.2558 10.9704V12.3847H39.8963V11.2739C39.8963 10.9267 39.4773 10.7676 39.2891 10.7676H37.9872V12.3847H36.628V6.41492L39.8963 7.09454C40.3592 7.19571 41.2558 7.49974 41.2558 8.39611V9.36508C41.2558 9.71184 41.2126 10.0156 40.7786 10.2329C40.9812 10.3485 41.2558 10.7387 41.2558 10.9704ZM35.4711 7.41246V11.0572C35.4858 11.5054 35.225 12.3847 34.0393 12.3847H32.2604C31.6676 12.3847 30.9012 12.0694 30.9012 10.9993V5.67712C30.9012 5.04075 31.552 4.63607 32.2751 4.89633L34.6468 5.80712C35.225 6.03881 35.4858 6.54492 35.4711 7.41246ZM25.5793 5.74972V4.24555L28.0506 2.90047L30.6407 4.31789V5.8218L28.8477 4.85283V12.3847H27.3726V4.76607L25.5793 5.74972ZM25.4058 5.67712V10.9993C25.4058 12.0694 24.6392 12.3847 24.0463 12.3847H22.2675C21.0817 12.3847 20.8215 11.5054 20.8359 11.0572V7.41246C20.8215 6.54492 21.0817 6.03881 21.6602 5.80712L24.0319 4.89633C24.755 4.63607 25.4058 5.04075 25.4058 5.67712ZM17.6108 12.3847L16.4971 10.0012V12.3847H15.1379V7.36922L16.4971 7.12337L17.5675 9.40833L18.7535 6.64635L20.026 6.31349V12.3847H18.6668V9.9147L17.6108 12.3847ZM46.2884 30.5805C42.8756 34.0512 32.5629 41.2824 28.0506 41.2824C23.5386 41.2824 13.2579 34.0512 9.84486 30.5805C11.6093 29.7995 11.8984 28.6617 12.014 27.7651H13.4314C13.3446 28.604 13.1711 29.9441 12.014 30.754C13.3446 32.0265 23.3072 40.0097 28.0506 40.0097C32.7938 40.0097 42.7888 32.0265 44.1192 30.754C42.9624 29.9441 42.7888 28.604 42.7021 27.7651H44.1192C44.2348 28.6617 44.5242 29.7995 46.2884 30.5805ZM16.3729 31.387C16.4502 31.4389 19.5036 33.8192 19.5036 33.8192V35.2684C19.5036 35.2684 15.2084 32.06 15.0789 31.9822C14.924 31.8787 14.717 31.5165 14.6651 31.2578C14.6134 30.9988 14.6651 28.929 14.6651 28.696C14.6651 28.4633 14.924 27.7651 15.286 27.7651H18.6241V29.1361H16.6316C16.321 29.1101 16.1399 29.2137 16.1399 29.498V31.025C16.1399 31.1286 16.2694 31.3353 16.3729 31.387ZM19.425 27.7651H20.8223L21.5724 30.0941L22.7885 27.7651H24.1082L22.2195 31.8538V36.7442C22.2195 36.977 20.8998 36.2525 20.8739 36.0714C20.8223 35.8903 20.8739 31.8019 20.8739 31.8019L19.425 27.7651ZM25.9481 36.6362C26.0257 36.7914 27.7335 37.5934 27.7335 37.5934V39.1977C27.7335 39.1977 24.9906 38.0335 24.732 37.7745C24.4473 37.4902 24.4216 37.1796 24.4216 37.0504V28.9254C24.4216 28.4337 25.4048 27.7651 25.6375 27.7651H27.6556V29.2357C27.6556 29.2876 26.4914 29.2876 26.2068 29.2357C26.0516 29.2097 25.8446 29.4168 25.8446 30.1412V36.1443C25.8446 36.274 25.8446 36.5068 25.9481 36.6362ZM31.769 36.2476V37.6448C31.769 37.6448 29.4919 38.6541 29.1299 38.8352C28.9229 38.9388 28.6899 38.7577 28.6899 38.4471V27.7651H30.2428V36.8687L31.769 36.2476ZM35.1057 31.3353V32.5255H33.6569V35.3976L35.4163 34.5696V35.8376L33.0873 37.0019C32.8027 37.1311 32.4407 37.0019 32.4407 36.7432V28.2822C32.4407 27.9456 32.7249 27.7651 32.9581 27.7651H35.6748V29.2394H33.6569V31.3353H35.1057ZM39.5795 31.4352C39.5795 31.4352 37.3029 31.4871 36.8888 31.4352C36.5001 31.3836 36.3452 31.3057 36.3452 31.0211C36.3452 30.7624 36.3193 29.0548 36.3452 28.5629C36.3968 28.0715 37.1734 27.817 37.5354 27.7651C37.8719 27.7394 40.9508 27.7651 40.9508 27.7651V29.1067H37.6649C37.5354 29.1067 37.5613 30.2191 37.6649 30.2191H40.6148C41.0286 30.2191 40.977 30.3226 40.977 30.5037V32.1596C40.977 32.3407 40.718 32.5478 40.6148 32.6513C40.5369 32.7289 36.2157 35.3423 36.2157 35.3423V34.1778C36.2157 34.1778 39.6573 32.0045 39.6833 31.8491C39.7349 31.6163 39.5795 31.4352 39.5795 31.4352ZM56.0648 26.4735H0.0109863V13.8627H56.0648V26.4735ZM22.5136 6.96428L23.6125 6.53051C23.8149 6.44375 24.0463 6.53051 24.0463 6.84869V10.5511C24.0463 10.7967 23.9307 10.9993 23.627 10.9993H22.6292C22.311 10.9993 22.1954 10.8402 22.1954 10.5796V7.62948C22.1954 7.31129 22.2242 7.10896 22.5136 6.96428ZM34.1116 7.62948V10.5796C34.1116 10.8402 33.996 10.9993 33.6778 10.9993H32.68C32.3765 10.9993 32.2604 10.7967 32.2604 10.5511V6.84869C32.2604 6.53051 32.4921 6.44375 32.6947 6.53051L33.7937 6.96428C34.0828 7.10896 34.1116 7.31129 34.1116 7.62948ZM39.6073 8.35287C39.8963 8.41053 39.8963 8.68547 39.8963 8.93131C39.8963 9.1769 39.8528 9.40833 39.5926 9.40833H37.9872V8.02027L39.6073 8.35287ZM1.3123 15.0193V25.1716H54.7921V15.0193H1.3123ZM6.30078 23.9859H5.12345V20.5912H4.19326V23.9859H3.01619V16.0779H4.19326V19.2404H5.12345V16.0779H6.30078V23.9859ZM9.04258 23.9859L8.83474 21.929H7.97296L7.73209 23.9859H6.66562L7.5654 16.0779H9.33141L10.2312 23.9859H9.04258ZM13.9724 18.5547C13.9724 19.1431 13.8654 19.6042 13.4424 19.9391C13.5037 20.0088 13.9577 20.3116 13.9713 20.847L13.9721 23.9859H12.7948L12.795 21.3405C12.795 20.8633 12.5927 20.711 11.8418 20.711V23.9859H10.6644V16.0779H12.6097C13.5541 16.0779 13.9724 16.411 13.9724 17.4327V18.5547ZM17.0266 23.9859H14.6533V16.0779H15.8309V22.736H17.0266V23.9859ZM19.8763 23.9859H17.421V16.0779H19.8541V17.3132H18.5984V19.2448H19.7988V20.4942H18.5984V22.736H19.8763V23.9859ZM22.6071 23.9859H21.4301V21.0315L20.2192 16.0779H21.4301L22.0646 18.8407L22.7183 16.0779H23.818L22.6071 20.976V23.9859ZM25.6084 20.5005H23.4534V19.5027H25.6084V20.5005ZM29.3184 22.553C29.3184 23.3084 28.8296 23.9859 27.9191 23.9859H26.2419V16.0779H27.6635C28.8296 16.0779 29.3184 16.4779 29.3184 17.8659V22.553ZM32.008 23.9859L31.8004 21.929H30.9384L30.697 23.9859H29.6311L30.5306 16.0779H32.2963L33.1966 23.9859H32.008ZM35.2486 23.9859H33.9313L32.8258 16.0779H34.0262L34.5981 20.8331L35.1684 16.0779H36.3544L35.2486 23.9859ZM37.864 23.9859H36.6867V16.0779H37.864V23.9859ZM41.6398 22.553C41.6398 23.3084 41.1513 23.9859 40.2405 23.9859H38.5631V16.0779H39.9849C41.1513 16.0779 41.6398 16.4779 41.6398 17.8659V22.553ZM45.4714 18.7623H44.2941V17.6589C44.2941 17.2589 44.0563 17.1703 43.8228 17.1703C43.5788 17.1703 43.3555 17.2589 43.3555 17.6589V18.5351C43.3555 19.1015 45.4567 20.1035 45.4567 20.9028V22.8086C45.4567 23.8415 44.5452 24.1413 43.8118 24.1413C43.0897 24.1413 42.1923 23.8415 42.1923 22.8086V21.0882H43.3697V22.4917C43.3697 22.8914 43.5788 22.9802 43.8228 22.9802C44.0563 22.9802 44.2794 22.8914 44.2794 22.4917V21.6585C44.2794 20.548 42.1776 20.2405 42.1776 18.9523V17.255C42.1776 16.2226 43.0897 15.9225 43.8118 15.9225C44.5452 15.9225 45.4714 16.2226 45.4714 17.255V18.7623ZM49.2941 22.8086C49.2941 23.8415 48.3453 24.1413 47.6235 24.1413C46.9014 24.1413 45.9752 23.8415 45.9752 22.8086V17.255C45.9752 16.2226 46.9014 15.9225 47.6235 15.9225C48.3453 15.9225 49.2941 16.2226 49.2941 17.255V22.8086ZM53.3361 23.9859H51.8959L50.9597 19.4841V23.9859H49.7763V16.0779H51.3688L52.1384 20.0985V16.0779H53.3361V23.9859ZM8.11292 20.5925L8.38734 17.5218H8.46518L8.69504 20.5925H8.11292ZM11.8418 17.1664H12.3073C12.5741 17.1664 12.7518 17.3567 12.7518 17.6568V18.8435C12.7518 19.1324 12.6627 19.4846 12.2517 19.4846H11.8418V17.1664ZM27.419 17.3255C27.9227 17.3255 28.141 17.2684 28.141 17.9147V22.1494C28.141 22.7952 27.9225 22.738 27.419 22.738V17.3255ZM31.0784 20.5925L31.3525 17.5218H31.4306L31.66 20.5925H31.0784ZM39.7404 17.3255C40.2441 17.3255 40.4625 17.2684 40.4625 17.9147V22.1494C40.4625 22.7954 40.2441 22.738 39.7404 22.738V17.3255ZM47.1522 22.3326V17.6877C47.1522 17.288 47.3902 17.1992 47.6345 17.1992C47.879 17.1992 48.1167 17.288 48.1167 17.6877V22.3326C48.1167 22.7325 47.879 22.8211 47.6345 22.8211C47.3902 22.8211 47.1522 22.7325 47.1522 22.3326Z" fill="#FEFEFE"/>
</svg>
