<svg width="51" height="35" viewBox="0 0 51 35" fill="none" xmlns="http://www.w3.org/2000/svg">
<path fill-rule="evenodd" clip-rule="evenodd" d="M22.6127 30.5063C22.2247 30.5068 19.6365 30.8378 18.9819 30.8925C17.663 31.0024 15.9137 31.2664 14.6774 31.3497C14.0792 31.3904 13.008 31.541 12.341 31.6049C12.0668 31.6311 11.8214 31.6724 11.5342 31.6728L11.5793 31.6923C11.7466 31.7674 11.7801 31.8372 11.9311 31.9885C12.0614 32.119 12.17 32.2448 12.3116 32.3527C12.649 32.6104 13.2824 33.3537 13.5845 33.6069C14.422 34.3082 13.881 34.1992 14.8707 34.1994H32.4928C32.4208 34.1016 29.3959 32.3516 29.1055 32.1771L25.6902 30.1825C25.1259 30.1827 23.5331 30.4309 22.8078 30.4749C22.6944 30.4817 22.6651 30.5063 22.6127 30.5063ZM0.682129 23.3801V24.0927C0.749871 24.2 0.780355 24.5308 0.818064 24.669C0.955355 25.1725 1.21526 25.6937 1.51919 26.1058C1.96494 26.7094 2.52042 27.2172 3.05445 27.7454C3.13439 27.8246 3.17006 27.8373 3.2491 27.9071C3.61897 28.2338 3.95361 28.61 4.30226 28.9595C4.42758 29.0855 4.52987 29.1937 4.6579 29.3165L5.03116 29.6559C6.02923 30.6533 7.02435 31.664 8.06013 32.6199L8.57813 33.1383C8.82381 33.3838 9.04532 33.6057 9.291 33.851C9.36868 33.9289 9.57506 34.1463 9.67171 34.1829C9.82526 34.2405 12.8301 34.1994 13.1536 34.1994C13.0755 34.0829 12.7212 33.7841 12.5982 33.6859L10.9263 32.1509C10.8468 32.0809 10.8118 32.0687 10.7316 31.9894C10.4754 31.7358 10.0727 31.3438 9.80335 31.1356C9.64913 31.0162 9.57055 30.9065 9.42829 30.7981L8.12493 29.6072C8.04455 29.527 8.01 29.5155 7.93029 29.4455L6.43952 28.0857C6.3729 28.0184 6.33045 27.9676 6.25865 27.9102C5.80613 27.5494 4.72406 26.5249 4.20516 26.0439C4.12681 25.9715 4.08955 25.9597 4.00984 25.8829C3.43087 25.3265 2.893 24.4263 3.23081 23.6285C3.63071 22.6848 5.36874 21.9722 6.2661 21.6753C7.50713 21.2645 8.72874 20.81 9.95939 20.3796C11.5425 19.8259 13.1173 19.2408 14.7049 18.7113C15.0504 18.5959 15.3914 18.4595 15.7576 18.3387L18.9239 17.2289C19.2791 17.1004 19.607 16.9787 19.9768 16.8563C21.737 16.2744 23.4633 15.5907 25.2246 15.0101C25.5872 14.8905 25.9293 14.7525 26.2773 14.6375C26.6372 14.5188 26.9653 14.3849 27.33 14.2647C27.699 14.143 28.0332 14.0082 28.3829 13.8924C28.7431 13.7734 29.0712 13.6397 29.4354 13.5196C30.1551 13.2823 30.8277 13.0237 31.5408 12.7744L34.7003 11.6578C35.7354 11.2696 36.8035 10.9316 37.842 10.5559L41.0005 9.43835C42.0578 9.07864 43.1003 8.66903 44.1591 8.32084C44.5161 8.20342 44.8449 8.06906 45.2116 7.94803C46.5967 7.49122 47.8533 6.98338 48.7502 5.78548C48.9614 5.50345 49.1214 5.23158 49.284 4.894C49.6395 4.15629 50.332 2.14277 50.6294 1.25061C50.6698 1.1289 50.7865 0.841902 50.7954 0.73645C50.4801 0.810063 49.4909 1.26574 49.1576 1.39851L38.6711 5.68342C36.2329 6.65258 33.8393 7.68271 31.4008 8.64984L28.9854 9.63571C28.7137 9.75313 28.4444 9.85226 28.1838 9.96787C27.139 10.431 26.0271 10.8591 24.9638 11.2832C20.6353 13.0093 16.3569 14.8306 12.0339 16.5585C10.9355 16.9974 9.88713 17.4468 8.78994 17.8822L5.56858 19.1961C4.54048 19.6098 3.39926 20.0099 2.51455 20.6772C1.89629 21.1435 1.24235 21.7699 0.945193 22.5092L0.706742 23.3074C0.704935 23.3151 0.701097 23.3268 0.699742 23.3329C0.698161 23.3385 0.69229 23.3611 0.691161 23.3568C0.690032 23.3523 0.686419 23.3731 0.682129 23.3801ZM5.24974 25.8093C5.40555 25.8093 6.24058 25.5697 6.47406 25.5113L11.3332 24.2479C11.676 24.1627 14.8368 23.3184 15.0001 23.3151C14.9721 23.2107 14.6142 22.6729 15.1979 22.4437L18.0451 21.6949C19.8974 21.2049 21.9504 20.6332 23.7853 20.1791C25.4511 19.767 27.2232 19.2508 28.9041 18.819C30.7941 18.3335 32.7013 17.7855 34.6055 17.2966L40.8962 15.6185C41.0963 15.5683 41.2595 15.5236 41.4594 15.469C42.3068 15.2368 42.8312 15.1933 43.5716 14.6981C43.7305 14.5919 43.8493 14.5084 44.0029 14.3844C44.2858 14.1561 44.8388 13.6343 45.0804 13.3238C45.9796 12.1684 46.3625 11.6113 47.0594 10.2169L47.5236 9.22361L43.2193 10.6207C39.8842 11.7375 36.4883 12.8151 33.145 13.9249C32.19 14.2419 31.234 14.5544 30.2616 14.864L25.9454 16.2814C25.47 16.4393 24.9961 16.6197 24.5106 16.7579C24.0027 16.9024 23.557 17.0907 23.0663 17.2251C22.5878 17.3558 22.1123 17.5414 21.6291 17.699C21.3723 17.7828 21.1673 17.8413 20.9162 17.9255C16.3829 19.4416 11.7455 20.8849 7.21336 22.3958C6.45261 22.6494 5.112 23.0789 4.5039 23.5088C4.33952 23.6249 4.19523 23.8651 4.15097 24.0961C4.09519 24.3867 4.1889 24.6245 4.31106 24.8368C4.42442 25.0339 4.59377 25.1692 4.75568 25.3315C4.81642 25.3923 5.21406 25.8093 5.24974 25.8093ZM5.76774 26.3601L6.89406 27.3398C6.94781 27.3902 6.96881 27.4202 7.02639 27.4661L7.30006 27.7111C7.38248 27.7799 7.89845 28.2099 7.90974 28.2722L7.9059 28.3036C8.67523 28.1245 10.1382 27.8985 10.9048 27.7716C11.932 27.6013 12.9001 27.4277 13.9221 27.2579L19.1788 26.3598C19.2561 26.3474 19.3064 26.3449 19.3803 26.3303C19.562 26.2944 19.5169 26.356 19.3938 26.1139C19.215 25.7624 19.4311 25.4733 19.8992 25.3634C20.1988 25.2929 20.5045 25.3037 20.8175 25.245L23.3714 24.7214C23.6765 24.6604 23.9397 24.6015 24.2295 24.5428L36.2209 22.1192C36.526 22.058 36.743 22.0189 37.0878 21.9817C38.0504 21.8778 39.2119 21.3483 40.047 20.8269L41.2146 19.9214L42.1741 18.8398C42.6453 18.2116 42.6381 18.1421 42.9822 17.5751C43.0795 17.4145 43.2683 17.0568 43.3126 16.8687C43.1227 16.8728 41.2031 17.3881 40.9734 17.4452C35.4913 18.8134 30.0069 20.2414 24.5307 21.6048C19.8416 22.772 15.1599 24.0038 10.4781 25.1746C9.68187 25.3737 8.90645 25.5767 8.12606 25.7705C7.9251 25.8204 5.90684 26.3571 5.76774 26.3601ZM29.8042 24.9994L24.635 25.9202C24.3588 25.9724 24.1371 26.0031 23.8625 26.055C23.7261 26.0807 23.592 26.1054 23.4782 26.1241L22.0484 26.3788C21.6857 26.4465 21.3674 26.5001 21.0067 26.5683C18.4143 27.0567 15.7613 27.4785 13.1724 27.966L8.45687 28.822C8.52664 28.9268 8.65445 29.0496 8.75787 29.1361L9.90677 30.1902C9.96819 30.2469 10.0079 30.2923 10.0682 30.3525C10.1294 30.414 10.1674 30.4551 10.2295 30.5151C10.3053 30.5881 10.3338 30.5951 10.4083 30.6603C10.5268 30.7646 10.6149 30.8766 10.7319 30.9846C10.9254 31.1632 10.9773 31.1492 10.938 31.2246C10.8637 31.3662 10.8762 31.1146 10.9186 31.2515C11.0573 31.2397 11.1512 31.2 11.3079 31.1871L12.6171 31.0385C13.6951 30.8906 14.9759 30.7976 16.0507 30.6499C17.1595 30.4973 18.4102 30.397 19.5126 30.2568C20.9492 30.0741 22.4359 29.9432 23.8496 29.7673C24.1344 29.7318 24.4498 29.6862 24.7183 29.6641C24.6513 29.5385 24.5564 29.3926 24.5564 29.2432C24.5564 28.5998 25.7116 28.6669 26.3283 28.5854C27.0245 28.4933 27.7803 28.3953 28.4821 28.3095C29.2083 28.2207 29.9125 28.1399 30.6365 28.0346C31.5684 27.8989 31.8357 27.9515 32.8144 27.7506C34.1446 27.4774 35.1099 26.9569 36.1441 26.1889C36.8091 25.6951 37.4181 24.9614 37.8833 24.2673C37.9899 24.1083 38.285 23.642 38.3238 23.477C38.227 23.5233 37.4579 23.6434 37.2874 23.6716L29.8042 24.9994Z" fill="white"/>
</svg>
