<svg width="60" height="33" viewBox="0 0 60 33" fill="none" xmlns="http://www.w3.org/2000/svg">
<path fill-rule="evenodd" clip-rule="evenodd" d="M52.3049 14.6957H45.4754C45.4754 14.5025 45.7901 14.3501 45.7901 12.6029V7.14843C45.7901 5.46666 45.4754 5.25002 45.4754 5.06944H49.1818C49.1818 5.21182 48.9191 5.53327 48.9191 7.17471V12.7059C49.3938 12.7881 49.8751 12.8299 50.3572 12.8302C52.1348 12.8315 52.3148 12.5442 52.5701 12.5442L52.3049 14.6957ZM20.2674 19.1528C20.0606 19.6096 19.9591 20.0637 19.9591 21.186V27.1715C19.9745 28.2391 20.2674 28.5942 20.2674 28.7332H18.0117C17.5369 28.5315 17.0095 27.943 16.3354 27.2173C15.7865 26.6239 13.1674 23.6521 13.1674 23.6521H13.1249C13.1249 23.6521 13.1249 26.4623 13.1249 26.5142C12.3314 26.5998 11.5471 26.7514 10.7791 26.9674V21.186C10.7791 19.5045 10.4643 19.2891 10.4643 19.1079H13.1988L17.6108 24.364V21.186C17.6108 19.5039 17.2975 19.2848 17.2975 19.1079H20.2674V19.1528ZM58.0978 24.2186C58.0978 27.5049 55.6631 30.1155 51.5917 30.1155C48.4378 30.1155 47.4403 28.7466 43.5234 28.7356H41.9018C41.9018 28.5395 42.2151 28.3931 42.2151 26.6414V21.185C42.2151 19.51 41.9018 19.2808 41.9018 19.1079H45.6609C45.6609 19.2191 45.3465 19.6707 45.3465 21.2147V27.0807C47.6871 27.0807 48.6923 27.7826 50.7486 27.7826C53.5932 27.7826 54.9603 26.227 54.9603 24.0298C54.9603 22.1454 53.9815 20.7392 52.2772 20.7392H51.1809V26.6988C50.136 26.7498 48.9455 26.6093 48.0483 26.3007V21.185C48.0483 19.506 47.7335 19.2824 47.7335 19.1079H52.1197C55.7898 19.1079 58.0978 21.3244 58.0978 24.2186ZM40.9735 26.7349L40.7228 28.7332H34.0812C34.0812 28.5434 34.396 28.387 34.396 26.6414V21.186C34.396 19.5048 34.0812 19.2848 34.0812 19.1079H40.5425L40.7815 21.0527C40.6446 21.0527 40.2237 20.7405 38.7778 20.7405H37.5249V23.0077H37.7892C39.3474 23.0077 39.7378 22.8561 39.9006 22.8561V24.8471C39.7692 24.8471 39.3111 24.6516 37.8292 24.6516H37.5298V26.9163C37.9542 26.9888 38.3837 27.023 38.8142 27.0184C40.7178 27.0083 40.6468 26.7596 40.9735 26.7349ZM24.964 23.3077H25.2258C26.7831 23.3077 27.1735 23.1559 27.3372 23.1559V25.1469C27.2068 25.1469 26.7474 24.9513 25.2658 24.9513H24.9677V26.598C24.9677 28.4881 25.3111 28.5477 25.3111 28.7332H21.5206C21.5206 28.5437 21.8348 28.3867 21.8348 26.6414V21.186C21.8348 19.5063 21.5206 19.2851 21.5206 19.1079H27.9812L28.2194 21.0527C28.0862 21.0527 27.6603 20.7405 26.2157 20.7405H24.9625V23.3077H24.964ZM32.4825 21.186V26.6414C32.4825 28.3962 32.7982 28.5404 32.7982 28.7332H29.0391C29.0391 28.5437 29.3523 28.39 29.3523 26.6414V21.186C29.3523 19.5039 29.0391 19.2848 29.0391 19.1079H32.7982C32.7982 19.2869 32.4825 19.491 32.4825 21.186ZM15.7563 28.7356C11.9182 28.7702 11.0058 30.8437 6.13015 30.8437C4.62923 30.8265 3.13661 30.6227 1.68677 30.2374C1.68677 30.0443 2.00123 29.8897 2.00123 28.152V19.3169C2.00123 17.5636 1.68677 16.9565 1.68677 16.8679H9.56246L9.82154 19.037C9.73538 19.037 9.09969 18.732 7.432 18.732H5.34584V22.4904H6.35815C8.068 22.4904 9.00492 22.3208 9.14246 22.3208V24.5831H9.06861C8.74646 24.4685 7.68031 24.364 6.39846 24.364H5.36831V28.1123C9.53938 29.0592 11.2108 27.3692 14.7302 27.3692C14.824 27.3692 14.8917 27.3692 14.9895 27.3692C15.3723 27.8556 15.7914 28.3134 16.2425 28.7381L15.7563 28.7356ZM10.6511 9.03982V4.64471H11.7114C12.9582 4.64471 13.4806 5.36766 13.4806 6.5303C13.4806 7.9386 12.6434 9.0386 11.3114 9.0386L10.6511 9.03982ZM22.3049 4.83538C19.2809 4.83538 17.196 6.6846 17.196 9.31513C17.196 13.1437 21.2908 13.6928 22.7006 12.452L22.4615 11.9542C21.2209 12.2032 20.0957 11.2624 20.0957 9.16816C20.0957 7.46438 20.9954 6.40166 22.2569 6.40166C23.6982 6.40166 24.6117 7.85274 24.6117 9.93724C24.6117 12.3102 23.2409 14.1096 20.6532 14.1096C17.7111 14.1096 15.4742 11.8063 14.1185 9.50549C15.6332 8.91302 16.5308 7.78063 16.5308 6.23116C16.5308 4.22549 15.0182 2.8291 12.2702 2.8291L7.11261 2.82971C7.11261 2.90457 7.42708 3.52699 7.42708 5.27477V12.6041C7.42708 14.3534 7.11261 14.5056 7.11261 14.6944H10.972C10.972 14.6012 10.6511 13.9642 10.6511 12.6041C10.6511 11.4653 10.6511 10.5771 10.6511 10.5771H11.1222C13.8003 14.468 16.8388 16.0807 20.0942 16.0807C24.8009 16.0807 27.5874 13.1352 27.5874 9.83641C27.5892 7.07755 25.4548 4.83538 22.2997 4.83538H22.3049ZM33.1403 12.5592C33.1403 14.3214 33.4837 14.5536 33.4837 14.6944H29.6994V14.651C30.0815 14.014 30.0138 13.3491 30.0138 12.5876V10.6327L27.6631 6.24002C27.4123 5.77221 27.2255 5.4636 26.836 5.12046V5.06913L30.1529 5.06944L32.12 9.08749L33.204 6.89727C33.8905 5.53266 33.3406 5.3371 33.3406 5.06944H35.972C35.972 5.21794 33.1877 10.5401 33.1412 10.735L33.1403 12.5592ZM38.2052 10.8068L39.0997 8.12041H39.1148L40.0545 10.8068H38.2052ZM41.0083 5.06913H37.7942C37.7942 5.37132 38.2514 5.23688 37.6338 7.13102L35.6009 12.9674C35.3357 13.7139 35.2942 13.9254 34.788 14.6498V14.6932H37.4695C37.4695 14.4497 36.9911 14.3709 37.5449 12.778L37.6877 12.3649H40.5997C40.7138 12.6897 41.0249 13.4276 41.0182 13.9367C41.0126 14.3437 40.8665 14.5893 40.8665 14.6944H44.7511V14.651C44.3298 14.1258 44.1422 13.5385 43.7889 12.6029L41.0083 5.06913Z" fill="white"/>
</svg>
