<svg width="44" height="43" viewBox="0 0 44 43" fill="none" xmlns="http://www.w3.org/2000/svg">
<path d="M36.3011 35.7098C32.5503 39.4604 27.279 41.6442 21.9748 41.6442C16.6708 41.6442 11.3992 39.4604 7.64897 35.7098C3.89897 31.959 1.71536 26.6881 1.71536 21.3839C1.71536 16.0799 3.89897 10.8082 7.64897 7.05823C11.3992 3.30745 16.6708 1.12442 21.9748 1.12442C27.279 1.12442 32.5503 3.30745 36.3011 7.05823C40.0511 10.8082 42.2351 16.0799 42.2351 21.3839C42.2351 26.6881 40.0511 31.959 36.3011 35.7098ZM36.9383 6.42048C33.0205 2.50287 27.5152 0.22229 21.9748 0.22229C16.4347 0.22229 10.929 2.50287 7.01201 6.42048C3.09439 10.3375 0.813232 15.844 0.813232 21.3839C0.813232 26.9238 3.09439 32.4295 7.01201 36.3479C10.929 40.2649 16.4347 42.5455 21.9748 42.5455C27.5152 42.5455 33.0205 40.2649 36.9383 36.3479C40.8553 32.4295 43.1365 26.9238 43.1365 21.3839C43.1365 15.844 40.8553 10.3375 36.9383 6.42048Z" fill="#FEFEFE"/>
<path d="M20.8113 20.7123V22.0551L21.9749 22.7277L23.1383 22.0551V20.7123L21.9749 20.0403L20.8113 20.7123Z" fill="#FEFEFE"/>
<path d="M22.9869 17.492V14.6376C22.9869 14.3732 22.8773 14.11 22.69 13.9224C22.5028 13.7351 22.2396 13.6261 21.9748 13.6261C21.7098 13.6261 21.4472 13.7351 21.2602 13.9224C21.0721 14.11 20.9631 14.3732 20.9631 14.6376V17.492L21.9748 18.0754L22.9869 17.492Z" fill="#FEFEFE"/>
<path d="M15.6268 23.8811C15.3976 24.0133 15.2244 24.2399 15.1555 24.4952C15.087 24.7507 15.1241 25.0333 15.2569 25.2622C15.3891 25.4925 15.6148 25.6656 15.8707 25.7341C16.1265 25.8024 16.4091 25.7649 16.6381 25.6327L19.1101 24.2056V23.0376L18.098 22.4542L15.6268 23.8811Z" fill="#FEFEFE"/>
<path d="M28.3226 23.8811L25.8513 22.4542L24.8398 23.0376V24.2056L27.3111 25.6327C27.541 25.7649 27.823 25.8024 28.0793 25.7341C28.3351 25.6656 28.5614 25.4925 28.693 25.2622C28.8252 25.0333 28.8624 24.7507 28.7938 24.4952C28.7255 24.2399 28.5517 24.0133 28.3226 23.8811Z" fill="#FEFEFE"/>
<path d="M36.5951 30.0341C36.5368 30.0616 36.4696 30.0694 36.4071 30.0579L31.9629 29.2261C31.8541 29.2056 31.7521 29.1485 31.6787 29.0666C31.6044 28.9843 31.5583 28.8773 31.5496 28.7668C31.5241 28.4499 31.3994 28.141 31.197 27.8948C30.9947 27.6498 30.7154 27.4677 30.4083 27.3821C30.1013 27.2966 29.7686 27.3082 29.4682 27.4141C28.929 27.6043 28.3483 27.6761 27.7791 27.6237C27.2099 27.5703 26.6527 27.3934 26.1566 27.1073L24.8399 26.3472V34.9952H22.9869V25.2759L21.9748 24.6924L20.9631 25.2759V34.9952H19.1101V26.3472L17.7926 27.1073C17.2981 27.3934 16.7395 27.5703 16.1705 27.6237C15.6011 27.6761 15.021 27.6043 14.4812 27.4141C14.181 27.3082 13.8483 27.2966 13.5417 27.3821C13.234 27.4677 12.9552 27.6498 12.7524 27.8948C12.5502 28.141 12.4253 28.4499 12.3996 28.7668C12.3918 28.8773 12.345 28.9843 12.2711 29.0666C12.1973 29.1485 12.0955 29.2056 11.9871 29.2261L7.54247 30.0579C7.47976 30.0694 7.41241 30.0616 7.35435 30.0341C7.29609 30.0066 7.24557 29.9623 7.21422 29.9064C7.1817 29.8506 7.1668 29.7845 7.17376 29.7206C7.17938 29.6567 7.20512 29.5942 7.24712 29.545L10.1898 26.1125C10.2611 26.0281 10.3615 25.9688 10.4697 25.9462C10.5779 25.9232 10.6936 25.9369 10.7933 25.9847C11.0811 26.1215 11.4105 26.1684 11.7251 26.1148C12.039 26.0625 12.3359 25.9117 12.5627 25.6886C12.7907 25.465 12.9467 25.171 13.0062 24.8588C13.1109 24.2958 13.3387 23.7579 13.6694 23.2919C13.9998 22.8245 14.4324 22.4302 14.9269 22.1441L16.245 21.3839L8.75505 17.06L9.68157 15.4541L18.098 20.3137L19.1101 19.7298V18.5616L10.6936 13.7025L11.6196 12.0972L19.1101 16.4211V14.9004C19.1101 14.3283 19.2349 13.7567 19.4732 13.2374C19.713 12.7179 20.0652 12.2517 20.4994 11.8791C20.7411 11.672 20.9176 11.389 20.997 11.0811C21.0762 10.7722 21.0583 10.4403 20.9472 10.1416C20.8358 9.84355 20.6316 9.58091 20.3683 9.40071C20.2772 9.33742 20.2071 9.24413 20.1734 9.13923C20.1394 9.03375 20.1405 8.91762 20.1775 8.81329L21.6796 4.54846C21.7007 4.48826 21.7416 4.43407 21.794 4.39691C21.8459 4.35994 21.9098 4.33942 21.9748 4.33942C22.0396 4.33942 22.1043 4.35994 22.156 4.39691C22.2084 4.43407 22.2489 4.48826 22.2698 4.54846L23.7727 8.81329C23.8091 8.91762 23.8108 9.03375 23.7765 9.13923C23.7417 9.24413 23.6722 9.33742 23.5811 9.40071C23.319 9.58091 23.114 9.84355 23.0029 10.1416C22.8911 10.4403 22.8734 10.7722 22.9532 11.0811C23.0323 11.389 23.2085 11.672 23.45 11.8791C23.8847 12.2517 24.2372 12.7179 24.4764 13.2374C24.7153 13.7567 24.8399 14.3283 24.8399 14.9004V16.4211L32.3298 12.0972L33.2565 13.7025L24.8399 18.5616V19.7298L25.8514 20.3137L34.2678 15.4541L35.1945 17.06L27.705 21.3839L29.0225 22.1441C29.5172 22.4302 29.9498 22.8245 30.2802 23.2919C30.6113 23.7579 30.8385 24.2958 30.9438 24.8588C31.0027 25.171 31.1594 25.465 31.3863 25.6886C31.6141 25.9117 31.9112 26.0625 32.2245 26.1148C32.5391 26.1684 32.8689 26.1215 33.1563 25.9847C33.2558 25.9369 33.3715 25.9232 33.4797 25.9462C33.5881 25.9688 33.6883 26.0281 33.7602 26.1125L36.7025 29.545C36.7443 29.5942 36.7708 29.6567 36.7762 29.7206C36.7832 29.7845 36.7683 29.8506 36.7354 29.9064C36.704 29.9623 36.6539 30.0066 36.5951 30.0341ZM34.6845 8.67413C31.3576 5.34626 26.6803 3.40942 21.9748 3.40942C17.2694 3.40942 12.5927 5.34626 9.26505 8.67413C5.93718 12.0016 4.00073 16.6781 4.00073 21.3839C4.00073 26.0896 5.93718 30.7669 9.26505 34.0936C12.5927 37.4215 17.2694 39.3577 21.9748 39.3577C26.6803 39.3577 31.3576 37.4215 34.6845 34.0936C38.0128 30.7669 39.9496 26.0896 39.9496 21.3839C39.9496 16.6781 38.0128 12.0016 34.6845 8.67413Z" fill="#FEFEFE"/>
</svg>
